<mxfile host="65bd71144e">
    <diagram id="9-JOqRD9dcRPG_hDNvAK" name="PÃ¡gina-1">
        <mxGraphModel dx="2391" dy="841" grid="1" gridSize="10" guides="1" tooltips="1" connect="1" arrows="1" fold="1" page="1" pageScale="1" pageWidth="827" pageHeight="1169" math="0" shadow="0">
            <root>
                <mxCell id="0"/>
                <mxCell id="1" parent="0"/>
                <mxCell id="2" value="" style="whiteSpace=wrap;html=1;aspect=fixed;" parent="1" vertex="1">
                    <mxGeometry x="490" y="85" width="270" height="270" as="geometry"/>
                </mxCell>
                <mxCell id="3" value="" style="endArrow=none;dashed=1;html=1;dashPattern=1 3;strokeWidth=2;entryX=0.893;entryY=-0.011;entryDx=0;entryDy=0;entryPerimeter=0;exitX=0.885;exitY=1.022;exitDx=0;exitDy=0;exitPerimeter=0;" parent="1" source="2" target="2" edge="1">
                    <mxGeometry width="50" height="50" relative="1" as="geometry">
                        <mxPoint x="690" y="345" as="sourcePoint"/>
                        <mxPoint x="740" y="295" as="targetPoint"/>
                    </mxGeometry>
                </mxCell>
                <mxCell id="4" value="" style="endArrow=none;dashed=1;html=1;dashPattern=1 3;strokeWidth=2;entryX=0.893;entryY=-0.011;entryDx=0;entryDy=0;entryPerimeter=0;exitX=0.885;exitY=1.022;exitDx=0;exitDy=0;exitPerimeter=0;" parent="1" edge="1">
                    <mxGeometry width="50" height="50" relative="1" as="geometry">
                        <mxPoint x="700" y="359.45000000000005" as="sourcePoint"/>
                        <mxPoint x="702.1600000000001" y="80.53999999999998" as="targetPoint"/>
                    </mxGeometry>
                </mxCell>
                <mxCell id="5" value="" style="endArrow=none;dashed=1;html=1;dashPattern=1 3;strokeWidth=2;entryX=0.893;entryY=-0.011;entryDx=0;entryDy=0;entryPerimeter=0;exitX=0.885;exitY=1.022;exitDx=0;exitDy=0;exitPerimeter=0;" parent="1" edge="1">
                    <mxGeometry width="50" height="50" relative="1" as="geometry">
                        <mxPoint x="660" y="363.9100000000001" as="sourcePoint"/>
                        <mxPoint x="662.1600000000001" y="84.99999999999997" as="targetPoint"/>
                    </mxGeometry>
                </mxCell>
                <mxCell id="6" value="" style="endArrow=none;dashed=1;html=1;dashPattern=1 3;strokeWidth=2;entryX=0.893;entryY=-0.011;entryDx=0;entryDy=0;entryPerimeter=0;exitX=0.885;exitY=1.022;exitDx=0;exitDy=0;exitPerimeter=0;" parent="1" edge="1">
                    <mxGeometry width="50" height="50" relative="1" as="geometry">
                        <mxPoint x="623.9200000000001" y="363.9100000000001" as="sourcePoint"/>
                        <mxPoint x="626.0800000000002" y="84.99999999999997" as="targetPoint"/>
                    </mxGeometry>
                </mxCell>
                <mxCell id="7" value="" style="endArrow=none;dashed=1;html=1;dashPattern=1 3;strokeWidth=2;entryX=0.893;entryY=-0.011;entryDx=0;entryDy=0;entryPerimeter=0;exitX=0.885;exitY=1.022;exitDx=0;exitDy=0;exitPerimeter=0;" parent="1" edge="1">
                    <mxGeometry width="50" height="50" relative="1" as="geometry">
                        <mxPoint x="590" y="359.45000000000005" as="sourcePoint"/>
                        <mxPoint x="592.1600000000001" y="80.53999999999996" as="targetPoint"/>
                    </mxGeometry>
                </mxCell>
                <mxCell id="8" value="" style="endArrow=none;dashed=1;html=1;dashPattern=1 3;strokeWidth=2;entryX=0.893;entryY=-0.011;entryDx=0;entryDy=0;entryPerimeter=0;exitX=0.885;exitY=1.022;exitDx=0;exitDy=0;exitPerimeter=0;" parent="1" edge="1">
                    <mxGeometry width="50" height="50" relative="1" as="geometry">
                        <mxPoint x="550" y="363.9100000000001" as="sourcePoint"/>
                        <mxPoint x="552.1600000000001" y="84.99999999999997" as="targetPoint"/>
                    </mxGeometry>
                </mxCell>
                <mxCell id="9" value="" style="endArrow=none;dashed=1;html=1;dashPattern=1 3;strokeWidth=2;entryX=0.893;entryY=-0.011;entryDx=0;entryDy=0;entryPerimeter=0;exitX=0.885;exitY=1.022;exitDx=0;exitDy=0;exitPerimeter=0;" parent="1" edge="1">
                    <mxGeometry width="50" height="50" relative="1" as="geometry">
                        <mxPoint x="520" y="359.45000000000005" as="sourcePoint"/>
                        <mxPoint x="522.1600000000001" y="80.53999999999996" as="targetPoint"/>
                    </mxGeometry>
                </mxCell>
                <mxCell id="10" value="" style="endArrow=none;dashed=1;html=1;dashPattern=1 3;strokeWidth=2;entryX=-0.011;entryY=0.126;entryDx=0;entryDy=0;entryPerimeter=0;" parent="1" target="2" edge="1">
                    <mxGeometry width="50" height="50" relative="1" as="geometry">
                        <mxPoint x="760" y="119" as="sourcePoint"/>
                        <mxPoint x="475.53" y="119.06" as="targetPoint"/>
                    </mxGeometry>
                </mxCell>
                <mxCell id="12" value="" style="endArrow=none;dashed=1;html=1;dashPattern=1 3;strokeWidth=2;entryX=-0.011;entryY=0.126;entryDx=0;entryDy=0;entryPerimeter=0;" parent="1" edge="1">
                    <mxGeometry width="50" height="50" relative="1" as="geometry">
                        <mxPoint x="761.49" y="155" as="sourcePoint"/>
                        <mxPoint x="488.52" y="155.01999999999998" as="targetPoint"/>
                    </mxGeometry>
                </mxCell>
                <mxCell id="13" value="" style="endArrow=none;dashed=1;html=1;dashPattern=1 3;strokeWidth=2;entryX=-0.011;entryY=0.126;entryDx=0;entryDy=0;entryPerimeter=0;" parent="1" edge="1">
                    <mxGeometry width="50" height="50" relative="1" as="geometry">
                        <mxPoint x="762.97" y="185" as="sourcePoint"/>
                        <mxPoint x="490" y="185.01999999999998" as="targetPoint"/>
                    </mxGeometry>
                </mxCell>
                <mxCell id="14" value="" style="endArrow=none;dashed=1;html=1;dashPattern=1 3;strokeWidth=2;entryX=-0.011;entryY=0.126;entryDx=0;entryDy=0;entryPerimeter=0;" parent="1" edge="1">
                    <mxGeometry width="50" height="50" relative="1" as="geometry">
                        <mxPoint x="761.49" y="219.5" as="sourcePoint"/>
                        <mxPoint x="488.52" y="219.51999999999998" as="targetPoint"/>
                    </mxGeometry>
                </mxCell>
                <mxCell id="15" value="" style="endArrow=none;dashed=1;html=1;dashPattern=1 3;strokeWidth=2;entryX=-0.011;entryY=0.126;entryDx=0;entryDy=0;entryPerimeter=0;" parent="1" edge="1">
                    <mxGeometry width="50" height="50" relative="1" as="geometry">
                        <mxPoint x="753.97" y="255" as="sourcePoint"/>
                        <mxPoint x="481" y="255.01999999999998" as="targetPoint"/>
                    </mxGeometry>
                </mxCell>
                <mxCell id="16" value="" style="endArrow=none;dashed=1;html=1;dashPattern=1 3;strokeWidth=2;entryX=-0.011;entryY=0.126;entryDx=0;entryDy=0;entryPerimeter=0;" parent="1" edge="1">
                    <mxGeometry width="50" height="50" relative="1" as="geometry">
                        <mxPoint x="760" y="285" as="sourcePoint"/>
                        <mxPoint x="487.03" y="285.02" as="targetPoint"/>
                    </mxGeometry>
                </mxCell>
                <mxCell id="17" value="" style="endArrow=none;dashed=1;html=1;dashPattern=1 3;strokeWidth=2;entryX=-0.011;entryY=0.126;entryDx=0;entryDy=0;entryPerimeter=0;" parent="1" edge="1">
                    <mxGeometry width="50" height="50" relative="1" as="geometry">
                        <mxPoint x="760" y="325" as="sourcePoint"/>
                        <mxPoint x="487.03" y="325.02" as="targetPoint"/>
                    </mxGeometry>
                </mxCell>
                <mxCell id="24" value="" style="endArrow=classic;html=1;" parent="1" edge="1">
                    <mxGeometry width="50" height="50" relative="1" as="geometry">
                        <mxPoint x="460" y="65" as="sourcePoint"/>
                        <mxPoint x="460" y="155" as="targetPoint"/>
                    </mxGeometry>
                </mxCell>
                <mxCell id="25" value="" style="endArrow=classic;html=1;" parent="1" edge="1">
                    <mxGeometry width="50" height="50" relative="1" as="geometry">
                        <mxPoint x="460" y="65" as="sourcePoint"/>
                        <mxPoint x="560" y="65" as="targetPoint"/>
                    </mxGeometry>
                </mxCell>
                <mxCell id="26" value="y" style="text;html=1;align=center;verticalAlign=middle;resizable=0;points=[];autosize=1;strokeColor=none;fillColor=none;" parent="1" vertex="1">
                    <mxGeometry x="430" y="125" width="30" height="30" as="geometry"/>
                </mxCell>
                <mxCell id="27" value="x" style="text;html=1;align=center;verticalAlign=middle;resizable=0;points=[];autosize=1;strokeColor=none;fillColor=none;" parent="1" vertex="1">
                    <mxGeometry x="535" y="30" width="30" height="30" as="geometry"/>
                </mxCell>
                <mxCell id="36" value="" style="shape=image;verticalLabelPosition=bottom;labelBackgroundColor=default;verticalAlign=top;aspect=fixed;imageAspect=0;image=data:image/png,iVBORw0KGgoAAAANSUhEUgAABDAAAALjCAYAAADk7vWtAAAAAXNSR0IArs4c6QAAAARnQU1BAACxjwv8YQUAAAAJcEhZcwAADsMAAA7DAcdvqGQAAP+lSURBVHhe7N0FQFTLGgfw/9Jt97W7u7tbsbu7sLs7ULG7u/va3d3eZ3crKqIo/c4Mg4qCEssS/n/38XZnzmF3BXbPme/MfJ/Ow8PDFwZgamqq7hERERERERFRdOHp6anuhS8jdUtEREREREREFGkxgEFEREREREREkR4DGEREREREREQU6TGAQURERERERESRHgMYRERERERERBTpMYBBRERERERERJEeAxhEREREREREFOkxgEFkCN4vsWd6f7QauhoXPqu+SMD9wV6M6j8M869+UT1ERERERESREwMYRIbw6RzWbziGI/v34OgzL9UZ0TxwceN8LDt0CHsvv4G36g0Vbze8d/kKH9UkIiIiIiLSNwYwiAzA28UFLjJuYQxTE53sC8D9Da6dPY+b78IURggxH2+/59PpjOVtyHnj5dEZqFu1IvJWaoIRZz1UPxERERERkX4xgEFkAL6envCU98xhbi7v/MAdRya1QS2HbqjRbibOREQMIJCYyp/5wPn0LLQbtgYXReDF+x1eveMcDCIiIiIiCh8MYBAZgo8PfMWtzhSWFj9HC4wQM14cWOqMESNJEsSOgHelLhQBjI9XFqPD4HW44aY6YAozU3WXiIiIiIhIzxjAIDIIXxXAMIO5+c9vO1NkbzMbBzdvxP5JtZDWRHVHYm631qBLv6W46OoLs3/SI4OdTvu3mcDMNFRTOYiIiIiIiP6IAQwiQ9Dp/FZpGJnCPNAAhRniJIwLm9Cmovh8E+umTcLME6+Cl0jTxxtenl7wklEVwFe2PeEh+v6QhsPj0Q706j0bJ977wDRJWYxxbI0cYlaJzgSmDGAQEREREVE4YQCDSE++PDmFJU4DUKt2VWQvXBTpilZE8RYDMf30W/jojPwCGKZmCGyM/+XIKOQrVgW1Zl3EJ9Uneb3FmQ3T0NWhHeybd0Dz/hMx99B9uPwUpXA/swZjV23GzLWn8PrFWcwd0RGly5dChmKVUXngOlz+9qBuODOrFXIVLY4MRcuh1ZbX8IE3Ls5siMxFSyJT0RLIULoNZt4JolLKx7MY328y9r72hi5WPvSb0B/2iX3h7S0iIaYwM/PbjYiIiIiISN8YwCAKMw/c3zUaNZv1wai1R3Hl6Xt81gb0Pp6uePa/I5i3+SK+GvkFMHTGxvh1koUP3Jyd4erxAdcPHsP//LJ9at1vsGtMRzSbuA7/nr2B6zev4fihLXDs3xJV+m3BHf/9BDHDQ3sC76d70K19bzjuvIpHLh7w8nDBrQMz0WvuRXwW+3m/xaULd/Hxd7MsxEyMIKZxuF/ei+0PPWBklwUdRg5Fk9QiYuHjN2tDLCEJrMIKERERERGRHjCAQRQmPvhweiY6jNmFO26+MLJOiiJVGsChTRPUL5oeiWL8g4plc8HS2Bhy5YiRUSABDMDdQ8148PX9tgTky4VlGL/7Oby074iZIjtKliiB0tkTw1rnhRfHl2PZpR/KlZiaQYQSvJ9fw/lXxkicqwo6aK+hegZb6OCNR3u34YiYhWGcDI0Hj8PYbh3Ru30LNMgVR/sQMELcPHXRu3NH9O3SBaMnjUL79IEn4jAv2BozRozE6mXT0CNPDPUB4iNetoY5MIiIiIiIKPwwgEEUFl63sXjGVtzzBEyTlofjkqVYMqgTHFq1wyjHhTi2Zw0mlIkLIxM18yKIch+mJn5vRZ2lNazlLu44u/cYnvsYIX6xzpg5rCPa2pdGiez/wFZs11khhs0Pb18zk29LUyyyNMeCqf3QU3sNE0a3QH4LwNf1Bs7d8gt42KQoiDr1G6Jd8xZoV+Qf7XXpYJ26OFo0bog2jeqhXoF/YCn3DIRpQuQrWxK5E/64VsQXPiqXBhERERERUXhhAIMoDDz+dwC7Hnhp76QEsO/WHdWTBp4EQmdqCrm6wssLv67eMIKFuZlfjgzt/+Wb0vstbj96Dx/tv9dHp6JR83Zo0G0wBi87i5c+xkhYqgkaZvg+S0InZmDIBzBH3sqVkEaVMzVOWBjF0hoDPm/x4LFcRPIDI1haiuf1gdvnz35VUkLF/zt94M1IBhEREYWIG27unIZWjaohS+HiyFSmOsq1H4JxGy/i+Y/LZYOTF0w739ncvxoyVx2Mza+0DV8eYve8Iahds7L22MWQqUJT9Nj+GM4np6BS2epoueHRr+dlPi44Oq0V8lTog7Wv/R7c680lLJ8yBM1at4J92+7oPGEF9tz7qJ35/CCYz/2HXOlE9AcMYBCFgfujx3iqHYl01llQLJeN6v2Vkbm5DDD4ennAI5Axvom5md8SE3++X/D5q7r/AyPLRChQbxCWDCyHxD++e0WARNwaJ0SGtP5LOzTG8ZAptVgm4oP3b9/h59SclpaW2jZffPr0KeBBOESMYCSDJz7wDf2DEBER0V/HGw83DUHTUetw5N47fPX2hscnZ9y/fBALHLuj3vijfrsFNy+YkZm271e4vzmNfRduYnGfznBYdBCXn7toj+0Djw8Pceb6U7x/cBsPXZ1xfOkKHHBR36t4v9yDeRtv4aNpLMSz0c6gXh9C//bdMHzNQZy4fgvXr57D7k1z0KlZc3Ta/ADfFvQG67nF0mAiCgsGMIjCQKdmH+gsrGD1uxKoZhawFNs9XPH+06+jfCNzC5j7TcHwo7OCjVzHYYwUFbpj+oQJWDpvGY7tXIsV3csijYXc6xsjMzP4TbqwQUy7H9/WxkicKK58o391//JLkMLYxhY22vN6fXKFa6iDD0YwUv927fhMREREFDxeD7Ft6zm889HBNmVRNGnZCp3rlUOBpDbaGYw33j97IXcLfl4wa2TPlBIm8MDtdY6Yev6Ddu5jjNhpC6Nuw+bo1WsEFnQqgFRlK6KwrQ4+bw5gzsa7PwQVvPFw3wFccDdGslKVUNjqK04vnYWtz7y1kyY7pM5RCOVKFkbuxJbQeb3GgSUbcO5bBCM4z50P5mpvIgodBjCIwsA0VizY6QCfj2/x6ovqDIzOGrYiuYWvM168UpMHvT3h4T+P0Nw8YADDOA5SJBEJOH3wEXFQrFghFM6WCgks/d6yHi/PYcXKA7jlJptyiYoMYOgsYe2XREPRTgisrbT/184RPH+dtKiztYFIpeH76SM+hDr4YAxj+ZQ+zIVBREREweernX+IJOMmOeDgNBpD27ZAt+5DsGLteuyeOx0bR9fWNoYkL5gxkqRJiVg6bzy8eQeffM2Rsd547FwyHmMcWqN97RLIaGcEo/jl0K7KPzLYcG3DCux5r06CvB9j9+Gb8DROjooVMsPc/RK2H30FH6M4KOswGpM6N0L9sgWRN6mNPLcysraD7bfRVPCem4jChu8iojAwTZse6UTaC49r2LXvWYB1je6vrmDTfEf0nnYAjxEX8WNpbzfvF7h5+yO8Xu1F91rlkL/XFjzTjpk6i59mYMAUOXJkhBV88f7sQRx65x9d8MH7qyvRvk0vDJs+Ev3XPvDrNvMPYJjDSgU5/BjBzMxEHmQDYxw7FmJptz4fP+DbU4SUTgcjsYbE1wc+jGAQERFRcBmnQJY0VtD5vsbtO++/n0cZ2SJl9pxIH9tYO3cKWV4wkySJvy2zNYpXFj3aFkDcX2bJmiNXvfoobKOD77sjmL/hrlwK4v3kGA7e8YZJ6mKolNYE3m8e4J44QfJxxj6nLrBv3QktB0zEnDNv4GMcD+Wb2SPLD2uAg/fcRBQWDGAQhYFR3KKomtdWO/B+wrFpDmgyYgamLJiLQb1bonjtTuizcCu2n76Ld0ZJkTWdHXRwx+m1E9F/6Ez8+9ITnx8+wBORA1QsIVGP6RcCMELsohVQIrY4sB7GiL4TMHn+bAzq2wYVO87G0TfeMI6TD7VLJJV7f0viaWQM45/e1cY6vw6dX6KKAIxjx0Ec7cDr4/IezqENYMBYVIfViACG7CAiIiL6M6NYqNa5B+pn+Iqt/RqhfMchGD5vLTafvIPX7mqfEOYFM44XD/FkUEGHGLkKIL+17P6FUcLyaC9nYXjixubVOODihacnTuM/L2OkKVwMabXH8P3ihl+f2ghWiXKh2VAnjCufIMBgKrjPTUSh99NQh4hCxCgeqndogQIxdIDHK5zduQYzFizHmmO38dYTsExaCoOHNUEOU0sUqVIGyY213R4ew+bLztpw3wTJChVGZjPtMGdh7hfAELMY5ANrDx2rODo2yg5bnQ/eXduBWQtXYs2RW3jrpYNtmioYO30EGqb0C/sbmZv6lVE1VuVaf+ClogpWlla/vuFNEyBxHK3361u8DPUUDGOoKrBcQkJEREQhYpK0LEYu3Ixzm6ZjZO18SOxxC6vHtkWJGu0w4tBL7SQpZHnBYGKHmHI5rRGSJEv2m5wTFshdry4KWmunX++OYtmOazh0UiwfSYxCBUQuC+2pra1hJXY1Tgr7XiMxe5IT1q7chNMbp2FwuRS/lp0P9nMTUWgxgEEURmap62LWjP5oXig1EliZwtQiJpJnKYam3RyxfdkINEonD32wzNEC49oWRko7U5jZ/IPCDYdhQdd8sNW26WLER0JbW6TLkxVJv70rTZC+wXDMal8KWeJZw8zcFkkyFEKjbhOxbUE/1Ez1wxHbIh4SxrJG0vx5kVmVUPVnahcDMWySoUDOJPJgHIBJMmROYwMzO1tY60IZfTCOj1TJ7GCTOAfypvjlGYiIiIj+wAjWCdKiYKkqaNN5CJaPrIHELjewcu4m7TwjZHnBxPITO2uxTQfbGGL2a9CMEpVHq7IJtWd3x8UNE7HimgeMYudA4Qx+J1PGcZIiqUi04eMK3zj5UbZwXuROHRdW8qk98fzsJizYdw/fCtWH4LmJKHR0Hh6BFXXUP1PTn0ZVRERERET0d/P+Ald3U9hafb8I4nJoBCoM3Iu3MSvhzs5+eLutL0qPOQW32KXgtGIYqsQWQQKRF2w1eg6ch6NvdMjWbjE2tUgJeN3D1FYtMf2WEYr124pF9nZ+DxoEr7uLUbv5QlyXpUh0sCs9DEdGl5YXmODzDut61cOAk18Rp/RQ7BxZBmLiKnxccGHlSDjMOY1XuozovnwOOqU0DvFzE0Unnp7+9YzDl4wfEhERERERGZTPW2zsXxO5ylZDuY5DMXTWQkybNRqtHQ/gjY+Y5JlQ2ylkecFgJJac+M99+PN1WpNUFVEnl/9iEDNkz5MD31JXGMVE6YoFEUfnC+dDU9Bh7HxMnemIDi2boPHM03jlbYx4+SujfFK1gDeEz01EIccABhERERERRQBfeHp6w9f7I+5fPICVyxZj2rJduPTOG9DZoVDVcnKvkOQFg5H1tyCCr28w8nsZxUeFinn9SrKapEOhPDF/GCAZIU7JZmidwwY6nw+4uH0ppi/fin0338FTZ4MMVfti6Wh7pPGfPBLS5yaiEDMePHjwMHU/XBkbs4YQEREREREpOmtkzJURtl8+4MPHT3B184CviTUSpsuLuu0HYEi1lKrMvBHiZsmP7GavcefRa3zwtkDCtHlQrXE3OPapjwJ+pT8UI3g+PIb9zpnRtGkFZIn5p+u1OlglMMOjA2fwuWBL9KmSFnY/fotRbOQsmAnmr+7j/mtXeFrEQ8a8ZdGmxyCMaJgLCQOk/wrpcxNFHz4GKkfIHBhEREREREREFGrMgUFEREREREREpDCAQURERERERESRHgMYRERERERERBTpMYBBRERERERERJEeAxhEREREREREFOkxgEFEREREREREkR4DGEREREREREQU6TGAQURERERERESRHgMYRERERERERBTpMYBBRERERERERJGezsPDw1fdD1empqbqXvTx3sUF46fP0m4/wOWjK7y8vOHl7aW2/srIyAibFs1XrYBcP39Gk04OqhVQnNixsHDyRNUK6Mnz5+gyYLBqBZQmRQpMHBb4tqv//Q9DJgT+mHlzZMfAboG/liOnTsNpbuD/hrLFi6FTi2aqFdDW3XuxeM1a1QqoXvWqaFDDXrUCWrJmHbbs3qNaAbVr2hgVS5VUrYCc5i3AkZOnVCugfl06oUDuXKoVkPiZiJ9NYMYPGoD0aVKrVkAOA4fg8bNnqhXQvInjET9uXNUKqLH2O/+k/e4Ds27+HJgF8r7x8vJC7dbtVCsgaysrrJw1XbUCeuPsjDY9+6hWQP8kSoQZY0epVkC3791Hn5GjVSugLBkyYFS/3qoV0JmLlzB22gzVCqhYgfzo0b6tagW0++BhzFm2XLUCqla+HFo2qKdaAa3ZslX72qZaATWrVwc1KlZQrYBmLVmGvYePqFZA3dq0RonCBVUroNFTpuHc5SuqFdDw3j2RPXMm1Qqo9/BRuPPggWoFNHXUCCT/J4lqBdS6R2+8ffdOtQJaPmMqbG1sVOs78bdySHsfiMdMljgJLCzM1RYiiu7cvnzBviPH8OrNG7x6+1Z+fnz9+hVfvrprn/kJMWZAP8xcvFTb56j6joC6t2uD4gULqFZAv/v8G9m3N7JmzKBaAfUaNhJ3Hz5UrYCmjxmJpIkTq1ZArXr0gvO796oV0PKZ02Brba1aAdVs2QY+Pj6q9Z2piQnWL5irWgF9dHVF0y7dVCugeHHiYP6kCaoV0MMnT9Ft8FDVCihd6lSYMHigagV0+foNDJs4WbUCyp8rJ/o7dFatgA6dOImp8xeqVkAVSpZA+2ZNVCugTf/uxLL1G1UroPr21bWvaqoV0MJVa7B97z7VCqhj86YoV6K4agU0cdZcHD97VrUCGtC1C/LlzKFaAQ0aNwHXb95SrYAchw5C2pQpVSugjv0G4vnLl6oV0IJJjogbJ7ZqBdSwQ2f5ngnMxoXzYGxsrFrfubu7o167jqoVkDgmi2NzYF6+foP2ffqpVkDieC3OBQLzvzt30H/0ONUKSJxziHOPwJw6fwHjZ8xSrYCKFyqI7m1bq1ZA/+4/gPkrVqlWQOKcSpxbBWblxs1Yv32HagXUon49VK9QTrUCmrFwMfYfO65aAYlzRnHuGJiRTlNx4cpV1QpInKOKc9XA9Bg6HPcfPVatgGaMGYV/EidSrYBadusJX19fWFpawlr7En9TCePFQ8L48eT7QKfTqT3/Pp6enupe+GIAIwje3t64c/8Bbty6jVpVKqnegNw9PHDx6jXEjGGHGLa28t8oghTiKyixYsRQ9wISB1gX7aAZGCPtjRDDzk61AhIDFBH8CIyx9jrstNcVGE/t+4IaOJtoB/agTgbEvzmoD3gx2BYD6MB81U6Yvrh/Va2ALMzNYWlhoVoBiecSzxkYK+17zLXvDcynz27avzHwN5F4jYEFBgTxsxQ/08DYaD8TcdITGHHC4x3ISZJgpx3EAjvwCR9cPsJX+y8wMbXfeWAfguJD88PHj6oVkE77T/w9Bkb8TX/89Em1Agr134r27wps4Cx4aB9in93cVCsgUxNT7ecZ+N+KOCFw006yA2NuZgYr7WARmC/a93zVvjcwluYWQQ7exWsUrzUw4rnEcwYmtH8rrtrvwEv7XQRGvO/E+y8wLtrv3Ef73QdGfP4E9rkj3j8TZ8/Fo6dP8fjpM/k5kzl9euTMmlkGKoM6qBNR1CA+u4I6nonj4NxlyxE/Xlwk0E6u48aOLU+2LbRjp412HBQXRwz9+fe7Y6W+P/8EcaEpKIY8HwuXY2V0Px8Lh2NltD4f034eoTl3/5vPx0J77v7i9Wt8+SKCwV/l7+PNW2e8fPNG/u317BD4BUb/QOrvxojRAQMYEcD5/XvsP3pc+zqGW/fuIU3KlMiTPRvaN20c7f/giCj6Eycj4orWxWvX5clhULNgiChyEu/hM5cuyxluYgbEu/cfsGv18iBP0ImIKOKJWdqNOjogY9o08gJSwTy55AWl6DZbgwEMAxswZhwuXL2GMsWKonyJ4tofVbogI29ERNGZuKr0N0+BJIps9h45iq2798gAZL4cOeTJb96cOeTyP75XiYgiPzFL5Obduzh76QqOnz2Hh48fo2iB/KhZqWKQy46jGgYwDExMMwxqihgR0d9E5AX579ZtNKxpL/PFcAYaUcTadfAQ4sSKhVxZswQ5dZ6IiKIOsbzq2JkzcllNUPnWohoGMIiIKEKItZonzp3H6s1bce/hQ5l0q2blikGuVSYiIiKiv5uhAhh/xWU1cTIuMul26j9QTo0mIqKgiRkXRfPnw6xxo7F46mTcvHMXlRs1xbpt2/kZSqRn4j119tJlOfOJiIhIEMcGUZlFVJykgKJ9AEOUmbJv3goHjh1H7w7tuUSEiCgEEidIgGG9e2Dp9Cnw8WFuDCJ9ESenew4dlmWx5yxdjpxZs6gtRET0txMX4EUVqbY9+6Lb4GHyYhL5ibZLSJ6/eoURE51k6aD+XTsjXapUagsRERFRxDl14SIcZ86WSTg7Nm+KDGnTqC1ERETfiUDGgeMnMHPREqROkRw92rVFkkQJ1dbIhTkwwuDClavoM2oMurdtg8plSvGKIREREUUKS9eux76jx9C3c0dkzZhB9RIREQVNBDK2792PGYsWY0SfXiiYJ7faEnkwgBEGok66mHlhZ2ureoiIKLx8cPmI12/fIl1qznQj+hNxfiIS4vLiChERhZQ4hgjmZmbyNjJhEs8wMDc3j3LBC7f/bcKAUWtxzTC/dyIivRHBi84DBmHFhk1M8kn0B+Kkk8ELIiIKDXEMiYzBC0Nicf9IwQtPju/Apn1XcM9bdRERRRFi5sWGBXNlJYUOffrD9dMntYWIiIiISH+idABDTFsW64F+6+tFjG9uj1J9tuB+JA4O+F+zZESJiKIiMett6qjhKJI/Hxp26IxnL16qLUR/n9MXLmLy3PmqRUREFL7EDNjxM2bh5es3qif6irLj5QePH6Neuw747/Yd1RMEE1skSBAfiRPFhnVkn7HJKaVEFIWJafGNa9dEr47t0dSh258/n4miGS8vLxm4GDttBqqXL6d6iYiIwpc4B8ueKRMadeyM/UePq97oKUom8ZRVRkaOxtiB/ZEvZw7VG1l54s3dh3BPkhb/WKquX3jh5vy2sF+ZCBN2j0Y1C9VNRBRF3bp7D7FixkD8uHFVD1H05vzuvcwFkyl9OvTp1OGvX6NMRESG9/zlS3QfOgLZM2WU1a6MjY3VlvDHKiRBELXTh4x3xOzxY5EmZQrA+zE2jXPCuVx9MbpiQjmlxPXCQvRYY4pOY5oih/EbbBk7FDsTtsakVrkQeGpPL7y6tAPLd1/BU09bpMxRCnUq5EBi7dzD+9EO9J90Dfn79EGtf/z/ADxxe9NYjH5YHFO6FYet82WsX78H5154wS5ZNlSqVh75EviduPi83ohmdWbC1GEB2nhuwtJDN/HGMiMaOXRGzRTuODp3KCYffwvX98/w6IMZEiWLBxsjHaxztsTcnsVgcmc35izbjXPP3GGRIA0KlrFHk9JpYce1JkRERJHCzTt34TBoCDq3bI5qnHlBREQRyNPLC6OcpuLpixeYMnI4bK2t1ZbwxSokgTh/+QoGj3PEgskT/YIXwpdr2LX7Iu689lB5JLzw/OIJHDvzPzwUOS983uPB/27gyL7TuBvEz9T13Ew07ToRc7buw46dmzB9jAPs+23BA+37vV0f48qFXZiy9DQ+qv3hdg6LFx/AU10MWLmdx9guPTB42XZs27cLKxaOR+PmA7DqsUq44eMFb28vXF3SHa2mbMH+Kzdx5fRmDBm/Efe8PuLxnXu4/fAhHr3z0Pb9hFePH+H+oxdwgTlM3u5GP4exmH/gIi7fvIHTR7bCaUg3DDnEBHlERESRgShpN2DseDgOGcTgBRERRThTExMM790TJQsVQo8hw1Vv9BFlAhifPrthiOMkzJs4Hsn/SaJ6tTG/6yd88tXBwtISfhkkdDAxMwF8PfHVXXbIwIbOxAzmgaWY8HmLf1fuwMMYBdFj/EysndwF5RIC769fwx0vwCyjPZrktsTLvcuxSkQ0NJ/OHsDB9ylRuVImfNi/Guuf2KFE+zFYM88RA0skAD78h4sPtG8WTM1gCh98eOuNAl0X4PyhVRhROCbcrx/DwdeJ0HjyNvx34jCOdM2h/bHlxdDth3HrxD7s610QFrcu4+KnWCjbZxkuHd2FfTP6onPdGqiYPsi1KERERGRAYqmIqMKTPXMm1UNERBTxRF6yGWNGqlb0EWUCGDbWVti8eAFSJU+mevz4fv0KdxGh8PWvRqKDpYU5dL5f8Pmz1qczhblYvWJihEBXAHndwdV77vB2PotpAzqjXo/p2PvSHJnsq6GwubbdODFqNq2AZF7/YfnyE3DxccPJI+fgmqY4qqQGbv53D1+93+H4/MFo0LY3Rh9+BYt01VEvr/hm7QesPbmpTrtNWAKta2ZATMtkqF45D+x8n+D2fRXk0F5ZDFsrv9f85fuKHpOkKZBCrEQxMoGJmS1S5qmKbt1bo/y3pSxERFGLh4GmFxIZkpER13USEVHkY27uNyaNTqLUETfQhFi+PvCBLz6Kkqqywwgx7Kxh5PsZrjKAYQGLQKdeKL6eEGlAdJZxkTJVOuQuUA7tB03DkvbZ4b9ayCpnPTTLZYHXB9Zg3b2LOHTuI1IXKoJUJr5w9/CEr84S8ZKnRObs+VG96QCsmNYGea3UN5uYwVT7KZskTYP06u/HIlUqpNB9xnsXD78OjamVFcyhvWbX7wEM4xR1MHFUXcQ56YiWHbuj7dBpmH/wHj7+oXIsEVFkJKba127VFk+fv1A9RERERETBF+UvGehixkJMIx88ffIU/uGAr96AKT7hgxjpG1nAyuw3AQyjuIgfywjGyaph+pKFWDtlCHpVyQjrtzdx4ZGb3z7GiVGrUVkk9ryBVY4rcPRDIhTMnwIm2o8vQbxYMDJKivqjF2LL3EmY1LESslk549rVx/gsv9kUZqY6mFrbwD+mYRwrFmIY+cLD44crkba2sNVe83uXH6MTpkhauDFGTZiO1bMmYERZd6wb3AX9975X24mIog4RhBYlVjv07Q/Xz36fkEREREREwRXlAxhGtmmRMYkRPt+8hhseX/Dg0Ex0mnESn7xd8e69CAZYwMLiNwEM05TInSUmfO4exY47ImmGJ16dW4w2Lduh0dC1fvtorPPURJ10Ojy5eh1vYuVA4QxiXYop0mbLhNi+97Bv3x2I7/Z4cx4zerZGnQ7Dsfi+t1zCYmZqBHNLi+8/bHNTmY/D99uyF7+gRix8wjsXlfxT8H6P21f+h6duYj9TWJkbwxef8ez5B7/tRERRTLEC+VG3elWZVMrH58eALVHkt3TdBrx4/Vq1iIiIoh5ROevspcuqFfVE2gCGr+/3pRS/ZZoOZQv/A92TLehUsyYq9V+DWwkzI62ZO16/FjMVjGBpbiYeUFUp+ZklilSvgNQ+tzCnc0OUrVEdJbssxMmvadCsbTW1j8YkJWpUyaHtrYNNtjzIpZaDWOWvhhopfHB9aTeUrVsHhWp2w5Rz7shQrzXqpTAGdCYQOUUD1uDVaf/TwcTke2lZk3jxENfYE+/evod/CMPjv1Xo3LENSpStiMK166JMr0146BsLGdMnVHsQEUU9TWrXQgxbW20wuF71EEV+S9eux/6jxxA7ZkzVQ0REFPVYmJuj/5hxuHHrtuqJWiJlAOP5y5do17tfMIMYpsjRtCfa54qBr27mSF/BAQsntUWh+L548vCRtl2HmLHiIXHKpIgdxL/WPGtzOHYvjTSmH/DM1QoZSzXHtPkz0L9QHLWHYIREJcujaLzEKFcm17f8GDDLgs5DuqJyShO8e+kK63Ql0Wn0HKxyKIh44vl0dogVMwZSp0zwPYmozhyWtomRLrn/ohKNVTKkSWQBX29VOkVjlr4SOtjnQdqYPnB+/grudulRoc0g9CjIKiREFLUN7d0Da7Zsk1cBiCK7Lbv2YPve/Zg9fmzg+biIiIiiiBTJkmLaqBFwGDQEDx4/Vr1Rh85DZLA0AFPT77MNfkdMKW7auSua1quDcsWLqd6Q8sC9o7twM0EpVE5vq/qIiCgyuXjtOs5duox2TRurHqLI58KVqxg0zhGr5sxArBgxVC8REVHUJpaRDJ0wCWvmzkQMOzvVG3qeBqo0F+kCGAtWrsbdBw8xblB/1UNERERkeM9fvUKTzl0xd8I4pEmZQvUSERFFD2I27N7DRzB/0oSfUh6EnKECGJFqCYlYOrJ6y1YM6t5V9RARERFFjOkLFmOAQ2cGL4iIKFqqb18NSZMkxurNW1VP5BepZmA4DByCMsWKoFr5cqrH8LZu3Yrhw4fDyuqH/BQhJJbBiK/Tp0+rHiIiIopqxLHcyCjS5jsnIiIKM08vL5l70iyYKyaC8tctITl/+QocZ8/FmjkzodP9puxpOJs3bx4WLlyISZMmqZ6QE7+8UqVKBb+SChEREREREVEU9dcFMNzd3fHe5SMSxo+neiKGCGCcP39e3oaW+OWJGRyG+iUSERERERERRRRDjX0jzbxIc3PzCA9eEBFRxHnr/A6nzl9QLSIiIiKigLiwk4iIIo1B4x3ljDwiIiIiop8xgEFERJFC3DixUapwIazf/q/qITIcUQltxYZNqkVERPR3Enkc12zZKhNZR0YMYBARUaTRpnFDLF67Dl5eXqqHyDBGTp6KmDFiqBYREdHfSRTUuHDlWqS9oMQABhERRRrx48ZFrixZcOjkKdVDFP4OHDuOL1+/onKZUqrnb+CN54dmokOP4VhwxU31RQIeD7HVaRC6rbiGSPSqiIj+Kv26dMLcZcvh/P696ok8IjSAMXfZCjx9/kK1iIiIgHrVq2Ltlm2qRRS+PDw9MX7GLAzr3TNCy7gb3mcc374R+04exJYzzxBZ5jy5X9sMp/WHsfvwFbzyVp2h4o3PLh/xJXLOgCYiitTixI6F1o0aYtLsuaon8oiwAMZnNzes3rwV8ePFVT1ERERA7uzZ8PzVq0gZ9afoR6zzLZI/H1Ik/Uf1/CW8P+D9R78IgYmxMX4N3bjj5f/O4eSd9whTHCGkvL38nk+nC/VJqvfr4xjbxh65y1dFxUnntH8JERGFVN1qVXDp+g3cf/RY9UQOERbA2H3wMMoWLwozU1PVQ0RE5Lf2ctPC+YgTK5bqIQof4mLKkjXr0Kl5M9XzF/H1goeadmFuYe535wfup5xQq1V3NG3REeMueqheAwrlbBifd2cwvvdwLLz2HiIU8vbte3ASBhFRyJmYmKBr61aYMm+B6okcIiyAsfHfnahdpbJqERERfWcRyICKSN9evHotp8iKqbJ/Hx/4+IpbHczMLX6ZgaGzi4d4FjoY2yVGslgRcLqovaAQhzBcr2J6v2FYfOuL6gBMzUzUPSIiCqnyJYvD1NQEbl++f65GtAgJYHxw+Yi3794hfZrUqoeIiIjIsNKkTIGGNe1V62/jC18VwDA3N//lhNAscyus3bgeR9dPQJOUUSAI8OU2Fg4cgJlXXeFrlgRZ0thp/zKdduJtFnFX64iIojgxK3bSsCGwsrRUPREvQj7Tj505g6IF8qsWERERERmWkVqlYRTkLAXzWAmRwNpYtULKDde3zcTQRSfxPFhrOHzg7eUJL28ZVYGIroi2SLLq5fWHLByej7F+eD84nv0AH5PEqNp/PLplEbNKdDA14QwMIqLoJIICGGdRqnAh1SIiIiIivfv6FEfWTEOHVvWQv1RxpC1UErlqtEanhWfw2kcHIxnAMIW5aSCLNb4eRe+KpZCv1Vyc+qz6JC+8urgRowd1R53mrVDXYRCGLDuM2x9/ilK4n8GCaauxcvF6HH77EseXjUb9OpWRuXAp5G08BEuuf1I7Ap8vzoV92ZJIX6QksnffhhfaQ3ldnY2yxUsiU9GSyFCkPGouuqP2/tlHHJ8xEEMPv4aXLiaKOozDuIqJ4OvtDREKETMwiIgo+oiQAMaofn2QP1dO1SIiIiIifXJ/tBt9WrRA6ynrsO/GMzi7aQN6H098fHETe5ZvxSl3FcDQGcMkkEkWPm7v8NrVA+9uHsT+O57+vXh5cDwadHHC4v3ncOnmLVw8exirZg1C9cYDsfqB/36CTk49hs8zbBncCa1n7cL5Jy5w9/bA+7sHMW74fJxyE/t549W1i7jp+rtZFp7w9FIzM37mfgVb9zyEh5EtcjUbjsm1U0Fk0PH2Fo+ng4mZifb/REQUXURIAENUHhFZTYmIiH7n7oOHePL8uWoRUXD4uJzBuL7jsenBF/gaWSNFvspo3boVOtgXRpb4MZC8dGkUtPAPXOhgFNjZoKeHKp/qC1//yRVfL2L29D14rG0wsUuOvIWLo0LRbEhqpYPn6xOYte7yDyVLxcwO7cb7OS5eeQWjhDlRt1krtK+QHnY6wOvpfqw9JWZhGCNV7QGYO9ABfTu2RZcaORFPez1GsXOjeceO6Nu5Iwb0n4DpTdPJR/2FeQF0GzsM02cvxvL2ueGfb9THL0MpTLVzzgg52SUionDBz3QiIoq0zl66jG179qkWUdi9d3GJVNnU9c8LN9bOxpqHnoBJUtgPWYh/p/VHv9Yt0LPfeGzZ9i8ODC6N+EYmMFYBjEBnKJj4z1ywhI2V3z33i/ux/5UPjOIWRf9xg9G3STVULpQdKazFdh1sbG3wbTKHzgymJuqRzTOj86TJGNOhBXoNHgGHnBaArysuX7rtF/CwTo7iVeuiTdOm6NKkMFJoZ6c6q1Qo36Ah2jRuiJbV8yOF9i2BM0WSnKVRMXtCOfPim29RFyIi0hd3Dw/4+ETs5ysDGEREFGllz5wJl6/fUC2isJu7dAV27NuvWtGQ5038e+ABPLVTvEQVu2BohX8CDuz96cxgJgMMXggsR6aRuRnMZfxBB508W/TGy/uP4Kydt/q8PYaRHVujdvue6DJ+OY698YFxvBLoUCs9vs2v1ZnCzMwvgGGRoyJqpxTTMTTGCVGyYBptPx+8fvwY3zNh+DGytJDP6/PFDZ/CcI7sv+BEnGgzlEFEpB8Dx4zHmUuXVStiMIBBRESRVvrUqXDr3j34+tV7JAoTLy8v7Dl8BBVLl1I90ZD7Y9x/4Q3orJGrYE7Yqu5fGJnBXAQYfL3g7hHI+8vEHOYBVvv64ovbV3X/B0aW+Cd3HUyc1h/VEvx4WmkKv+ImxkiSNg1ifttkjITpUstlIj4uznjrpbr9WVjBUtvm+/kTXMPwttf5RV0i/EohEVF0UqFUSWz6d5dqRYwfjzSkuXz5Ms6cOYOCBQuG+qtIkSLInj27ekQiIgotkS8pbuzYeOPsrHqIQu/E2XPIkSUzbK2tVU80JGISYuCvM4eN5e9KoJrBykJs94TLx0+/zlLQvt9SzaDwo4O1taW8Z5y0PIaOGYv502Zj59ZtODizK6qm/GmNh5zh4XfXzs7u+9ISjUnCBIgvXqe7O9x+DlIYWSOGWJLi9QkuYZiCYWzsd4rrywAGEZHeFC9UAOcuXcZnN5mFOUIYNIAh1pw+f/VKtSKnmDFjwsrKCpMnTw71l6OjIy5cuKAekYiIwiJZkiR48vyFahGF3o79B1G9fDnViqZMYiKOrQ7wccWrN7/L9aGDjbW19v++ePPqNfwmQnjDw1OtJ9GZwyJAAMMY8ZMmkQk4fVx9Eb9AUZTMlxXp4ln6nUx6vsSJDaux4646qdWZwEyuGtHB0ko8z3c6GxvItBneXup5f2BkCztr7RF9P+GDSxgCGCozKWdvERHpj6mJCUoUKohDx0+qHsMzaADj0rXrmDZ/kWpFTilSpEDWrFkDnVkRki9WWSEi0o9kSRLjyTNWIqGwEWU1z166hIJ5cqmeaMo0LbKkNtPueODCgQOyYsg37q9w/t+FGDR8JnY8A+LHiwljeOPpndtw8XqFbUPqIkfFvlj9wgfQWcDC4sewg/bQmbMhmyXg63IO/x5//23Who/LNczr0x6tJs5E7zHrcUc+p9m3AIaFpQpyKEampjAVDx1YbMEoNuLE0G59XfH+Q2gDGCJvh0hO6qv93n0CfRoiIgqd0sWK4NDJvySA8ezlSyRJlFC1iIiI/qxI/nxIGD+eahGFzpX//oeMadLA3DzQlJbRh1EclCmXB3Y6X7iemYFGnUdj7LxFmDiuL6rXqI/6Ixdjzd7TuPneCCkzpkMMnaiOugFDRo/A2P2v4OH2CLefe0HMwLAScRBBRQCMYhWBfaFY0Pm+x26n/hg4dyEmjBuAmg26YMKpt/AyjoMiVYojpVgv8i1JqNG35RzfaG3Zo9P9eiJqHBvxYpmIqAjevg/9DAwTI79FKz6sRkJEpFf5cubAuctX5IWBiGDQAMbTFwxgEBFRyIgDZYHc0fyqOYU7sZSgQU171YrOjJCwQjs45I4BHTzw4tIuLFy0CHO2nMCNd56ARVJU6jEEHbKYwipfJVT5RxvoezzEvl1X8EYb65smKYjS6c0gZmCYywCGz/eKpEaxUKF5A+S10cHn/XWsX7wY87YcxfV3XtDZpEGdAU6YVjOFXyUSkSRUTrMwgsmPCTAELx+I016dpaXfUpIATJA4YRztu77i9evvszxCyuhbDgzOvyAi0idzMzNUK1cOb5zfqR7DMmgA481bZySIG1e1iIiIiAwjd7asKF6wgGpFc6ap0HzcFIyvVwDp41nBzMQCsZNmRtm6XbBw+SJMq5UWMo2pRXY4DGyN0slsYWZqg+T56sNpcmcUsdG26WIgUXxbxEidB7kSfz9dNElTH1PHt0WlDPFgo53E2iVKj5K1tMddNgdjK6eCX5pPwQIJ4seCTeJ8KJxelVD1Z2qL2HY2SJk7B5L9suLWBKnSp4admS3srMQikNAwRqIUSRHTKhHy50iBn56diIjCqFfHdhE2O1bn4RFY7Sz9MzU1RddBQ9C8fl3kzJJF9UY+8+bNw/nz5+VtaHl6espEoOKWiIiIiIiIKDoz1NjXoDMw3L58hZXF99g8EREREREREVFwGDSAkTp5csSws1MtIiIiIiIiIqLgMWgAo59DJ2aSJyIiIiIiIqIQM2gAg4iIKKR8fHwwbcEi1SIiIiKivxUDGEREFOlt3rlb3SMKmbfO7zDKaZpqERERkT54ennBad4C1TIcBjCIiIgo2rrz4AFcXF1Vi4iIiPTB1MQEm3fukjNlDcmgZVSjApZRJSKKXMSBsXTt+ji0aZ3qIQq+5Rs2ws3tC9o1bax6IhcvLy/cvHsXN+/c027v4fb9+3j95i0a1KiOZvXqYMzU6dhz+IjaO6ARfXqheMECqhVQz2EjcP7KVdUKaObYUciSIYNqBdSyW0/ce/RItQJaPXsGEidMqFoBVW/WEh8+flStgPauWQlzc3PV+s7b2xulatdTrYCstfOonSuXqVZAr9++RZ027VUroKSJE2PFzMBn3Ny8cxft+vRTrYByZM6EqaNGqFZAJ86ew4Cx41UroNJFCmNIz+6qFdCOvfvhOHuOagVUp0pldG7VQrUCWrpuAxatXqNaAbXX/o4b1LBXrYAmz52Prbv3qFZAv/tbISIKrQbtO2HCkIHys9dQY18GMH7CAAYRUeTCAAaFxTDHySiSPx/KFCuieiKPQydOYqjjJGRMm0b7Sov0aVIjferUSJQgPiwtLNReRGHn6+sLnU6nWgEdPX0G2TNlZKVAIgqxQeMcUaZoEZQoXNBgY1+DLiE5ee48vnz9qlpERERE4evl69dInDCBakUuBXPnxsENazHXcTy6tW2NiqVKIlXyZAxekN4FFbwQxEydmq3aylk7/7tzR/USEf1ZkkQJ8PLNa9UyDIMGMEQW+aCmFxIRRUav3ryF87v3qkVEUc2bd+8QL05s1YpcLCzMYWJiolpEEaNHuzZymU+54sUwZPxENHPojvOXr6itRERBixc7Dt44v1Mtw2ASTyKi35g4ey56jxilWhQRxJXDvp07qhZRyLx7/wGxY8ZULcMSwc9+o8biwtVrqococjI2Nkb5kiWwfsFcOLRqAUft2LdwVeB5OIiI/MWNHRtvnJ1VyzAYwCAi+g2R2C1uJL16+7cQAYwKpUqoFlHIOA4ZKAdnhnbg2HHUbdseObJklp8jRFFF7uzZsGbOTNSrXk31EBEFLlP6tHL5oyExgEFE9Bt5c2bHuUucSksUVeXJkV3dMwx3d3eMmOSEeStWYdn0qahvXy1CAihEYSECxzbWVqpFRBS4+HHjomCe3KplGAatQlK/XUc4jRyGRPHjq97Ip0OHDjhy5Aisra1VT8iJjPmiLNqVKxz0EEV14v2cr0IVbF+xJFJ/dhFRxHN+/x7tevVDoXx55DR85rcgIqK/RbQsoxoVAhgDBw7E4cOHMWXKFNUTcuKXV7hwYVmyioiivva9+6Fy2dKoWq6s6iEi+tW6bdthYW6OauXLqR6i6OejqyvsbG1Vi4jIT7QMYMxdtkKup4sZI/LWmZ43bx7Onz8vb0NL/PKsrKwM9kskovDVe/go5MuVA3WqVlE9REREfx+RmLZeu46YM2Es0qRMoXqJiAwXwDBoDox2TRtH6uAFEVFgXr55gwTx4qkWERHR3ylO7FiYMGQgOvTtb/DKA0REApN4EhH9was3b5CQAYwII/KQDHWcpFpERBSRcmXNgh7t26Jj3wEyaS0RkSExgEFE9AcvX79BwvgMYESko6fOqHtEwffwyVP0GjZStYhIX0TZxKIF8mPQ+Imqh4j+Vl0HDVH3DIMBDCKi33D78gVe3t6wtbFRPUQUVXhr7913Li6qpV+379/H16+8+kx/r84tm8vKOzv2HVA9RPQ3unzjP3XPMBjAICL6DW8fH5gYG8ua+Pog1gxPmbcAPYYOx7zlK/HB5aPaQkRRhevnz+jUbyBevn6teoj+PkZGRhg7oB98fX1UDxFR+GMAg4joN3Taf/ooiSyuBE9bsAgVGjSWQYuCeXLj5t27qNW6LZ4+f6H2IqKoYPaSZahVuRJSJEuqeoj+TgnixWWJcSIyKIMGMP7dfwCfPrupFhFR5KePiRciADJ4vCNOnb+ArUsWYVjvHrIk6+ThQ2FfoTwGjZuglyAJEYU/kRNn7+GjaF6vruohIiIiQzFoAGP5+o1w/fxJtYiIooaQBBeev3yp7vkR3ztu+kzcvHsP8yc54p/EidQWP+2bNVEDoiOqh4gisxmLlqBtk4awsDBXPURERGQoXEJCRPQbZmZm8PTykqU8g2P5hk24fP2GagGzlizD0dNnsMhpEmysrVTvd6YmJujTuQPmr1iteuhnIv/IuEH9VYso4ohg49lLl1CzUkXVQ0RERIbEAAYR0W+IAIOVpSU+ugZv9tiqTVtQu3U7OfNi98HDWLdtO5ZOc0LMGHZqj18VzpcXdx7cZ0LPIIgARv5cOVWLKPhSJP0H00aNUK2w23XwIOrbV4eJ9rlAREREwDzH8eqeYTCAQUT0B3Fjx5Kl4oJD7Cus3LgJQxwnYsrIYYgfN67sC4q5mRny5siBE+fOqR4i0gdjY+NAZz6Flsh70aROLdUiop8dPnEK7u4sL0z0N0mfJrW6ZxgMYBAR/UGcWLHw9t071fq9N85++42aMh3pUqfGi1ev5ZISEQD5XS6NYgXzy6UmRBR5idlAYlYWEQVu96HDOHrmrGoREekfAxhERH8QJ3bwAhhuX758u/Lk5eWFc5cuw2HgELmkZOzUGXjj7Cy3BaZYgQI4euoMq5EQEVGUVbFUCew/eky1iIj0z6ABjBqVKsLGSn9TOYmIDMHN7QusLf/82fXs5UtYWFioFmBmaop0qVNh48J5mDhs8G+Xkoi1+iLo4fwueEtViIiIIpvc2bPj4tVrqkVEpH8GDWDUq14VtjY2qkVEFDU8evoUyZMmUa2gPX/xUlYssTA3R8wYMTBmQF/8u2IpsmfOpPb4vaRJEuPx8+eqRUREFLWInDPWVlZ49eat6iEi0i8uISEi+g0RkBClE5MkSqR6gvbg8RN4eHigdaOGOL51E6qWKyvXzAdX0sSJ8OQZAxg/EyVsuwwYrFpERBSZ5cmeHeevXFEtIiL9YgCDiOg3nj1/gQTx4snlIH+SPm0aHN+2Gd3atoKFhbnqDb6kiZPgKWdgBOr6zVvqHlHw3Xv4CG169lGt0Lvz4AGev3qlWkT0O+lSp5TvPSL6OzTu2EXdMwwGMH5y8eJFHD58GLly5Qr1V968eZEuXTr1iEQUlV393//w5PlzzFm6HBNnzcW7Dx/Ull8VzJ0LCePHU62Q4xISIv3z9vFR90Jv/bYduHLjP9Uiot8poB0L8+bMoVpEFN09efFC3TMMnYeHh0FS3psG4+plZDBo0CAcOXIEU6dOVT0h5+npiQIFCrCaAFE0IGraL1m7DhnTpcWFq9eQM0tm9HforLbq18lz5zFj0RKsmj1D9ZAglpCUrl0fhzatUz1EwSOuAo+eOh2LnCaqntDp1H8g2jVpjGyZMqoeIiIiEorXqI0jmzfIMbAhcAbGT5IlS4aMGTMGOrMiJF8mrBNPFC2UKFwQS6Y5oW/njpg6ajjWb/8Xzu/Dp1LIPyIHxnPDRrGJ6M9cProiZgw71SJDef32LZ6/fKlaREREBg5grNq0Ba6fPqkWEVHUkih+fFQuUwqd+w/C8TNn5cwAfYodMxY+uLioFhFFFiKZb1SZSRqdTFuwCMXsa7O8NBERfWPQAMa2PXvxyc1NtYiIop6BXR1kdZGx02ciT/nKKFzVXjvBroWew0bIRH/iK7SsLC3w1d1d74ERIgobby9vGBtx0qqhjerXR/tctISZuZnqISKivx2PxkREISCqizSsaY8dy5dgz5oVWL9gLpZNnwq3L19RsUET+RVaRtoAydLCAp+/fFE9JIhStPMnTVAtouATfzsmxsaqFTYhKYlM+iGCuV++foW1paXqISKivx0DGEREoSAGM/HixEGCuHGx6+BBXLhyFQO6dsHFfbvUHqFjbWWFz585U+1H4medJmUK1SIKvlTJk2HexPGqFXplihWBhXnISyNT2IhgrpiZJoK7REQUOW1YMFfdMwweEYiIQunR02do0L4TTpw5hy1LFqBlg3qws7VVW0NHBjC41I4oUmnfrAlsbWxUiwzl0+fPsLG2Vi2KKry9vTHSKfTV/IgoahEX9AyJAQwiomAQZZG37NqDgWPHo03PPqjerCXsm7dCxdIlsWzGVCROmFDtGTY21gxgEBEJ7l/dYW7G/BdRjTheHj55SrWIiPSLAQwioj/4qp1E9x01BnOXrUCmdOlQt3pVjOjTCwc2rEGL+vX0Or2ZMzCIiPx4+/hon6/6yWFCRETRg0EDGC3q14Udp2ASURTy7MVL1G/fEe7u7tiwcC4a1aqBssWKInvmTIgdM6baS39EAIPVmoiIRADDG8bGvNZGRETfGfSoUL5kCXlyTkQUFZw8dx41W7VBlbJlMGXkcIN8fomSgUziSUQE+HiLGRgMYBAR0Xc8KhAR/cTTywvzlq9Ej6EjMGXEMLRu1MBgJRRNTUzg4+OtWiSIUoqNOnZRLaLg89Ley66fPqkWRTWiCon4TCQiIvLHAAYRRTsigVhovHrzFlPnL0Rx+1o4evoMNi2ah4J5cquthqEz0mkD9tC9/ujs+ctX6h5R8IlKQV0HD1Ot0Nu+dx/ctME0Gdbug4dQrEAB1QobcVw4cvIUHGfNgdO8Bbjz4IHaQkREYVGpUVN1zzAYwCCicPXhwwf06NEDixcvVj3h7/VbZ3TqPxCjnKbi4ZOnqjcg18+fZV4Lcbvn0GF07j8IFRo0hvP791g8ZTJWzJymt8oiIWGkM4KPr49qEVFksHTtBibXNTDx+SwqP9WpVkX1hN7/7tyRs7jGTJsBKwsLWd2kUYcu2LHvgNqD9Eks+xndr49qEVF0Z+jjIwMYRBQuRB34efPmIUOGDDh79ix69eoFFxcXtTV8JYgXF8ULFsSStetRrl5DFK5qj5GTp+DspctySrmHpydyli6PzMVLy1vHWXPlTIujWzfK6iLp06RWj2R4RpyBQUSEvUeOIkPaNEj+TxLVEzr/3b6DZl26o2q5Mvh3xVJ0atkc/Rw6Ydn0KRjmOAlPnj9Xe5K+iABGgdy5VIuISL8YwCAivTt8+DBy586NFStWYNeuXTh+/Dhq1qyJkSNHqj3CX91qVVCvelWYmprKpSHL129Em559kKFICTR3ECezZdGvSyfUt6+GDy4usmb9nfsRP6VYnPiJnA9ERH+ztVu2aZ/h1VTrz0TQ/N2HD6rl58Hjx2jVvReG9+mJBjXsYfJDPg0RHGnZsD5GO01TPUREFBUYNIAxc/FSbaDwUbWIKLp5+PAh6tSpg2bNmmHAgAE4cuQIcubMKbeNGjUKS5cuxa1bt2Q7PIg1zs9fvsShEycxZ+lyuH52+xYM8NG2+U9xK1OsCCYPHyKTc47q1wfHtm1C6aKF0a5XX1y4ek3uE1HEv0HMwiAi+lu5e3jg3JWrKFu8qOr5s1dv/XIY+RPHgqZduqNH+zaoWKqk6g2oVcP6uHbzJvNhEBFFIQYNYBw7fQZf3L+qFhFFF58/f8bgwYPlrIusWbPif//7H+rWrRugckeCBAnQt29f9OzZU/WEjcvHj3JJyPINGzFonCPqtu2AnGUqoGbLtnLpiLgSVyx/PpiZ+l1xMzczQ9LEibB79Qq0bFA/wGuztLBAffvqmDhsMDr2G4B7Dx+pLYYnlo/odJwcR0R/MRHI1T6jxed2cImErSs3bsbte/dl/oxWPXqjeb06qFM16Bwa4vFLFi6Mo6fOqB4iIorseJZMRKEmZjeIZSIiz8X9+/dx+fJlDBkyBFZWVmqPgBwcHHD79m3s3r1b9fyZOBG9ces2Nu3chXHTZ6Jlt54yp0XR6rUwYcZs3LxzF2lTpkD3dm1wcONanN65DUunOWFA1y5yivBnty+wMDdHpTKlsWvVCqTR9g1K8YIF0KdjB7To1kMuO4kIIoEnZ2AEJIJNGxfNUy2i4BNLBuLEiqVaFGVo7/mQVpN6+fq1vB04drysNJImRQq0bFBP9v1OsYL5ZdUpIiKKGnQeHh4GyRYn1qHXb9cRTiOHIVH8+Ko38hFJB/v06YMOHTqonpDz9PTEpEmTQnzwJYpKRGLOrl27yr/3qVOnonDhwmrL7+3YsQO9e/fG1atX5eeCPxEMefzsOW7fv4/bd+/h1r372tc9PH3xEskSJ0b6NKmQLnVqpBdf2v0kCRPKfBG/03/MOKzftgNTRw1H5TKlVe+fzVqyDNt270U9+6qwtLCUMzQsLS1k9vpsmTLCztZW7al/vYePksnPalWppHqIKKKt2bIVVcqWhY114MFZ0i+RaDlriTK4deKI6vmzaQsWYfrCxTAzM5XHhhG9/RIyi5l3tjY2aq9fiUpUhavYy+C3laWl6iUiouAS5/Dic1eMCQyBAYyfDBs2DMOHD4dtGAYoIpGUm5sbAxgULT1//lzmt9i7dy9Gjx4t8138KZDwI/G+qFixInLmzYd0mTPj1l2/QMXdBw8R084O6dKk8gtSyK9USJk8WYimEf9oqOMkucY5WZKQZbEXr3H15q24+/Ahvnz5ii9fxdcXuH76LF9nx+ZN0bBWDZj9EIDRl57DRqBI/nyoUbGC6iEi+ruIalEZi5bEnVPHVM+fOQwagp37D8r7YuaNsXZcErk0hDkTxsncR0Fp2KEz2jZuhBKFC6oeCgvx++s9YjScRgxVPUT0N2AAI4KIGRiHDh3C3LlzVU/IiV9e3LhxGcCgaOWrNoh3cnLCxIkT0aZNGxnEsLOzU1tD5r///kM5+5po0KgxcmTJLAMV6bQvfc9s8NROokx/yDqvD2J9tVjK8ujZM/Tt3BFlixUNkE8jrBwGDkG54sVQpVwZ1ROJed7G0tFr4FuvP5pn1H8wh4j+TuL8qUDlati4YB7+SZxI9f5e9WYt5XJDQQTVxWd/s7q1ZdlU6yCWNfqbNHsuzMzM0KVVC9VDYSECGOUbNMaB9WtUDwXqy02scNoEzxq90YLHUIoGDBXAYA6MQIjZF2JgFpavH0t1EUVlIiHn5s2bkSlTJpw5c0Z+jRs3Tv6dh5Z4rFoVy+PTy2doVKsG8uTIHi7LMvQdvBBEoGXRlEkY2rM7nObMlzk53jg7q61h9+nzZ9hYW6tW5Obz8QYO7j+IQ//7pHqIiMJOBIXz5ciBs5cvq54/e/7ylbwVOY9KFCqIvWtXoU/njn8MXghJkySWSxiJDMnr2Qms/3c/zj70Vj1EFBwGDWCIJHux7GKoFhFFZs+ePZMlUXPlyoV+/frJ2UlbtmxBmjRp1B5hI5Zrbdq0CVeuXFE9UUuxAvmxffliZMucCVWbtMCRk6dkf1hnXrl++gRbm6gRwBDEv9bTw92vQUSkJ/ly5cC5S8E7Poilu+9dXGQgQiRxnjdxPJIkSqi2/lnSJEnw9DkDGGRg8nRBx8vJRCFk0LdM/lw5YWFhrlpEFBl9+fIFo0aNQrZs2WSwQsy0GDp0KMqU0e+ShlixYskgRrdu3aLscisx06p729aYMnIY+o4aizQFiiBtwaLyRDq0RJ6NqDIDQ1QK0GlnYF6eXqqDiEg/QjIDQ8xcmzBkoFyykDt7NtUbfCJR9BPOwKAIIY6jRBQSjPkRkSSCCBs2bJDLO0Q51PPnz2Ps2LFYu3YtunfvLhPT6pvIpeHs7CyXqERlYrqzfx6MXNmyIlaM0M80EyfiETUDw8P5Hv57/kW1/kxUexX/bA+VKC+8iOzWFRs0US2i4BNJHJ8+f6Fa0Y0PnA85oXHvFbji7obbBxagl0M72DfvjO7rbso9vN5cxupZ49Fj8GgMm78dZ1/9/F79ggcn1mHUoO6o07wFanYcjPH7HuD+9tFoNmonHv04s93zPlYN644Rh120Zw5/qVIkl0EFMSvtT2LY2aFmpYohSij9o4Tx48H5/ftvST+JyLC6DR4m89iI4z1FPV+/GnYmLgMYRCQDFiVLlsTIkSOxaNEiGchImTKl3FaiRAm5jETkvdA3MYNhypQp6Nmzp0wSGtV8cPmIHkOHo9ewkTInhsiYv27ebLU1dFw/iyUkQZf8+yOfj7jx7yw4dNIGMq0c0GHcUuy446oGHF54dWkLJo4djm4jJmPqtst47n++7vMGa4e2Qe0Ju3H7wjoM6d0RNVr1xNB/7yPgYckNdw4tw6DenWHfZTmuePklbAtvX925TIVCTgQvhjhOUq3QW7Z+Az591n8QN2yMYOb5FjdOHsD6hcPQZPASbDl7A9fv3MWtFy7Ap/MY26UHBi/bjm37dmHFwvFo3HwAVj1WUQmftzgwSXuf95qGJfvP4dLNO7h68RCW/3sJLo/+w5mdCzDnlKvfvprPZ9dh5r4X0MWwNMjJ45GTp+VgZvGaddh98HC4DmyMjY2RKEF8PH/5UvUQhRcffDg9F82bN0XVAVtw19sDp2a2lkH6Sq0mYsOOyUEGJb2fH8aksQuw/9WP7wV3XNvkiP6LTuF1iN4irjgyoyf6bz2LTU59Ubd5K9RxGIaJu+5oW/xp5wzn12Jw706o0bwD2k3ejuv+G11PYXy3cVh7ZidG9e6gvcZ2aDZ4LrbcCV1OrBqVKuDew0ehDkJSxCrfoJG6Zxj8KyH6i7158wbt2rVD+fLlUb9+fVy4cEEGMn42e/ZsGWh48uSJ6tGfUqVKIWfOnJg8ebLqiRpENZKaLVvL0q971q5EhVIlvs3CCC1xgu725SusLC1VT0j54OXOsWg+ahV2XtAGMjcuYt+W+ejeeRJ2a+cUrudmomnXiZizdR927NyE6WMcYN9vCx7I8Yw3vLx94PXfUjTrNg2rjl3FtRtnsHLCRCzzTzDm8x5HpnZGnQHzsObYZVy/+wquvoCHO69aUvS2bfc+WUo5srHKkBFpdA+wcdVJfExYDH2nrMK5wzuxs2tevNq/Guuf2KFE+zFYM88RA0skAD78h4sPRMDRB6/2OKH/hrtA6koYMWstLhzYgi0Th2Fm14rIVrMW8lu+wfalW3BHvv3dcGLfCbxLWRo1s4aurHVIFcidC+MG9pdZ7WcuXoKew0bKylKCmDGo78DpP4mZyFNfREBo9rgxqkUB+eLD07u4ef8R7j55D3ftvej69jHuPX6Mp65GsPJxDjIo6f32BnbvWI5pW+/h21+/5/+wZdUObD55D59DshrX4w6OHDyPrVMGYMDaE7h48xYund2POSO6o+fWZ9oZAfDpwly06Dkdq49dwbWb13Bg3QS0GrEDT7SN7rdPY/e5PRjddzyWHLuG6zdvaJ8Ry9HbYSTWPlPnDCHwSjsfLVu8mGoR/R4DGER/ITHlX5REFctFrKyscPPmTbRv3z7I6jkpUqSQyz26du2qevSrY8eOGDhwoEwcGhXsPXwEjTp2QedWLTCkZ/cwBBwC+uzmpj2WhTz5Cx1P3Lh8HR9jFcWIVbtxY98qLO/fHM1qlUBm87f4d+UOPIxRED3Gz8TayV1QLiHw/vo13JFnQmYwM9WGNR+d4Z2nC7bs2Yd9fQohtscN7Dv+Up7MfLm0BCPW3UOMEt2xYedBnJ/dAJlMffHVPerNniGKDowTJEVSK294+sRBZYf+aFMgGWKZilM7L9z87x6+er/D8fmD0aBtb4w+/AoW6aqjXl5z7Y3+Gru3n8I78xxwGNcXDXMlQQzruMhSpAyKp7SEceKKaF8xMTxvbMS84x/h43Ye+85+QvqSpZHeQEXWbKytULtqZfTs0A7r58+Vy+uqNW0B++atkKN0OeQpVwmL16z9FtQIqzixYuH9h9DnL6LvRDBfVOyiwBgjRW1HnD56BDc3d0E+7byrcM8tuHniCK6u64HyOYIKSuaHWaZyqJwauH3oAG6oP3vvp5dx8QWQLFsOJAnRqYMvvH194alLhnojluHC0d3Y79QKhWJ9xJEVm3DZ/S12LN+CO8bp0dJxHS7vW44JFRLD5eQyLL7srn27D3x8vaBLXg1OK3fixv41WNgmD+K4nMb8DTcQ0ssal67dQM6smVWL6PcYwCD6y+zcuRNZs2bFnj17cPToURnIEAk1/2TEiBE4duwYTpw4oXrCztXVFf3790e9evUwevRoxIkTR22JnMQMianzF2Lk5KlY6DRRrrnWJ9cwl1A1QYoUSWEOHYy0kyJz22QoWL01BrUtgeS+d3D1nju8nc9i2oDOqNdjOva+NEcm+2ooLHIrG5nBzESn3SZAhYb2yBLDEikrVEQhW188vP9AGw59xcldh/DUujC69qqBHLHNEDNLCRRJosPXLwxgEEUIoziIH0s7lTPPjMJ5fixF7Qt3D0/46iwRL3lKZM6eH9WbDsCKaW2QV1QV9X6FJ2+8YfJPNuRPGNioxxL5GtZBfgtn7Fq1A7fOn8SJj8lRomgy7VPG8EQC+Fnjx8ikyUN7dceRzRuxYeE8ucykcqOmOHTiZJiTQYtyqyKITGQoxna2sNb54ovbF7+CJKIvyKCkxiQVqpfPDKPHR7DjuqfW4YN3l6/ijm9s5MuXFiGfG6WDVb766FMuFWKY2SBFwaYYXDstdM8v4cTdazj7nweSVOyAnkUTw8Y2Jaq3qoZseIUz5x6ob7dA4YYdUDW1Hcxt/kHx5l3RJB3w9OJ5yIleIXDp2nXkyppFtULu4eMnGDBmHBp37IK1W7dH2eTwFDwGDWCMmTpdJkkiIsMTsywqVaokq36I5Rq7du1CxowZ1dY/s9YG1pMmTZIzMcK6Fll8/5IlS5AhQwY8f/4c165dw4ABA7STVAu1R+QjEsl16jcQJ86dx6bF85EtU/B/dsHl6voJttZhyH8BY6SuNwhT68fEkXE90cihL3o4rcLuu67w8fWEh4cvdJZxkTJVOuQuUA7tB03DkvbZ4RcyMYGZOEkyToqMaVS1KPNUSJ9Uh08fPsDd6xlu3HWBUZocKCAGTIJ28iJ+Ze4GTt5ERIqRLWJoHxlGMeMiYYDRixESxIsFI6OkqD96IbbMnYRJHSshm5Uzrl19jM86K1hrb3Nfd3d8DeI83zhxJbQulwAe17dg6PLTeJ8oN4qmjIjwhR9TExOUK1EcObNkQcwYdkiTMgUWT52M/g6dMXyiEzr1H6T2DB0bBjDI0Ez83oeun1y/BTCCDkoKxkhetjwKmD/H3r2X8QVfceHyLXjY5UDRrOq4HULiYsf3waAxkqVIBis448XTd3j3RYd/kieHqf/W+EmQxAp47+w/ljPW3pc/DCWNEyN1Miv4Or/GixCcJor8Qk9fvED6UJbpv3jtOuq264DECRKgUe2aWLVpM8ZOm8EgRjT2w19d+Lv63//g4SkihkRkKB+0waeoIlK0aFFZCvX69euoXLlyqPI1NGnSRC5vWLZsmeoJuVOnTiF//vyYM2cONm3ahKVLlyJx4sRqa+Ry5OQpeWIspiwXqFwNcePExoqZ0xAvnGaKvHj1WiaSCxPTxCjZtA9mz5qJlZN6oYr7dnTrOA7bXWLLkyLjZNUwfclCrJ0yBL2qZIT125u48MjvpN3MzBQ6U2vY+q+IMY6F2HZG8NU+tz28v8DtizbgEff9zwl8nPH6nS88DbCEJIzpRYiiJ501bCx10GmDENMA7xFTpM2WCbF972HfvjsyEa/Hm/OY0bM16nQYjsWPEyJzGlv4PD+Ffy9/hBhr+Hx6hENrp6PX2C3yEaANYwrVroxMuufaAOEdYufKiyz+I5lIJHbMmHK5wnvtWBcW1tZW+MQABhmSzkYGIF1dXOQyTSnIoKQfo/glUbOgDV4e3okjzjdx9tonWGcvgPx6Kl7m9vkTPLXPDzMbS1ia+OL1q1ff8234eMFTe6FWQVZK+wrXT9o4z9QUIQmn/Hf7NtKnSS2DlCElkqk7DBgs8+WIZb0VS5XE0mlTcFg7f/t3/0G1F0U3Bg1gEJHheHt7Y+7cuUifPj0+f/6MGzduoEePHtogNfQJ2ETQQ1QpEVVDPn78qHqD5+nTp2jcuDFq164NBwcHnDx5UgYyIiN3d3cMGueIEZOnIHHCBBjYzQHn9+zEyL69YaYdmMPL4+fPkDRJ2II53u/v48J/L/BZjEhMLWBhDPh+fomnn1Mgd5aY8Ll7FDvuiOGMJ16dW4w2Lduh0dC1WlunnXOYwMjcEhbfBkIiL4bWEGtdjRMieUITeN06iE3/Eyf5Xni8Zwv2v/WBr0f4zsAQWckPblynWkTBZ6593qVKlky1oiEjK9hYaady2uf9z2nzrPJXQ40UPri+tBvK1q2DQjW7Yco5d2So1xr1UtiiqH1FpNE9wrJudVG8XgMUqdoEbZw24LTr95lwJqkqolZOra2zRu48WUI0KAlPYkbcmi3bZNnFroOGIne2rJg9fqzaGjpcQkIGZxQLcWIAHz/8EMAIMijpzw6lKhdDfJeTWLvyIM69MkPOgnm03tDxevcSz9U1CPeXxzF93QV8tUyHHBmzI19GYzzcuwqbH4pjvDeeHzmKS+62yJrVP7+JF5xfvoJfemMPPD+2CMsuuMMqXWZkCMGp5vWbt5A1QwbVCplRTlNRrmRxlCpSWPVAztAS52uOs2bzwrmBxIqh/SEbEAMYRNGQyNouAgUiMefu3bsxb948xI8fxiv7St68eWVp1WHDhqme3/vy5Yssz5o9e3aZDPTWrVtyJkdkLZUlyi7Wa9cR710+YMvSRWjTuCHy5sgOSwMsb3ny7HkYAxieuLJiEBq2rIPcZe1RulYDtNn4BL6x0yJTQhsUqV4BqX1uYU7nhihbozpKdlmIk1/ToFnbatr3+gUwdEbGAda4i5kPOmPtRMokNsrVKIVE3rcwq2NdlK5TB9XGHsVbESjRBk9EkdE/iRNhUHcH1Qq9No0bhDE/TXgxRdKkSZEobRok+vkj1SwLOg/pisopTfDupSus05VEp9FzsMqhIOJp+1rmaIPpg2qhQCIdnJ+9hS5JPjTs7oSNIyqoB9AYxUeFivmRIEkxVM4jkmdEDFHedP7KVeg2eBjK1GmAgpWr4/CJk+jVsT0OblyLdk0by0FLWMgARqQrlUvRmkk8JIxjDM/3znD2P4z+JijpzypvFVRN+hUn1m7HLZMMKF4gVigHdL74cnEWqlavi/L1aqFg7X5YdtcU2UVJ19hJULNRRSR9dxSDmtVCyTo1UXHEQbiktUfzwmqpq+9XnJ7eAsVqNkK56tVRuvdG3DTJhFbNSuLPmdW+u/a/m8iSIb1qBd/9R49x5NRp9GjXVvV8lz9XTiRJmBCHjusvbxsFbcuSheqeYUTOEQQRhdrevXuRI0cOvHjxApaWlrLiiL7NmDEDCxYswL1791TPr8Taw/Xr18s8G1euXMH58+cxatQo2NiEJcdD+BKJ4Gq2aoPqFcphxphRsDXwgOXxs2dIFqblNKbIXKUpGuRNiVi+7/HkpTtiZiiBrkPaoLglYJ61ORy7l0Ya0w945mqFjKWaY9r8GehfSCyJ0WkDgJiImSIFEn/L6aeDhYUtkqZODmvtcBGnRHfM7lUZuWJ74sVrD8TNVR11csWErV3k/Z0S6UP5kiUMEsQMOVPk6bIUh8dXRbJAcnFaZaiJqSt24PrR3TiycCS6l0qB72EIM6Sp0B0rNuzCf8f34cSKiRhRLxcSBJjFbYR4lUbjxIb+KO+f+8aAXr15i2GOk1GlSQs8evIMxQrkw8yxo3D5wB7McRyntfPrLRjOGRj6I0rcNnforloUNEukSpEQFvDG94WYvwlK+jPNgDpVM8PM2xvG6QuiuIhIhop2jE9XEIVjfsST559gmaIAGvd1woIWGeVsqxiFu2BWv2rymP/qlQfi5amPiaObI7v/VCydOTIVyoNYH5/j6SdzpC5YEyOnOaJjppDN1bpz/wHSpkqpWsE3e+lyNKtbW1YsCkyl0qWw78gx1aLoRKcNbgyS4cTU1BT123WE08hhSKSnK8HhQVypFgMtcRta4uq3KE0pbokM5c6dO3Jpx3///SeTbVarVk3OwBA5Jy5fvqz3GQ9iBoZ4bFHN5Gfi+UTJVZF/Y+rUqXLGRmT29as7pi9ajK279mDq6BFyOnJEqNiwCSYNG4JM6dKqHiKiv4/zu/eYs2w5Nv67SxuoVUbbxo0QJ3ZIrumG3OETp7Bs/QYsmjJJ9VBoiQBG+QaNcWD9GtVD+uZ1cx6qt1oJ01aLsbFlKsj45cd9cKg9Ejs//i6DphHiVx2PQ73NMKZeD2zLPBQnR5VCSIvBu5+fhHJd9yHHiC2YWjpswd3WPXqjbrUqMklvcIkLPjVbtJEzsOxsf0526ufF69eo0rgZTu/cHqr8GhRyhhr7Gj6cTkR6JXJR9OnTBwULFkSRIkVkrovq1avLfBUzZ86UMzFWrlyp9taffv36yeoh+/fvVz3Aa+1g0bZtW5QvXx4NGzbExYsXI3XwQswS2b53H8rWa4hHT55i69JFERa8EK8l7EtIiIiiLlGhavXmLaigDX69vLyxe/VyWWUkvIMXApN4UtThjYdnzuM+UqJEkWR+wQvBrjD6zJiNDQvmYH0QXxsWLMKG7gUjTT4bQVy0+d+du6oVOLFcROR287d49To0qFE9yOCFIC6YJ4qfANdv3lQ9FF0YNIAxok8vmS2aiMJOfJAvXLhQJul8+/atrC4iAhnm5t8PSyYmJhg3bpycDfHp0yfVqx+i5KlYSiICFm7aSZ8ozZopUyZZblWUbG3Xrp2sWBJZXbh6DbVbt8PCVWvgNHwIZowdZZCT5KCIK45iirqhl60QEemTKJcfmsR59x4+QsMOnbFhx06snDUdQ3t1R/y4cdXW8GdiYhxggEQUaXk/wZ4jt+GbvCBKpfpxZoEV/kmXGTmyZJHlhgP7ypElDRJHXDqbQGVImwb/u31HtQJ39+FDtOvdT75HPb288O/+A6hbvaraGrTMGdLh5h+CIxT1GDSAIcpciYzgRBQ2x48fR758+WRFkO3bt8vbhAkTqq0BtWrVCgkSJJD5J/QtWbJkcHZ2lkGLffv2ydfl5OSEWLEiLhAQHCJYUK9tB7i5fcGUEcOQJ0d2tSXiPHr2TCYcpF+J2SmiTjwRRX7GRsYoVaseJs6eC/dg5GASwY4ZCxfLz+SKpUth3bzZ8nzR0HTaf2IGCFFk5/3kKA7e9kXygoWRIRqsjMgoAhh3fx9kEPnBRGnU7kOG4/jpM0j+TxIkDUbOsAxpUv9xdgdFPVxCQhSFPH78GPXr10eDBg3Qq1cvGTDIkyeP2hq0FStWYNq0aXjw4IHqCZtXr16hdevWqFKlisy7sW3bNuzatQsZQlkGy9DETIsVM6chT45sqNuuA6o2aS5PoPccOizLeb13cZGDZkO69t//kDl9OtWiH4nfhfgdEYWU25cv8j1NhiOqgWTPlBFzli5HoSrVsWTNOlma+mdvnd9h1pJlKF27Pi7f+A/bli2SCfkiauaeyBNl6M99opDzgfP5S/ifbxKULJEe0eGysAweev8+eJgiaVJ5e/D4CQwa74hECeLLBL/pChVD21598e7DB7n9ZxnSpuUMDAMQlaIMyaBJPKMCkbxTTH2vVauW6vmVh5c3jI102lfg8R+RwEQM6HggJH0RSzQmTJiA6dOno3PnznKpiJj1EBIiL4V4H+7YsUP1hJw4CRWBkPHjx6N58+YYPHgwYhi49rO+iemI5y5fkQfFR0+f4tmLV3j64oXsL5w3D7q2bYWM2gEwvHXqPxBlixWDfcXyqof8iauiYpBzaNM61UMUPGJZwuip07HIaaLqCZ1pCxaheb06v11vTd99dHVF4ao18OXrV7k0TiTQ69iiGRrVqiHXss9bsRJHT51BpdIl0bBmjUgRvBXr5AeOnSBzIVHYMIlnePKB895RqLcxGabObI7MoZ2B4XUTUzqOxN1KYzHV/oc8GsHk9b8FaDj8IWqOH476ycMWdNz0705ZDnXqqBGqJ3C5ylaUny2i5LuRzujbDK+jWzcicYIE8v7PPrh8RPEatXBp/55IW74/OiheozaObN5gsCSeDGD85P79+zLx4O8s3rgFBXNkR4bUQZf8EQkUfxcEIQoOEQRbu3atDFgUKlRIBg6SJ0+utobM+/fv5ZIPEVwrWbKk6g0e8TpE4KNHjx5yloWocpIuXfSeLeDy8SM279yNOctWIF/OHHBo3RJpUqaQB8yHj5/gzoOH2uDoIVImS4ryJYoHyD0SUuLnm79iVWxZsgCJg1gK9DdjAIN+JN4v4kv8Xfio+74+WttXa2u38j+xTbv/4PFjTJo7H1OGD5XbtV39brXt/vfl94i29p+477ef6Pv+mL2Hj0I/h46IYWvn99xy+/fnF69Ffo+6779du/n2GOJWdAT1HPI/8b3qvrz13ya+T92Xj6Hu+z2m33vE7zG1pnp+/9f062tRzy338X+M7/flc8jn97sv/pO38nG/P4547T++Lvkcal/Rd/f+Q7x++1auVxdMjI3h5e2tfcYlwPOXr9CqYX1Ur1BeTh8X50wR7cat2+g7cgx2rFiieii0xN+FWKoZN05s1UMUtEHjJiBtypRoVq+O6glctaYt8J/KlSEuIseJHRubFs1HwvjxZF9QilStgVVzZiBZkiSqh/SNAYwooFWPXmhcqyZKFi6keoj078KFCzL5pph9IUqRFi1aVG0Jvd69e2PLli343//+JxN8Bocoy9q9e3e5fEXkt6hQoYLa8ncQU9CXr98ok31aW1nhlXZC/k+ihLJmecqkyeRVO3HiW6NSBdStVlWW7BrWuwfq21dXj/Bn4opkM4fuOLZ1o+qJPvwGSX4Dpl8HfeJWbVODnl8GRdp/3l7eaNC+E1bOnq5t+z5A899PDgJ/GDz5Peb3QZ3oEx0/Dur8nvP74/z8uvweVz2O/2uRj/t9u9jof18+h//gTXyf/2v58XHlY36/779dfGdgr+Xn16rdfHsMeSv7xfbv9wN9DvGf2BbIc/jv9/1n6Pdafnldoi33Vfv5f6//dvHl//yyX/Sp5xftQF6XuBVPEvAx/O7L5/jhdX97Xdo2f+Jqmhj4GmlfOu2+vBVtI3Hrt037Bnxxd4edrY3aV9tPbBf/ie/R7os+sWuAxxB9Ypt4Du0/MTsr2T9J5EwC0ef/OOIbxff4vxa/5//+OD+/Lr/H9Xu+gI/hd1/cyra6L25/fFztnl/fj48rH/P7ff/t2iPL7/n5tfz8WrWbb48hb2W/2P79fqDPIf4T2wJ5DnF/0ux5uHXvnvxdWZiby6UhLerXRcsG9eSynoPHT2pfx+Hh4YnypUqgdaMGEVpmX7ymAWPGYduyxaqHiAyhYoMmcBw6EFn+sAy5x9Dh2LZnX4iCF4Is01q9KsoVL6Z6SN8YwIgCGMCg8CTKoIqEm1u3bpXLNVq0aKG3NcFiAJAkSRIMGTIEHTp0UL2Be/fuHYYPH45Vq1bJpSJi/+j0Pg4p18+f8fL1ayT/5x+Y/fRzEPXIV2/eivkrVsl2naqVYWVlpQZ92s9dDtj87vsP6vwHemKAJq4Sv9V+3iJzeMBBn9+Azv++eAxxq3V8u//roE/bLNriMbT//J73h1t1X+zo/7q+P6bY/v11+W33ew7Z/8Pr8ns88fV9ACoa/vflc/zAf5AjbrXRzbf72o32JQZEPw6C/AZJ/oMnsf2Ns7M8UfEfPIlv9H8M0SdGaz8+ht9jq1vtP/k48v4P+/nvo/YL+Jh+j/PjgMz/tfjdin217//hvv92rake48ftfo+rtWRfkM/h3xbfJ1+3egx133+7dqPdF/v53fd/XfI55T7f7//6uv0fw+++/+NqHd/u+z2G3335HNrP7efX5f+4Pz6O2NH/dX1/TLE94Ov6/lq0/m/3xb5iP/H1/fckGv73/baLVxM8+lpCUrtVO8yeMAbx4sRRPfQ74iqpuFoqErcbGRuhbeNGMnAhgsA/Ep8nDx4/wbpt27WvHbCvUA7tmzUxaPURf9f+dxODxztiy5KFqoeIwptYbpSxaElcO7QfFha/n8k6d9kKOM6agwTx4sngRYJ4wfucGOo4CalTJEfTOrVVD+lbtA5g9B4xGn07dYjyU8oYwKDw4B8wEEELsUykcOHCWLlypdqqP+vWrZMJOB89ehRotRBxMBG5YMRrEcugRowYgbgRcDIZlYifmfh8EwGOUkULfx+gif/EwEvdl4MwOVhTAzS135ot25BK+50Xyptb9vkN2LQvtZ/fQNL/e0W/3+MGHPSpbXJf/0Gf2C6+Tz2O/2Oo1xJgkKt9+T3m99cl23Lf7/v9PAANbGAsb0VbPp72gGEkgiFcQkKhwQBGxChuXxvPXr5E5xbN0apxg2CVhxZJPUVuDFFGtVblimjVsEGwrq7qy5Ub/2HYxMnYvHiB6iEiQ6jYsAnGDxqAbJkyqp7AidKpXQcNxYntW4IdvBBEDiNv7Tyie9vWqof0LVoHMOq36winkcMidIqgPjCAQfr0Y8CgZs2acnZE8eLF8fbtWxw5cgRZs2ZVe+pP9uzZUaxYMZkU9EcHDx6Uy1bixYuHKVOmIFu2bGoLBUWs7+4xZDg+ff6M2ePH/vEKws/E4Fyc7C+Z5iSvENCvxM+obpsO2LBwruohCh4GMAzv+atXWLd1u1wuEsPOTvUGn8ibMW/5KmzauUtO+W7TuKFBPhsvXb+OUU7TsHHhPNVDRIYgZkiIMvJtGjVUPYETny2iTHNIghfCig2b5HK2kX17qx7SN0MHMIzULf3lRB12/0RbZDgiYJAzZ06sX78e+/btw+zZs5EoUSIZWBBBPxFMEFNs9U0kBl24cKHMhSGI5LUieCJmZohAyoEDBxi8CAbxvhFXA0Sm/TkTQh68EE6dvyDLDqZKnkz10M/ETA4GLyg0rKwskStLZtUiQxDVALq1bR2q4IUglo8M6u6AAxvWIEmihGjQoRM69OkvK0V9+uym9tI/sVxOzl4jIoMSidLPXrysWkETny0hDV4IonS+8/vAy6ySfqQOZYGB0GIAI5TCY1AZkRxnzsYwx0mqReHt54CBCGT8GDAQJU9z586NO3fuyFwY+pYhQwaZjLNp06bo168f8uXLh7x588qEneJ16WPaf3QnqpE4DBgMb28vzBw3OtRVSETuDJHwkz9zIv0TMz47t2qhWqHXu1N72NnYqBYZQqwYMdBF+92Jq3qF8uXBotVrUahKddRt0x5O8xbI8tf6PBcTsyH1lW+KiIJPBDDOXbr8S+4sfYkTSwQw3qsWhYdFUww7hmQAg6ScWbPgw8ePqkXhxdXVFf379w9WwEAs4XBxcZEVQL5+/ap69UfM8rh8+TLOnDmDq1evytdlYWGhttLviKuAIqu1sYkxpo8ZJRPVhYZY83387DlUK19W9RBRZJQ/V84wlUqm0LPUjktNatfCipnTcHbXDnRt00pOU+43eix6Dhshg8n64PrpM2yCkauD/kwEg6o2aa5aRL8nEvl+cnPD3sNHsX77DqzevEUu+xDLyB4+eRrmQKUMYLxjACM6YQAjFHTaf9GN+HCIjv+uyEJElZcuXSpnPjx//jxYAYN06dKhbdu2cimJCGboi7e3N+bOnStneDRu3FguJ0mcOLHaSn/yweUjmnbpiqSJE2HaqBG/VCQJiY3/7kSFkiVgyyu7RER/JJbpFc6XF306dcCO5Utk8KJpl2549yHs08NFHiN+FuuPWzhceKHoSVxATRgvHrbu3oOzl67IksYiZ8WRU6fRqGNnFKlWQ1YgEct1QyN2rJicgRHNMIlnKIgrrw1r2qNUkcKqJ+rbse8A9hw6jOljRqoe0pfTp0/DwcFBruOfOnUq8ufPr7b8mZiBkSZNGhl0EOVVRX6MsDh8+DC6deuGGDFiyKCIyL9BwSeSyzVz6I7iBQugb+eOYVr2IYJaZerUh9OIYcieOZPqJSKi4BKfo5PmzMPO/QfRtklD1KxcKdQz4pZv2Ig79x9gRJ9eqodCS8zAKN+gMQ6sX6N6frVp0yb06tULtra2qidsPn36JC/G6evxhBQpUsiZsqIsuj48efIEMWPG1NtrfPPmjbwQpq/HEz+/L1++yOXLkYV4TeJ9KSqJXLx2DXMmjPtjtZKfic8JWar18P4wXXSiP4uWVUhevXmLOLFiwsTERPVGTQxgUHA8e/ZM5pc4dOgQxo4di0aNGskgRkgtWLAAo0ePlpVJlixZonpD5uHDh+jduzfOnTsHR0dH1K5dO0yD77+RyH7dpHNX1KxUER2bNw3zz2/JmnXYrb3nVs+Zyd8FEVEoiIGJ+Bx1GDhEts/u3oHY2gAxNGYtWSZnYYjZHRQ2wQlgiHObZcuW/VINLbQuXLiAdu3a4fz586on7KpVqybP3zJn1k8i4OrVq6NUqVIyQbs+iAtRp06dkjNp9UFcLBOzc8O6ZCO8iDKq42fMwrali2Xy85AoUKkati5dFKokoBR80TKAEV1ExwCGqH/ef8w47Fy5TPVQaIno9aRJk+Dk5IQOHTrIIIZNGKaligOKmCkhlp7s2rVL5s4ILnFFYty4cbK6iZh5Ia52WFpaqq0UXE+0n32TTl3RpE4ttGpYX/WGnljTWbtVW2xYMBcpkiVVvRQUcTL19MULJOVSJyLSiM+EPYeOYOr8hXJZiUPrlnJmXGguEvibMHM2bG2s0aFZU9VDoRXcAIaYoSpu9UEM5OvVq4fHjx+rnrATgYt169bpLYCRK1cuNGnSROY204cRI0bIf7c4N9QHcb5pZmYmbyOr4ROd5HKQaaNHqJ7gqdy4GRyHDEKmdGlVD4UHllElg8qUPh2eaQMEsb6fQkecUIkoeKZMmWRyTHEVYNSoUWEKXggiK/qMGTPkfbEUJTiRcXFVasWKFTLnhph9ceXKFQwePJjBi1AQiZ9K1qyLlg3r6SV4IX43/UaNQaeWzRi8CCbxN9+0czfVIgo+10+fcPKc/q7IUsR7oA1Qm3ftgakLFqJfl47YtGg+ShYuFKbghSD+VmytmQODKDISQbHb9+7D28cbbl++qN7gEzOzmAcj/Fz73011zzAYwCDJ1MQEObJkwfkrV1UPhYQYlM6cORP169fH0KFDsWHDBqRMmVJtDbtixYrJaYcvXrzA6tWrVW/gzp49i8KFC8t8G+LKgQhk/PPPP2orhZSZmd/ssYY17OVtWC1Zux4+YkBep7bqIaLw8vqtMxasCvoqcHCNmOTEAH8E+/rVXZZPrdO6PYoVyI9tyxajeKGCeluCxyokRJHLi9evMWPhYtRu1Q45y1RAx34D4eLqir5dOqo9go+VSMJX5wGD1D3DYAAjlIJzFTyqyZcjO85dvqxaoSN+Luu2bUeHvgMwbvpM+eET3fkHDPyrjGzevFlt0S+Ru+L9+/cyl8Xnz59V73diiUmzZs1gb28v14GK8qiFChVSWym0RFZ6GyurUGe/9ifeG/OWr8SClaswYdAAObOGiKKGq//dhKeXYabG0q8uX7+Big2b4P7DR9i+YomcDScuvOiTXxUSBjD0QRzf9q1dpVpEwefp5YW9h4+gVY9eqNyoGV47O6Nnx3Y4+e9W7F+/GlNHDkfaUFwgjB0zBt67hL1aEUUODGCEQnRNuJc5fXrcuntPtUJOzELoPXyUrN1crkQxeHh6ysoz0TWIEVjA4Pjx4zh48CCOHj2q9tKf5MmTy8RP1tbWGD9+vOoVV6W+yiRT2bJlk+VQb926hebNm4d5Oi19Z2Vlic9uIZ+y6E+U+uszcgy2792HDQvncekIEVEwiMDv6s1b0LZXX/R36CQTjYdXJTtXllHVG3Ge/PLNGwwe74jjZ85Gy4t+5OfBgwfqXuiJ8cP5y1cwZMJEFK5ij4Wr16JymdI4sX2zrApUMHcu2IZxdpRYQv3lq7tqUVTHEQ59I+IyYRn0Lli5Go+1Qf26eXNQo2IFDOnRDQ3sq6Nz/0Hywym6+F3AIE6cOGjdujXatGkTLkmQ+vbtC1dXV0ybNg2PHj2Ssz1Ezg0xC0QEUMTr0mcJMfJjZSlmYIQ8gCGuJBw6cRKNOnTBZzc3rJ03G4kTJFBbiYgoKGLJSN9RY7Bs3Ubts3MWypUorraEj5evXyNBvHiqRWEljnWfPrvJfCWFq9rLKi+iFDlFL2J2sFg+7e4e8uCAyDsjyqMWr1EHg8dPRKIE8bFx0TysnTtLVnyztLBQe4adKK8sLiZR9GDQAEabnn1kKVWKnLy0AXdop7Xfvn9fBjCmjBgqM4L7a9ukkbzdvne/vI3KxBWE4AQMRAUSFxcXLFy4UPXoj5h9IR5f1CQX9clFYs558+bJ15U6dWq1F+mbsbERvgbj4CzWyN+8cxcnzp7DMMfJ8krCrMVLUbtqJcwYMxJWTKJKRPRHovJT3bbt4eHhKQc0KZMlU1vChwg2v9bOTxMnZIA5NN46v5O/s5+/OrdsJnMPiFw0IpdBcfvaqNWyDVZt2oy37z/gizagDOz7QvP1WnsN8kochYk41/UIwUC/SpUqMoF92rRpZVWZ4BBLcsWS2tK168sKY/MmjsPOVctkBaDwqjYmAxihCLJQ5GTQMqpiOYHTyGHhNv3PUEQgpr59NZQuWkT1RA9izdmmf3dhjuM41RN8XQcNkUtQ/AMWPzpy8pRMvLVlif4H9IZy7do1WYb01atXsu52mTJl1JbAiUSb7du3l7MkYoayJn1g7t69ix49euDAgQMYMmQIevbsCRM9rwOmgMQVo/L1G+PMru0w+0M56FWbtmDFxk2ws7FB0fz5ULV8WSRLkkRtpdASM7ja9+mvneR8XzpFFBz3Hj7C6KnTschpouoJHZFEbvaEMYgXJ47qIX0TA6c7Dx7g0PGTWLRmLTpqg5mmdWsbZNmuKG3dzKEbjmzeoHooJFp274Wjp04jScKE8NY+r318vOHt7SMrRoggVGBVI8Rv1Vw7psaJq5/3lPtXd7y8dwcPb+uvGsLfWEZVjNfEeWXcuHGRLFmyQL+SJk0qt4v3pjg+x9fGdc7OzrCwsEDLli3lrAxxoe1nIlC4dss2zFy8FLmzZUW3tq2RJmUKtTV8LVmzDo+fPcOQnvr52VNAxWvUlp+fLKNKBifWhoVmMHz3wUOcOn8RjWrVUD0BFcqXV0bHn2uD/6jmrTZ47dixI0qXLo1atWrJ8qh/Cl4IDRo0kB/yoiKJPnz8+FEuHylQoIBMGPru3TvZZvAi/B04dhzFCxb4Y/BCaFjTHjtXLsOaubPQqWVzBi/0RCzPYvCCQsPO1gYlChVQLYqMxFKR8TNmoZh9bbTu0VueK8yfOAHN6tUxSPBCEOco4XXlNzoQA0/xe7ly4z/sO3pMBuunzFuAAWPGyd/ZpavXtPearcx7Ia7ex4oZE5nSpUWpIoVRpWyZbwlXxWe5hbk56ttXh8vrlyiQPrUc9Ojjy2nIAPh8dZPPQ6En3nNfvnyRM40nT56MmjVrygDF7du3sWjRIrRq1UomrBczgtOnT4/y5csjQYIE8nxULLFevHixnBF85MgR9Yh+wUnxd1OxQRPs127nTxqPGWNHGSx4IZibcwlJeMqbPbu6ZxgMYNA3G//diWIF86tW8M1ashQtGtSFdSDRVkEcuEppg27xoRVViAiiyDMhlouID+WbN2/KQEZIAgZr1qzB/PnzZY6M0BKRbXHAEAeLN9qJgZgJIgIX5toJABnGviPHZFJaIop6xIwJfZQsHt2/D2LY2akW6YtYflqjZWs5OF40ZaIciA7v3RPZMmVUexjGk2fPkSzJ3xfAEMEjcVX6wpWr2HXwEJau24CJs+aiz8jRaO7QHZUaNUXe8pWRpXhp1G7VFkMdJ2Hd1u24oc5rsmjnJvXsqyFD2jTo16UTrh85gLO7d2DH8iWYPX4sJgweKAeOYomyyGeQM0tmjB3YD1t37+Fyj0hMLCcX5fdFJTuR36JPnz6YMWMGtm3bhkuXLsnZFq9fv8aWLVvkrGCRm80/75sIfojZyiVKlMCqVatw/eYtNO7kgMmz52Fwj65YMs1J/t0Ymt8SEgYwwsvEYYPVPcNgACOUoltCZRFVf/DoMewrVlA9QTt76XupVXHSceTUaTSuXUv1BK5kkUI4dvqsakVue/bsQfbs2bFjxw4cOnRIBjJix46ttgafmHJYtmxZdOrUSfWEzIkTJ5AvXz4sWLAAW7dulYGMRIkSqa1kCCIr/YWrV1GsAK/gEv3N0qdJHaxZWBQ84orsWm0gLBIct2pQH1NGDJOlEQ014+JnYhCfNBoFMETyzPvaOd3pCxdl9auFq9Zg3LSZ6DF0uBxMlq/fCDlKl0eushVke6y2bduefdr3PIKlhTnyZM+G5vXqwnHIIOxatRz/HT2Ikzu2yqXA8ydNwOj+feX0fzHrsGyxonKmU6yYMb7NtBCD2cpNmsmZG8vXb5S/71H9+qBzy+boP2acX1ny6HYi/ZexsbFBxowZ5dJmUZVPzK4RszJE4GP48OF4+PAh7r58LcuhVi1XBtuXL5azWSOKmZk5Z2BEIwxghEJEHWDD0+wly9C6ccNgnaANHDtervMXduzdjwolS/yxvJHIjyGSG0ZmYnpc1apVZcBh3LhxMpAR1nWPK1euxLlz50K0PvHJkydo2LChjHqLyLYIZOTNm1dtJUMSWektLSzlCR0REYXd/BWrkLZgUXnesXrOTNSuWjnCz6vEEpLIvuRPBAFEomgxa0WUJt20cxfmLluBkU5T4TBwiMwzV7p2PWQtUQYFKlVFm5695TIPMYtQXGwSAYYi+fOhfdPGmD56JA5vWo8bRw/i6JaN2LBwLmaPHyNnv4jlj3WrVUWJwgW1c7d0iBsndqgTvB8+eQoVSpXA+T07YWNthQ59B8hZHxQ9iCCFg4ODDFi1bdsWR48exePHj2WCeVH6/879B0iuva9EBaGIXvLMJSTRCwMYhFt37+HSjRuopx2wgkMsaxAVFvYdOYotu/egWvlyaguC/HBImjgRPn5ylQffyGjp0qVyLV+xYsVwQ/tZVKtWTS8nVCJCLZJ/tmvX7o+Jbdzc3GTUOkeOHDKbs1i2IgIZ0TFgFlWkSZECCePHk7OMiIgo7P7df0DeivOFdx8+yPsRzW8JScQEMMQ5laji8d/tOzLp+frtOzBz0RK5XEMM+EUC2WL2tZC5WCmUqFkHXQYMxpxlK2QQ4/0HF1mutGzxonJGxPxJjjj571ZcO7wfBzaslfmYpo0egcHdu6Jd08ayNKUIYqRLnQoxY9iF+/lF/pw5MGPMKO0YegrteveTMzLEUhLOZooeRJ6LnTt3yvPbWbNmySSlP/5NLZoyCbmyZUX1pi1x/vIV1RsxRO4VBjCiD4NWIRF/OOJDK6oPyNr26iuj02WKRY8qJCs2bJJLSByHDlI9vyci+jO0g6uZmSlMjE1QolBBHD19Wk5ZnDx8SICAxo/qtmmPHu3bokDuXKon8hCzL8QsB3ErkhHpk7hqIhJ6iqzTYkbFz8R2keVarDEUSTonTJggI9cUOWzetRtbdu3B0mlOqoeIiMLq4PETGDRuAiqXKS2TOlpZWcpBhvgS69XFlHRDEDMC8laojNM7twWZyys0xGD97bt3ePPWWZYRfeP8Vt6KylZ+bb/7795/gK2NDeLFjYMEcePK2/hx1K28H+db349l6iOTdr37onbVKnI5ieCl/dvLN2iMA+vX4NmLl1i6bj2MdEbIlT0rtu/Zi6da3+njx1C5eFG5TFYfRDWOevXqyRkA+vI3ViEx0957/vks9OXQiZPoO2oM6levhrw5cyBBvLiyIqWNtbXBxoRi+fvkOfNkUI/Cj6GqkBg0gBFdRLcAxpmLlzBp9lysmz9H9fze1t17MXiCI9zcvsgPHjEAF/o7dEarhvXl/cAMmTARqbSBfPP6dVVP5NK7d2+8f/9ebwfTH4l8GqIyyf379xEvXjzVC1y4cEHO0Pj8+bMszypmgFDkIgKv4urXqlkzkDoFA0sRQXzGiCBrjiz6OYkkosjhvYsLRjtNw6Xr1/HV3V1+iYpoYkxTrnhx1KlaWV70+DmYIT4TxL7ian5YiXMgUQVl06L5quf33LXnfS2DD85+wQnnt+pW+3rzVt6KtourK2LHjOkXhIgbV96KpLLivl9Awi8wETd27Cg/I+F3AYwfiaBOocrV5c+6bafOSBI3NgMYYRBVAhiCWMYkZhY9ef5CLs99+fqNfB//kzgRiuTLi1JFi8jcK/55VPRNnEMMmzgZmxfr/xyfvmMAIxKLbgGMj9pBtki1mri0f3ew1jlevn4Dzbv2wCdt0C2IihhjB/RDtfJlZTsoqzdvwWXtA2T8oAGqJ3Jx0U6kRLUPEWzInTu36tUfMcNDJAcVB2uRoXngwIHyuUaNGoUWLVqEeo0phT8RtRd/76wfHjHEFOvStevj0KZ1qocoeMQAWSQyrFiqpOqhqEAsLdm+Zx/Wb/9XLj+trmZ2Pnj8BA+fPNW+nsjPhQY17dGlZQu5HCK0xKDK9dNndG7V4tssiW8Bibdv1UwJv75XWluUiowrAxF+QYj48eIGmCXhP3NCBC/+luN6cAMY4kr87KXLsW7ebMybNw9DhgxBv3791NawuX79OhYuXAgnJ/3Nlpw4cSIqVaokK9Lpg/j3ihKjzZo1Uz1hs3r1aly9ehVjx45VPWEjAhe9evX6dmEyvIlE6aKAgFimK0rWP3r6DMUK5EO96tVQKG8etZd+iDx8PYaNkKXuSf/E8rfihQoygBGZRbcAhlC8Rm0smToZKZMlUz1BEyeEhapU1/5IveRUT1ESq2q53wcvBHGFReTO2Lp0keqJfERwYcmSJTh27Jjep7U9ePBAHgRr1aqF3bt3o3nz5jLRUYwYMdQeFFmJ0nL/u30H4wb1Vz1kSAxgUGjde/gIo6dOxyKniaondLoPGS5LAIpBKRnWjVu3sWPfflhZWiJl0qRIkewfJNduPdw9MHXBQuw+eBgdmjdBo1o1f5nJIAZi4iLNz7Mj/JZw+AUrrv3vJny0/Yy0Y76cJSFmS6iAxPclHSIo4Xc/pl34546IagILYNRr1xEbF86TbX/ifZQ7W1Y0rl1TzhwQZTY9tAGPPmbSiPKdly9fRsGCBVVP2Ikk7OK8TVTX0AdRsUNc9Euq/f3qw9u3b2UFkGzZsqmesBHvFzHbSZ9BoJAQAcODx09i1pKlsvqbKM0rkr/qw4PHj9G6Z59fgmqkH2IcKcpgM4ARiYkARp1q3z+oo4NmDt3lv0dMeTx36TKmjhoeZM178QEnMoiLA/iUkcPk+tXgEFcxKjduhrO7dqieyEdEn8VMib59+8qpiPokDq4iOaf4+R08eFAmDaWooWO/gShfojiqVwg8vwuFLwYwKLT0FcAQiRRnTxgjlwBQ5CKqcrTu0RvPX75C7SqV8fHTJ7zRBkIyWOH8TgY1/GdLyOCECFJo98U6fBGQat+nP3atXo4kCRMyMBFKwTkv/uzmhsJVa+DAhjWIEyuW6iX6lav2Hh41ZRrOXLiECUMGIl/OHGpL6D1/+RL12nbEsW1+VRRJvwwdwGAVklCIbsc38UFx4uw5uTZMvMHFwV9ccQ6KOMCLygxjBvQNdvBCiBUjBlw+uobL2jp9EdM9p06dKhNqiqog+iACFuvXr5f1svPnz4/jx48zeBGFiMHzmYsXI2XyWSKiv52Xlzc8PDzRpHYtZEybBlXKlpZXbpfPmIoLe3fi8oE92Lt2FVbMmg6nEUNlvq7WjRrImaMieaZYg/9PokQMXoSRTvvvd8QSgdzZszJ4QX8k3pdiubmY9dZ10FAMGDMODx8/UVtDx9yMVUiiE4MGMMTAVQzmKHIRCXvEjIvLB/ZidP++mDx8KJasXS+nVZ67fEWuTfs56LB27mzUqVpFtYJH1IC2tbbGh48RX0r1wpWrWKr9G0W5slPnL+B/d+7IhEIiOVfRokXlFERHR0e1d+iJ6YwlSpSQeS7E0pSNGzciZcqUaitFBTfv3kOsGDHl1ToiIoo8xNLU5l27Y2gvv69m9eqgUulS2kA5myyL+qelCSI/St4c2VWLwtPWPXtRrRxnMVLwlS5aBDtXLZMzp+q0aS9nw4o8fKFhZm4Gdw931aKozqABjEYdu+DlmzeqRZGFKFcmZlL4rzNLkfQfmfm7Y98BmDh7LnoNGykTaf0oSaKE6l7IxIkdC87v36tWxMmWORN27DuA/qPHoU3PPmjQvhPK1KmPrCXKIE2BIjh1656sChLabNavX79Gu3btUKFCBTRs2BAXL16UgQyKei5cvcoTXCKiSEZcXGnbsy8mDBoYqiSt4oLapn93hWgmKYWOOO+7cOVatModR4YhZm93b9sahzevR/6cOWQRgZ7DRqitwSfGOl/dOQMjuuASEgqUmGIp1omtnTsLC50mYtqChXL9YliJ9abO7z+oVsQRZZrWzZ+Njs2byvanz26yJJtI5CW2jR7YHw4ODjIXRkh4eHhg8uTJsuSWSPp08+ZNGchghZGoy8fbRyarpYiVP1dOdY+I/nb7jx5H7+GjMGfCWJQoHLqkjRevXoOXt7de1tfT74lEqyUKFYS1lX4SMtLfR/ztVClXRv4deWvnZSFlbGQUqZewU8gwgEF/lC1TRu0AnxMVGzaBffNWyFy8FF68fq22hoxY+/guEszAEF69eSuTy4rggojMCmK6abumjWWGbJEH48SJEzJnRXDs3LkTWbNmxf79+2UVExHIiMmM9VGeyBguglsUcURWdFaAodCIFTMG7Jl8N1rZe/gIBowdJy+uiKUiobV681bUt6/G3BcGIJeP/KHUPlFQ7j96jEHjHFGmTgNYWVpgYLcuakvw8X0evkSie0NiAIOCRZRKnTh0MPJkzw53dw/EjR1bbQmZiF5CIhIyHj9zFh36DpABGVGyqV3TRjKIIa6yly1eDF3btJL7ihkU48ePR9euXeX3BUXMshB1wrt37y5LT4lARoYMGdRWiurE38WXr19Vi4iiEjHrr1r5sAcwZo0fzRKqkcDOAwcxeMJELJ4yGVkzhv44+8HlI/YfO46alSuqHtInsTxHJIUXnj5/gQfaALRogfyyTRQU8TczYpITKtRvjJot26Bpl25yiXf9dh3l+GHf2lUYM6BfqKpBMYARvgZ0DXlQKSwYwAilvykZ6dev7ti6ew8GjZsgqzEsmz5FLrMIDTEDIyKWkIigyfwVq2Sei3HTZ6FYgXw4tnUTRvbtLWdduH35Ik+GJgweEOBDrn79+rDQtosEnD/78OGDDFqIpJ9ly5bFtWvXZCCDohdLC3OZ3JWI/l7x48blUsAItm7bdoycPBVLpk5G5vTpVG/obNm1W05FZ1AqfIip+k20waewfd8+VChVItTnjRT9iXLXfUaORtWmLWRhgYnDBssKJG0aN5RfR7ZskHkw4sYJ3cVTwf/cnsUkogcGMELhT6WiogPxBhdVSMbP0Ab79rVw8PhJjOjTC9uWLUahvHnUXiEnc2C8M8wMDPFvOH/5CroPGY7Stevj9v0HssLK9uWL0aCG/bekpVf/uylv509ylJVSfiQ+8ERZ1YEDB+Kjqp4iDsxz586VsyxEqdUbN27IQIb40KXoJ1WK5MiXi2ukiYgiirgAMXPxUqyaPR0Z06ZVvaHz3sUFc5evRIv6dVUPhadte/ahuh5mQVH0c/3mTXTqP1DOskiWODEOblgrSyBnyZAeObNkQdH8+VCqSOE/VhMKCQYwogeDBjCsrKz+isF/VCaCFiOdpqJY9Vpy4C/Wnq+ZOwvzJo5Hgdy5wjwFyxBLSFw/fcKy9RtQqWFT9B8zDtkyZcDhTevhOGQgcmTJ/Mu/IUOa1Di5Y8u3gMbP8uTJg4oVK8pSqIcPH0bu3LmxatUq7N69WwYy4sePr/ak6ChtypTaiW491SIiIkMRg41pCxbJ2RfiXCRlsmRqS+iNmDRFVh7JnjmT6qHwcuvuPZkkPVe2rKqH/nbiPS3KFzd36I52vfshd7ZsOLRpHTq3aoEYdnZqr/Ahzv8ZwIgedB4eHgb5TYpkidFFe+0NV7NKJZQrXkz1RAwPT0+s3rRFruG0tbFRvaHz8PETOM6egyvX/5NJrcqVLC4HbmENWPzs7KXLmDRnnqxuom8ikrtK+3nsOnhYRm0b1LRHgVw5//hv8PTy+uPUxpcvXyJRokT4559/ZJ6LWrVq6f1nQ0RERN9NnDUXB44fx/LpU8M0fdzf3iNHMX76TOxYsVSvV3X/dm179UXdalW/lUn10s6ryjdo/C2xX59OHeQt/d0uXruOsVOn452LC9o1aYTqFcp/S6JvCOkKFcONowe5nCkceWpjU0PgEpIozMzUFI+fPUPOMhUwZd4COfMgpMRsiOETnVC7dTtkzZAB+9evkVHQdKlShcsAXebA0OMSEpG7QlyZEdVROvYbiKRJEmPv2pWYNnoECgZzxkhwPsgSJkwoK5Lcvn0btWvXZvCCyIDEFZODx0+oFhH9DUSS7TnLlmPlrOl6CV6IpSPDHCdh/KABDF7oWWBXtUXf9r37uXyE5Fij36ix6Nx/IBrWqoG9a1bKgJchgxeCOHfnDIzogQGMKM6hdUt5O2fZChSqYv/bQIYoQyQG+WKw7/9Vrl5D6Ix02KMN+ts3awILC3O1d/gQJe3efQh7Es/b9+/LTMVFq9eU9eC7tWmNQxvXoUOzpqHKThwchQoVgqWlpWoRkaGIEw6RvI8opN46v8OaLdtUi6KS6zdvoUi+vHpJtCku9jRs3xm1q1RGnhzZVS/p08/Xddw9POTS3PRpUqse+tuInHErNmxCxQZNYGdro401VqFGxQoRlhBZ/IkygBE+Nv27U90zDC4hCYVWPXqhQK5cKFusqOoJyFf7Lyi/e9/86U0V1PZFq9fKjNpiSYmIZoq8FSI5lcjcK5aWiBKQsxYvlTXPRZAi7w8H7/jx4iKRAXM4iIomucpWwH/HDqme4BMHwz2HDstlIo+ePkPd6lVRr1oVJE6YUO1BRNGRKGMsEvGKdbJEISGy24+eOh2LnCaqntBp0bUHHIcM0stMAAqeqfMXyqUIPTu0Uz2hc+7yFXQZMBgdWzRFk9pc/hke2vTsI5cfly76fQlJKe0zu2GN6vK8k/4+YszSsENneSuKAKRLnUptiTgZi5TA5QN7YG4evhdr/0bFa9TGkc0bDLaEhAGMUBg83hG7DhxCDDtb1fOTPxwcf5fI9E/H1cAOvCJA8eatM7y8vWXbf4pUPW2AX6xgAYyeMg05s2bBAIcuSBAvrtwnoojXlbZgUdw5dSzYJxEiWLFmy1Zs3LETGdKm0Q6I9ihdrAjXsBH9JRjAoNDSVwCjdqt2mD1hTLjN8KNfte7RG3WqVkb5kiVUT8iI2TcbdvwrL/JMGj5E5sai8PFzAENcUCtcxR5blixEkkS8yPQ3+uzmhuylysnPTHHhNJc2DsmdPZs8j4+o8/dMRUvi4r7d4T7b/G/EAAaFWKvuvXD09Bl538zMVFYL6dOxA06dv4BRU6Zh6TQnFM6XV26PDMQHyKX9u38bARXRe7HmXcy2uHHrNmpVriQPjimSJVV7ENHfggEMCi0GMKKuotVqYol2/pI6RXLVEzTxGfHu/Qd8+vwZl27cwLbde3Hp+g2U0QbUHVs0Q6rkYa9eQkH7OYAhzt9EqdrwSNhOUYe4aCkuQl68dg0Xr17DhSvX4OHpgXGDBgSYDW4oGQoXx9XD+2UOQdIvQwcwDJoDQyRvFANT0p+r//0PR06dhrGREYoVzI9NC+dj4eSJcs1hvlw5kTFtGjjOmiMDHOKDJDIwMzOTy0EC8+L1azltVLwRFqxaA/uKFXB82yb0c+jE4AUREdFfIkvGDHLgExwicFGpcVO07N4TO/cflBc9Tv27FROHDWbwIgJs27MP1cqVVS36W4mZ1imS/oOalSpiVL8+2LV6Ofp26QSHgUMwymmanEFuSN4+PjAK5uxvitwMGsDo1H8g3rx7p1qkD7OXLkMMW1tsXbroW+DCX6Z0aWV/2yaNMHLyFDTq2EUGPCKauXnAAIa4ciICLKI8beVGzfD+gwsWOU3CunmzYV+xPNeqERER/WVqVKqAzTt3q9bv2WnnQWd37cDBjeswf9IEVClXhpVGIohYOnD45ClULF1S9RB9V654MexctUxWJqnSuBn2Hj6CT5/d1NbwJS7kRlQCUdIvViGJwsQaw+7t2uDCvl1BZnkWCT0rlS6FXauWy2BAm1595IyMoGZAGIJINOru7iFn5MxdtgKlatXDRO01lShcCMe2bsSw3j2YtZqIAuDJMNHfpUShgrhz/wGePn+heigqEJXh8mTPppfqMRQ9xYoRA04jhsrZGEvXbUDBytVQt017TJ47H6cvXAyXMYr/LHQm8Y0eGMCIwsQarnSpgpfV18TERNZc/nf5UllO1b5ZK1y/eVNtNRzxASK+hk6chNJ16uP+48eYNnqEnCki1k9aW1mpPYmI/IhAbJ9OHVSLKPjixYmNZnVqqRZFJeIcp3KZ0ti6e4/qoahg6569qFaey0foz8RsjJWzpuPs7h3o2qYVfLx9MGHmbOQtXxnNHbpj/opVMg+emKkdVqLQAYMX4UcUWDAkgybxrN+uI5xGDjNo2U76lQggbN+7Tyb4zJoxA4yNjGVuEvHmFrdxYsXC2IH9Zf1uffno6iqngq7avAVPnj1Hs7p10L5ZY8Sws1N7EBERRU7iiqAYUPME2LDE1fxl6zdg2fQpqociI/8knjmyZJYJl09s34wHjx8jS4YMag+i4BNjhtMXL+Hk2fM4ce4cXD99xjhtXFKicEG1R8i5fPyI4jXqyDKqFH6iZRJPihzECVi18uXw74qlqFOlipyZ0bRObbRt3BBdWreUSzw69x8IzzAmXBWBEpFzo++oMfJDQ2QEH9m3NzKmTYtyJYsxeEFERFGCOC4yeGF4z1+9RPJ/kqgWRVb+0/N3HTiEkoULyfdL18HDZB9RSImcNmJ2hlhSvm/dakwfMxKDxk3ApNlzQ10MQgRBbG1sVIuiOgYw/mKiHFyFUiVQplgRGdUskj8fCubOhXGD+ssZM+LDwv+gFBIigdOaLdtg37yVzDScKlky7Nc+gKaMHIZ8OXP4JfF0j7gcHERERBT53b73AOlSB2+pLEW8bVw+QuFAlFwVS80v3/gPTTp3xZmLl9SW4BOVivQ5s5wilkEDGIkTJoAJs79GeiJfxtRRw3Hr7j1MW7BI9f6Z2H+Y42QUs6+FIydPoWeHdji4cS3aNW2MOLFjqb1UEs8ITCJKREREkd/t+/eRNmVK1aLITFSVePD4ibwYRqRv4oJqgVw5ce7yFVlVMaQXWF0/cwZGdGLQAMbk4UPlVX+K/KwsLbFgkiO27NqDBu07YcQkJ6zevAXntQ+ODy4f1V6Au7u73Kdu2w5o0a0HYsWMgR0rlmL2hLEoViC/TL73M78qJO6qRURERBSQGKDcvncfaVMxgBEVnL10WVaLMjUxUT1EYSM+Ay5cvSZnc5et1xBPX7zE5sULcOvEkRAv6XP99Am2NtaqRVEdl5BQkOLGiY2tSxeidaMGePH6DQaPn4j67TshT/lKMpAxbtpMFK1eS2YIF/sc3bJRZhH+U5JWuYSEMzCIKJjEScyG7f+qFhH9DR49eQpba2uZWJwivzMXLqF6+XKqRRR6Is/Fjn0HUKtVW/QePhK5s2XFkc3rMXZgP7/iA6GYze+3hIQBjOiCAQwKkihbtP/oMQyZMBEvXr1Cywb15MyKGWNGomO/gdAZ6bB+wVwsnjpZJtsRS0+Cw8zMnDkwiCjYRABj5uKlqkUUfC9fv8HcZStUK/TECXVIpyxT2Jy/chW5s2dTLYrMPn12kxemcmbNonqIQk7k0Fu0ei1K1qqHlRs3oUPzpjKJZ7N6dWRiz7CQSTytuYQkvCxYuVrdMwwGMChQYipgjRatsXrzVswYOwpblizEgK5dULZYUZTWvo5t24S+nTuGKjs4c2AQEZEhiBPiM9rxLKzqt+uEt+/eqRYZgpg6njt7VtWiyOzV2zcySbv/smExvT8Pg08UTGJp+vSFi1GyZl1cunYds8aNxuo5M+WYIzSzLQLDJJ7ha/mGjeqeYTCAQQE8e/FSzq7oNXwk2jRqiHXz5yBnloARdbG+UQQhQotLSIiIiOh3zl+5wkFwFCBm675+8xb5c+VUPZCDzvGDBqgWUeAeP3uGsdNmoFTtenj64gXWzJ0lS6aKZSL6xjKq0QsDGCSJA9DSdRtQvVlLZE6XFnvXrEKVcmVCnCQnOETw4yuTeBIREVEgRMWAZy9fIV0qllCN7MRSH7GEOEmihKqHKGhiOd6+o8fQomsP1GzRRi7N27F8sQx4pUqeTO2lf2IGXZxYMVWLojqDBjDuPXwED09P1aLIQvxeRHLOf/cfwNp5s9GpZXNYWJirrfonSun6eHurFhEREdF31paWsLGywqs3b1QPRVbb9uxDgnhxVYsocOJC6aadu+QykblLV6Bq+bI4vm2zXJ6eOGH4B7+ePH+OZElCvuydIieDBjAGjh0v60RT5CCCSbOXLkO9th1QpWxprJkzE6lTJFdbw5FOB6ZCIyIiosCIXAoF8+TCyXMXVA9FRuI8cvfBQ4gflwEMCpy7uzuu37yF+u06Ytm6DZg6egQ2LJyLmpUqhuvF0p89fvYcSZMkVi2K6riE5C/k7e0to6Bl6zbAhSvXsHXpIjStU/tb8qXwJpalMJs7EYVE49o11T0i+hsUzJMHJ86dVy2KjI6dPoPUKVPI3GZEP5u1ZBkyFy8N++atkCVDemxaNB+5IqBSjci799bZGYnix1c9FNUxgPEXEUEDse6sSuPmWLNlGyYOHYwFkx0Nvm5RZNVgAIOIgksEV1s1rK9aRMGXIF48OLRqoVqhZ21tpR279J8TioJWOF8enDx/nucLkdi2vftQvXw5eT88cqZR1Lb38BGZ16J1owbYfegwmnftgaOnz6ithvP85UskjB9f5mqh8NG5ZXN1zzAYwIjGPL28cPHadSxbvwF9Ro5GuXoNMWXeAvTp3AFr585C3hzZ1Z6GxRkYRERkCKJsXo4smVUr9JZOc0LcOLFViwwhaeLEKJArJzxYtSxS+vTZDUdOnkaFUiVUz3ci38GRU6dVi/5WW5YsxN61q9CvSycc3rwB9hXLY/B4R1k0wJDE8pFk/zD/RXiqU7WKumcYDGBEY0vXrkfdNu0xYtIUHDt9FmWLF4PTiKEoUahghEbKZQBD3SciIiIKzNRRI2Bubrh18hR8+48ekxfCYsf8tbKDCGCMmDxFtYgAM1NTmfdi5czpmL98Jbbv3ae2hL8nIv9FYua/iE4YwIjGmtWrg+3LF2Py8CGoXaUS7j98hFbdeqFJ566y9nJE4QwMIiIioqhr2569qFa+rGoRBc//2TsLgKiWKAz/S3dIimKLXdidYGJ3K7Zid7coKnZ3BwZiARZ2d3eiqKh0L++e4eIDpFmWmu893J25d+/uwt67M/+c85+8Zrmx2XEx5jgux6UbN8Xe9CWqAgkXMLITchUwShazYAocRz4oKymhRNGiwheMNcYMHoh1DvY4f/gA6lavxmovUwgXqeTyhsV+cAGDw+FwOBwOJ8vh/es3S1FuWLuW2MPhJJ9iRQpjzYJ5GD19FhMx0ntR88XrNyiUXw5VFjlyQ64CxvTRI2Ggry+2OBkBGdj0794VBzetw8mz59B50FC8fPtW3CofeAQGh8PhcDgcTtbk5LlzaFCrBjTU1cUeDidlVCpfDktmTcdMhyWsSomTywkEB4eIW2VHeHg47j9+gorlyog9nOwATyHJoRTMlw97165CS2srdB86nJnqkKIuF5iAId7ncDicJKBIsQ07d4stDofD4WQkx067CePHqOojHE5qqVOtKtwP7MXogf1x6vx51GndDotWr8X3nz/FPdLO89evWQUSfV1dsYeTHeACRg6GShN2b98Wbvv2QFVFFY07d2OThJAQ2SugMYky8eQKBofDST57jziL9zic5EPl82hAnFZ+ev9CRESE2OJwci7kofbh8xfUrFpZ7OFwUg/NRerWqI7NSxfjwMZ1CAoKRpMuPTBrsSM8vbzEvVLPrfsPULlCxlRdzEksXLVGvCcfuIDBgZ6uDqaOGs7SSu49eoxqzVth5LSZOH3uAgKDgsS9ZEekVApF4YLF4XA4HE56EhQcguev34it1DNo/CT8+vNHbHE4ORcXtzNo2rA+81lLCFqosq5bR2xxOMmjgHlezBg7Cq77dkFVRQUtuvfG5Pn2uH3/AUsFSQ037z1g1XI46QvZEsgTPovk/IXSStYuWsAuHFUqlMe+o86o0bwVBk+YjCcvXop7pR1pZCQkXMDgcDgcDofDyTKQf1lU9ZHE00cUFRUxYdgQscXhpAwjAwNMHD4UZw7uZekfs5Y4onKTFhg6aYowNzkGrx/JSzGhzyuJH+S3wcle8Fkk5x+MDQ3RtW1rbFvhCI+jTqhRuSL6jByNqfYOMlmBonx2BQmrRcLhcDgcDofDyQKQn0BwSAgsy5QWe6Lgvmac9CCXnh6G9+uLw1s3Ye3C+cL8IVKYiyxCxwGDxD0S5837D9DQUIeZiYnYw8kuyFXAuPPgYbo4zHLSD10dHfRo3w7u+/dARUUZTTp3Z+VX01JFhCIwKOeNw+FwOBwOh5M1cD7tBhsrK5YiEhdJVJF8DkdmkN8KFRmwbNQEUxYsRFhYGGy7dobj7JniHolDaQ31a9QQW5zshFxnkQ5r1uG3r4/Y4mQVfP388Pj5C+QxNYWZqQnmLF2GH97e4taUI42I4BEYHA6Hw+FwOFkEip497nYGLZtYiT0cTvrw/NVr5sXXtk9/Vj3kwuGDOOu0H5uWOmDS8GH/RADFB3lmHHB2QafWNmIPJzvBl8E5iXL20mU06tgFq7Zsw5evX9GlTWtsWrKImeJ4/05d2dWAoCAW0sXhcDjJgVb77Pr1EVscDofDkTdUzUFXVwcWhQqJPRyObHn74SPz3eszcgxKFbPA+SMHMXrQABjk0hf3SD4Xr9+AibERShQtKvZwshNcwODES2hYGOY6rsDMxY5Yaz8fe9etxvQxo9CplQ2qV66EkdNmoGpTG9Rr04Htc+HKNQQEBoqPThw//wBoa2qJLQ6Hw0kcEjDaNmsqtjic5EORg9NGDRdbqSdPbhOe+sjJ0bi4uaNVEuadHE5qoDLV0xctRqcBg1GhdCmcP3QA/bt3FeYKmuIeKYdKr3dp3UpscdKbGcIcUZ7wb2POP1B97479B7GIC5cdW1GxXFlxSxRU2qh3p45QUlTEZ2Gf3YcOY+T0GSjXwBpFqtXC8o2b8cnTU9z7X/z9/aGtlfqLEofD4XA4yUFNTZVV2Eory+fOhoF+ylcBOZzsAC1qUWn9FlYNxZ7EoXSTo6dcxRaHEz8hoaFYtXkrGnfpxuYWbgf2YECPbuy6nRY8vbxw5+EjNGvUQOzhpDcNatUU78kHLmBw/kLGnGTQ1N52ANo0a4o1C+dDT1dH3BqbHh3asTJZBD0uNDSMrU7p6+miimUF5M2dm22LD7+AAGilQVXlcDgcDofD4ciHi9duoEjBAjAzNRV7EocEjJVbtootDudfXr59i3Z9B+Dhs+c4snUTpowczvwuZMGGHbvRuok1NNR5unp2hQsYHCZAeFy7jjZ9+mHjrj3YunwpenVsH6/LdDT58+ZBSYuovDI1VVUoKytj77pVuHX6BKpXtEz0sf4BAdDW4ikkHA6Hw+FwOJkdFzc3tBImhBxOWiFxa+u+/eg22A49O7bDegd75MuTR9yadm7cvQc3Dw8M72cr9nCyI3IVMGpUrsQmu5zMw7U7d1nO2fzlK1nY1rEdW1C6eDFxa+JQfhqpmxERERg1oB+GTJzCQraSwo+nkHA4HA6Hw+FkevwDAuFx7QaaNKgv9nA4iRMUHIy7jx7j8o2bYk8UX79/R6/ho3DyzDk4bd6Aji1tEl3wTCmBQUGYOHcB5kwYl2AEOSd7IAkNDY0U76crtELPyVhevnmLHQcPMX+K7z9+4tuPH8ilpws7276wsW70NyUkuYSFh6NErXpQVFDAi6sXWRTHuFlzMXv8WOGLrp64179UadoCJ3Zth5GBgdjD4XA4HA6Hw8lsHDl1GqfOnseGxQvFnn/pO2oserZvh3o1q7M2lbBs3KU7zh7cx9qc7Av5WLx4/QaPnj2P+nn+HO8/fWLeQ+8+fkLjenWhp6PNKoxQuohtl04Y2LM7lJSUxCPIjtlLHOHr54/FM6eJPRx5ExYWJt5LX3gKSTaHoiPeffzI6il3HzYcZqYm6CtcPJbNmYlzh/bjjPDl0rpp4xSLF4SycPFp3qjhX+OWutWrsfSTOY7LWHhYQvjzKiQcDicFUMip/YrVYovD4XA48sLF1R0tra3EVgJEymUtlJPB0MLl05evsN/ZBVPtHdC6ty0srZpg0nx7Jl6UKVEc9lMm4a77abRv3gwmhoY45urGFk8v37yFds2bom6NaqmacyTFTqdDcL3ggamjRog9nOwMj8DIxly/cxfdh0aVj6MUj16dOkJLU4O1ZQU5/X749BnVK1UUe4AvX7+h76gxqF21KiaPGBar9BwpteXqW+HZ5QsyDRvjcDjZFxIwGrbvjPOHD4g9HE7y+PjlCzbs3I25E8eLPanj1bt3yJ83L1T4WIaTg/D+9RuNOnbBFZcjiRoi9h05Bj07tOcRGNkIWgB98/5DrMgKirQgk34SKkoLP3RbomgRqKupiY+Kgrz1mnbpgVnjx6CqZQX8+vMHN+/eZ/OSSzdvslX6Zg0bwM62DzQ10jYvIVFlztJl7PgbliyUqZ8GJ/lMmDsfC6dO5hEYnLRDERLlSpVkhpu3Hzxk5pmyxszEBNUqWoqtKPLkNsWBDWvx9OVL2E2ZhuDgEHGL8GX4+zf09fS4eMHhcDicdCcsLByeXt/FVuqZNNcePr6+YovDyRmcOHsWDWrVSFY1h5jDOhrjdW7dUmxxMju0SEBiBZW+neO4HB0HDEb5ho0xeOJkFjmRT5hHTLQbiusnXXB63y44zJjKzP4ty5T+R7wg7j58hPCICFSpUJ61cwnjfkotnzluNM4c2IsNDgtx+/5DFp2RFr7//MnEs89fv+HgpnVcvMhASJySJ1zAyMZULFcWhzZvEC42u2FZtgxa9uyT5otFfMQnRujq6LB0EmUlZfS0G8HUV+LTF0+Y5zFj9zkcDofD4XA4mZNjp5ORPhIPlCLQv1tXscXJTFB0xIfPX3Dc/SxLzew2xA6WjZrAdtRYnL10maV9UNQ2Rd1QBI3j7Bks9bxy+XLJjuLed/QYE7Dimx9QX/GiRdCnS0e4X7ws9iafgMBA5svSZ8RoNO7cHWVLlsDGxQt5dcMcBhcwcgAUiUFhWluWLcaqLdswbvY8dgFIb1RVVLB01nRUEi56HfsPZqG8JGDkM+MCBofD4XA4HE5mhcZs9FOjSmWxh5PVILGC0rpPn7sAhzXr0NNuJCpaN0P3IXY4ceYsdHS0MahXD5w/chAXhJ+V8+ewioSUFq6jrS0eJWVQpJr7xUto27yp2BM/dapVxe37D1hlktfv3rPyp/cePxa3/sugcRPRsENn1GjRCifcz6Jd82a4evwoxg0ZlC6eGpzMjVwFDFL25DFx5sRP6eLFcWTrJna/TZ9+eP7qNbufnpD/xfihg9Gnc0d0GjAEtx884BEYHA6Hw+FwOJkYMu8knwJaBONkDbx+/MSZi5fhuGETS62o0qQF2tr2x6ETJ9miIo3FXfftwqVjh7F24XwM6d0TtatWgb6urniEtHP0tBsz6qS0kcSgiImaVSqjdsu2GDR+Epau34gO/QYxk9D4GD14ADYuXoRLzoexaakDWlg3ijd9hZMzkKuAsXHXHvj6+4stTkZAZjkO06dgsHDR6jFsBLtg7D1yFE4uJ+AsXHROnj2Hi9dvICTkf98KWdCtXRvMnTgOx4QvxPTw4uBwOBwOh8PhpB1auXd2dUPLJtZiDyezQQarF65cw8rNWzFg7ARUb94Kzbv1xJ7DR9jfr0vb1nDZuQ3XTxzDxiWLMLxfX9SvWQNGBgbiEWQPPe++o87o3LqV2JM4a+zn4fX1yzhzcC/2r1/D0lT8EpgnWhQqhEL586U6MoSTveApJDmUNk2bYP+GtSwi5smLl7h5/z4uXL2Gk2fOYfXW7ahp0wYzHJYw52G6IMmChrVroYC5OY6cPI3dh46IvRwOh5M4lDNL5l8cDofDSX+evXrNqsZVKF1K7OFkJH98fHHpxk2s2bYDgydMZlELVB1my779CA4JQdtmTeG0aT1uuZ7AlmVLMHpgf1jVqQ1TY6N4fSjSi3uPnyA0LAzVLCuIPYkT97VRlAh97jicpJBrGdXOA4fAcc5M5DY2Fns5mRXKmTty8hQOnTgFNTVVjBk0EI3q1BK3pp4qTVtgvYM9xs2aB6u6tVnuWswyqxwOh8PhyAoqsUcrekmFMyfFTIelGDmgH/R0dcQeDif7QuaOyspKGDN4oNiTOJSuQFUp6taIKqPKST10vXr84iUeR5cvFX5+/fmNUsWKsbKlZYpHlTClCoPyFCeSA3nsWRQumGoD14HjJqBdi+awrltH7OFkFe4/foLypUvJrYwqFzA4iUKlla7eus3q+/bu3BH9unZJ9QWToj1IwHh84Sz++Ppi4NgJyG1qgkXTpjDVlcPhcDgcDoeTcdC4r3artti2whFFCxYUe2Pz7fsPbD9wkFWnoJSEaAGjTvVqbMz48NkzYVynyrZzEobGxeT5EC1U0I/Xjx8oYVH0r1hBtwXzmWf6xT4y76zbpgPOOu2Dgb6+2JsyBo+fxLwtmjdqKPZwshryEjD40jcnUeiCWatqFRzctJ7Vh5620IGtaKUGchmmFBISQMgwaMfK5QgXjkWlkHh9fQ6Hw+FwOJyM5ea9+8IYTS9B8YKg1ISL124w34VZi5ciNDSMpZ007doDvYaPQtUKFbD7ME8VjklwcAirsrHjoBPGzZqLJp27s0W9BStW4cPnz6hZuRLzhLh35jQObFiLaaNGoHXTxihcIH+WiFQmz5S61aumWryg+cDtBw9RrmRJsYfDSRguYHCShZmJCfavX8tUd1LaU5Ojduv+A1QqV1ZsgaWmrJw3B6WKWaDjgMEsbYXD4XA4HA6HkzG4uLmjVTLMO1ctmMNu9x49hhv37mLllq1soYrGeWVLlmDbcio0RqZoij2Hj2LSPHu06N4bFRs3ZaloL9+8RUXhd7Rk1nTcO+OKw1s2Yta4MWhv0xwWhQtBKQtWfYky7zyWbPPO+Lj76DETxvKa5RZ7OJyEkauA0bRhA2iqq4stTlaD8iGrVqyAa7fvwM8v5dVkqN5z5XLlxFYUpCpPGTlcuOi1RMcBg/D4+QtxSwYQ9By75s/H1mfyCX/icDgcDofDySzQxPv0+QtobpV0CH/BfPnQuF5dlnJCXu8hIaFQU1XF5BF24h45A4pKpjSQ/c4umGrvgNa9bWFp1QQT5y3Aw6fPULp4McyfPAF33U7BefsWzJ04no15afFORVlZPErW5v6TJ6x6YdVkmnfGh9uFi7AWPk8cTnKQq4BB+XG8/E3WIyIiAkdOnYZVxy64de8BTu7eAUODXOLW5EFfcLcePECl8rEFjGj6dO6EaaNGsnQSj2vXxV75Ev7lCg6eOIOb7yPEHg6Hw+FwOJycAZXRp3KVFHWbHMYOGQjlGBEDFHmRnaMvaDz88u1bHD5xErMWO6K97UBUaNgYo6bPFMbH91G0YAFMGz0St11P4sSu7bCfOgnd2rVhvxNVVVXxKNkPir7o1KplqlNdKILDzcODm3dyko1cTTw5mR9S34+7nWEuyBFSKTNjcXE/wyJnxg8dnKAAkRR0wR84diLOHz4g9sTPnYePMGTiZIwZNAAdW9qIvfIh/NVmtOu9B2bTT2BtYzWxl8PhZDQkgE6YuwAO06eIPRwOh8ORNcOnTEeNyhVTlAowdOIUuHtchIqKCvasXcUm6+Rn0LhLd5w9uE/cK+tB3zvvP33+32Dz+XM8e/kKRoYGf8016aekhQW0NDXER+U8aL5Qu1U79rc2yJU6/wvPb9/Qpm9/XD9xLNNVVuGkDG7iyZE7T168ZKFvZMTz8csXfPX6jt8+Phg1oD/2b1ibavGCoMiN5Dy+Ytky2LduNdZu2wnHDZuYKitfJMJ/HA4ns0EpaBxOSnn38SOGTZoqtlIPeThRiDSHk13xCwhgERhN6tcXe5IHRWFIhbEamU1GR19QpEKAny+cnJwwY8YMNGvWDH379mXbMiM01qRx73H3s6yEbLchdrBs1AR9Ro5m4oyxoQFG9rfF5WOH2UR92ZyZsO3aGVUqlM/R4gXhfNoNtatWSbV4Qbz7+AmF8+fn4kUWpt/oceI9+cAFDA5Tyldt3srSNwb06IbtKxwxfcwoTB01HJOGD0OjOrXSfFGhwV+VCskTQCiv0mnTely8dh3jZ89DqJzUPA6Hw+FkL6TSSAQGB4ut1LNw5Rr4+qfc+4nDySrQRL2qZXno6eqIPUlDE391FRVULlsaxfOaoXfv3qhYsSL09fXx9dkT7Nq1i0UyNGrUCAcOJB6BKy/oNdOKv+v5C1i8Zj2rmlLRuhm6DhqGE+5noK2thYE9u+Pc4QPwOOKEVQvmsrFx9UoVeRp8HOh3ufeoM/P0SAskYBTKn09scbIir969E+/JB55CksMhx+hxs+dCV7goL5g6CbmNjcUtsiNIGDzWtGmD47u2JTuvkggMCsLIaTMRHBKC1cIXiLaWlrhFlkjx5/pGjFx3BV4Bv/Hxkw9UjPPBVFMCiUY59G2jgKMexhg3ty3UL+/BBudbeO2rjILNhmC04SWse10KQ/vVglm0FBjyHHuWHcXv2v0wuIZh8hVCv2tYOM0DBbqUxSsnF9z+IYWuuSXa9OyG1kWj33c4vG4fwqr9F/FY2G5cthns+tugNH2fJuvxHE7WhAbADdt3TjIFjcOJy5v3HzBv+UpscVws9qQOynVfu2g+jAwMxJ7sCYXM9x05GusXL0y0jCYn+0GLWO1aNEeLBAw8AwIC8OTJEzx8+BCPHj36+0OT2FKlS6Nc2bIoU6YMygq3pUqVglaMMRvtkytXLrx8+RJGRkZir3zw+vHzbwoI3T4WfiQKEpQtUeJvGggZbWb3czs9ePDkKRunn3Xal6ZSr7OXLmPzg37duog9nKxG3TbtmeAnrxQSLmDkMH56/8LN+/dZreU7ws+Hz1+Yt0WXNq3SLXTr0PGTOHXuPDYtdRB7kg+FIdKFjV4vPV72AksE3jtNROcVN+EdGgF2MggXYQXhd6GWpxXsu3tjykJPNO9mBPddV+EtFbYrasGi4zTMkaxC1/1qGLxtI0YWjTKxCr23HE2HHUaugTuxr2c+KLLepAm544gmw4/BW1mKwOD/TUQl+jUxd9N8dMqjCP87q9Fx9F68/BvFLIFB7Qlwsm8B4/tJP57DyapwAYOTWriAkTKcXE4w3yv6fSkq8u+NnAKNDa06dcXV40cRKVxvb9y4AQ8PD3btjRYqPD09Ubx4cSZQkFAR/WNqapqs8WOdOnUwc+ZMNGjQQOyJDQkNJkaGYit1eP/6jceiUBEtWISGhv0vVIi3pkZGPF1BBkycuwAF85mziJW0MGjcRLRsYo1mDeP/bHAyP/IWMOSaQkITWcqx48gfMtmhvD7rzt1w9JQru3hTmsiNUy7o2rZ1ul7I97HwstTVhqYB1Myxo9GqsTU69huEF6/fiFtkhSIKtHfA9YseeH7EDlWUlFBzzFE8v+KBhwdGo3H5EigieYdDe67C17QOJizbg1sXTuLkiJoo17QhiuEtXN1fIpwdKwIf7j3CF+RBxQq5ky1eMCKlkEaGQ5K/JRx3n8STM/uwuX8lGPhcx0anJwiV/sTxnUfxSrEY+jocwH33nVjUxAw+V3dg6/2QpB8vPg2Hw+FwOAnx5sMHltfPxYvsDy0QvXr1CocOHUL/QYMQ/tOLRVEYGBigbdu2mDVrFtuva9euOH78OHx9fXH37l1s27YNY8aMgbW1NXLnzp3s8SOJHSSExMeBY8excNVqsZU8/vj44vKNm1i7fQeGTJzCjCQbduiMTXv2sbSx1k2b4MCGdbjlegJbly/F6EEDWJULWgjj4kXaoXkFldxt17yZ2JN6ChXIj1dv5ZuCwMnayFXAOOhyHP5cwJAbpJyfOHMWuw8dQaOOXeDr7wfXfbuwYfFCls9HhpmqKiri3ukDCQ5kBlqvRjWxJ+XQFw293vHDBqPHsBG4euu2uEW2KOpoQ1MSiaDAoKhIDOozMYe5RgTCpAZoPnwS+lfLB33lqNNGqZA1bEor4u35M7hPgqP0D24/eAdprvKoYZGKiCOJGmp2HQybwjpQ1cqLur1HoIcF8PnubbwLfIKbT0ORp+lgjKltBi3tgmhl2xJl4YUbt8SLfmKPj1JYOBwOh8NJkHcfPjIzPU72wsvLC2fOnIGjoyMz06xcuTJ0dHSYCLF9+3YUK1IYUyZOwJEjR5hQ8enTJygpKWHSpEno0KEDi7ygdlqIT8AgDzaKsp083x65E0kxpsXP63fuYuOuPaxSSv22HVG3TTus2baDCRnNGtTHzlXLcdf9FLulyOKmQl9es+QLLJyUcczVHbWqVIahQS6xJ/VUKleWeeVxOMlFrgIGR75Q2saIqTOwZN0GbFu+FPMnT5R7+CvVhu7QskWav/gIG2srrJw/ByOnz8SRU6fFXhmipAFNVVKV/f4KGFAwgLG+cJqolkLNSnHMmxTzwqapJdQ9L+LYvWAg+BFuPQ+DnmUVWKaq3LcilJVinJKKZiicTwOR3t/xNfA3fgVJkFcYWEZLI4rGeZBHA/jt/Tu6J+HHU+oLh5NFoQHoyvmzxRaHw0kvKAKjUAFuppdVCQwMxK1bt7BlyxaMGjUKDRs2hLGxMUqUKIE5c+bgzZs3qFq1KlasWIGvX7/i3bt3OHbsGOwXLEDnzp2ZdwWlfJN/ha6uLp4+fSoeOe3EFTAo3aPjgME44OwCRQWFvyv55H9GVae27tuP0TNmwapjF9Ro3gpLhbHs1+/fUb9WDWxcsgh33U+zsq1kNt/CuhEKmOdNkw8DJ/kw884jaTfvjIYWVB8+fYawcL7axkke/EzPxpS0KMpMuFo3sUaJokXFXvnx/edPuLi5o4NNc7En7VS1rIDda1bCcf1GrN66nV1EZYZE+MLWAvx8fPDXRUJBm/Up6BnC9J9gFQWY1m+COlo/4HriOn4+u4d7/hqoWM0SsrHNDIaffxgZyEBVRQPqSpH47uUlpqsISMMRJrxQDS1NsSMuMR4v9nA4WRESMEoXLy62OJzkQ872GxcvFFupp2bVyukesZgZ8A8IhIpy9n+fWRnKMX/8+DH27t2LyZMno0mTJkygMDQ0ZOkf/fv3x4ULF2BmZoZx48bh3r178Pb2Zp4Wq1atwsCBA1G9enUWgZEYdLyEUj5SQ+nSpZkJKEUH33/8BI07d2Pl+8monUQTiqZo2qUHqjRpgfkrVjFD2RqVKmHV/Lm4d+Y0Dmxch+mjR6JN0yYoUrAAT3PKQMhbhCLqa1SuJPakDV3hs0jRMk+evxB7OFkNinySJ1zAyMZQOdL1i+2x0+kwlqxdj8ETJqNVr76YttABbh4X07WmPQkLU+0d0K19W5iZmoq9soFEGSqzSiWwpixYKDvFVkEfBrqA758YAoZEE1rqEkiUlKAcXxSibk20q2eAP5ePYePZB/iqUhp1q6RWvgiH9zcvBLH7ofC8tAU77oRAw6IUimuXQpUSinjvtgdH3tPfLQKewt/wXog2ypQpxB6R6OP5eJTD4eRASPySxURn1IB+OaKEYp3qVeFx9ZrY4mQkNI76+PEjTpw4AXt7e3Tr1o0ZaJLw0L59exw+fBhqamoYMGAAnj9/zkQKSv+4f/8+duzYwcQLEjfy5MmTqjSK/Pnzs2PJCorooEok85YsRft+A/FHeK3kw0HQOC5/XjM4zJiKu2dO4/CWjZg1bgza2zRn6S2yiOLlyA7ytuvU2kamES95hLnCd+EzzMma5BOuM/KECxjZHPpAkXeERLjING/UkKnX+fPmxY79B9GgfSfscjqMkFDZWzwePe2KL9++YWifXmKPbDE2NMSetavx7fsPDBw7AQGBgeKWNKBkBFMDRYT99oZ3tIKhoAEtDeE0Eb5k/4oasVBHdRsrFAy+je3Ob6FYohrqUMpJaogMxvWVfVCnbTdYt2qFhuMO4blSSdj2qg99xTxo260pzH9dxNRe7VC/Q1s0nX0OPkVbo3dNUTBJ7PFRe3A4HA6HkyBWderA3eOi2OLIiz9//uDy5ctYu3YthgwZgtq1a0NfX5+leyxfvhw/fvyAlZUVtm7dil+/fjHB4uDBg5g+fToz3KSICkoV+fLli3jEtEPPTekosqR0mTJ4+eIFNNTVoaykBE0NDdZPQsbBYydYRQsVXrUwU0N+JKfOXUD7FrKLriZ8/f2hmwNEYo5s4AJGDqB/t64YPbA/q+1dsVxZVmd515qVWLfIHu4XL6HzwCGsfJWsoNSRBctXYdG0Ken6RaSlqcFq1ZsYGaHr4GHsedOGOgoVMIUaIhAs9gDKMDc3R+6iRZA7gbNFpURztC+tjPAIBZSqUQ0mqT2rJKooWaMS9H098dlfFYWrt8WcFQ4YUjIqAUS3ph3WTGwJy1xh8PIKhVGlzlg8rzfKReeHJPF4DofD4XASg0z5Hj9/gd8+PmIPR5ZQhMT58+dhZ2eHiRMnonnz5siXLx/y5s3LKnvcuXOHGWbOnj0br1+/Zj4Vbm5uWLJkCXr37o2KFStCXZj8x4X8JagiyMOHD8WetEPRG5SqIkuoyknRfOZ4eN4d104cg/3USWjdpDFy6enB08uLRWbINDWYI3OOu7mjeqWKMvfU8/Xz4wIGJ9lIQkND5XKloPy2Y65uaFCrFpt4cjIH9EWxZut2OG7YhItHndKc7kGDnoHjJrKLG4XcyoPo97D/mAu2OC5huZHyJRyP19mi/U4l2O3cgKGFxHBlX3cMbz8HJ30Tc9BUgLHNQrg2vooWI9xRfvZRLG+oJm5LPiG3l8A6DY/ncDgcDocYPH4SrOrVQdtmTcUeTkohn4qXL18yD4noHxIXKJKiSJEi7D75V1A1EBIfChYsmKZwfPK2IOPOdu3aYcqUKWJv2iCvChJLPn/+DCMjI7E3bezZs4dVOqHokbi8/fCRVRqpUKZUhvi2cZIHpaKPGTwQdapVFXtkQy2bNjiwca3M08458oWuffJArhEYLRtbc/Eik0F5kUP79oaWhgZevHkr9qaO1+/eo13f/sxNeLhtH7E3/Yl+DyMH9EPXIcNw857scjaTRcRnXLr1AShUHfXzxci11qmJ8avWwmnTOhxM4Mdp0xY4jaoOblHB4XA4nMwAGeoFBf0fh5hWqFQmRXXcuHsvXVJWMxJaQKEJ/qlTp7Bo0SL06NED5cqVYz4Vbdq0YRN1WsDr1asXi6SgCIwHDx4wLwgqT9q6dWsULlw4zV4CJIL4+fnJ1HSTXhOZgsrymOThkdDxyHC3a9vWXLzIxJB5J3mXUKSWrMmlrwd9PT2xxeEkjlwFDE7mpUzJEiwfMTXQF/j5K1dZGsewvr0xYdiQDHGHptUix1kzMGzSVBx3OyP2pj8RHz3g/iISBavXhEWsX6EG8lqUQvnSpVEhgZ/ypYvAjGt6HE6i0Epg31FjxRaHk3zosxMqpxWh7MLLt29RvEhhsZV6aGzgdsEDTbv2YOUwF6xYxVZZr9yUra+CvCDx4erVq1i3bh2GDh2KOnXqMCGC0jooxYPSPerXr4/NmzczQ02KwDh06BBmzpzJIiMsLCz+jo1kLQyQgOHp6SnTFBKCIi9k+TqLFSuGDx8+ICgoym6ck7Vg5p2tWqZLuVrn7VugrsYjiDnJgwsYHIa2lhYz5kkJnt++Yd32nWjWtSdmLXbE2oXz0Vas451R1KxSGTtWLoP9ytXYuGsPG0ClLxF4f/EKnkXmRd06RcB9sjmc9OHdh4/iPQ4n+bz7+AmDxk8SW6mHKncFBcsuKiGzQmaKr96+g0Xh6OpWqYO+e6ctXAzH9ZswdeRwuO7bjaPbNmO1/TyMmDoDr969E/fMfPj7++P69evYuHEjhg8fjlq1ajHhwdTUFCNGjMDNmzdRtGhRzJgxAy9evICXlxfOnDkDR0dH9O3bF5UqVYKGaE6ZEOR7IcsKHySk6Onp4e3btzKtMEflWcmXQ1ZQNAr97p4+fSr2cLIKVGL55NnzaN8ifcb5qamUw8k8tO3bX7wnH7iAwWFoa2nCT/jSToqrt24z009aUWnZsy8+f/2GORPG4tyh/cwgNDNQvGgRHNy8HkdOncbMxUv/lulKF6S/ce3Oa0jz1oB1Me6czeFwONmRDTt2CwP4lIn8WZFPXzxZKDctaiQXShGJi8OadXgiTO4PblqPujWq/52cVKlQHnb9+mKWw1I5LDAkDr3uZ8+e4cCBA5g2bRpL5yhUqBCr5kERFleuXGGlRKnSB5XxpEk3VeUgr4mRI0eiYcOGbN/UUKVKFZlX+KD0DDMzM1ahRFaQeCNLAYOgaBFZRnVw5MNxd3dUq2jJqgDmFCK+XYD9+LEYvfshkp4h5Wy8f/8W78kHLmBwGPq6uvj5K+kPHxlkjhrYHw7Tp+LqCWfMnTgOlcqXS5dwsrSQWxhU7F+/hplCDZk4OR1XzhShl8sEFRpboWwa9AtFTV2YmFdC9SKpO0haH8/hcDgczrtPn2BmYiK2ksf6HbvEe1FQZOb5y1exZdmSeH3PurVtjd++vrhw9ZrYk76QUELpFa6urli8eDF69uyJChUqMJ8KGxsb7N27lwks3bp1w8mTJ1mqCE3at23bxiqDWFtbM6HiyZMn4hHTTuPGjWVe4YOEAYrEkGUaSYsWLVg1FErFkhVcwMia7Dt6DJ1btxRbOQO/myew8+J1nDx1Ex//1Wk5GQgXMDiMkhZF2WpJUpDyWtWyAkoXL5bpa3XTCtJmx8XQ0dJGtyF28E6GQJNiFPTRYuZe7Otrkab0EaUS/XBg31x0zp8675C0Pp7D4XA4HMsypfH89Ztkf1+SOEBVzG7df8DaTi4nsN/ZBdtWOLKFkfigaIZ2zZvh7KXLYo9soRQKSv+gUqX16tWDoTBuIWPNhQsX4tOnT8y7Yv369awiCE3OqSoGlS0lU00qYUqvLy6UPiLLSTdFNgQEBODXr19iT9ohYSA0NFSmr7NAgQJQVVVlqSlpgd4rpd6QP4iTk5PMozo46cvj58/x68+fdDHvzLxE4PcfX+FfASVFKPEMl0yFXAWMzXv2wcfXV2xxMhNlS5TAw6eyCzvMLJDIsmj6FNSqWgUd+g/Eu488j57D4XA4nPigCiTW9erA6fgJsSdxfv3+w26n2Tvg7fsPWLhqDTYuWQQTo8TDzKkEo8e1G+mSRkICxIABA5hRJpUUpciJ79+/49y5c1i+fDn69evHUjg0NTXFRyQNiQOyTPkgTw19fX2Zig30Gv8Ik0xZRzdQVEdyj0kpu+QLQiIFeYS0bduWlY0lM9CBAwfCw8MDnTp1YsamnKzDvqMu6NTSJkMM+jOOSISFiWEXqqrg9qKZC7kKGO4eFxGYA0ywsiL5zfOy/N50iVLIYCg0dPTA/hjQozs6DxqKOw9l++XO4XA4HE52oWub1th7xDlZaQOfv35laSJfvn1DrxGjMahXd5ZqmhSFC+Rnt2/ef2C3soQmWVQZhNI0rKysWPREWg0CKZLj3r17Yks2UFqKLMUGMtwkQ1FZVyLJnTv3P8ck4emb8Dd3d3fH0qVL0bt3b/Y7p7Scpk2bYufOnUzM6Ny5M1xcXFhaDv3+duzYgXHjxrHfJydrEBAYiBNnzqJdi+ZiT85BKo0SWCXKalDnERiZCp5CwmHQl3spi6KsxnN2hXL3Fk2djEHjJsL1/AWxl8PhZHbo+rR7zQqxxeEkH0UFBWjH48PASZiyJUtAV0cbl67fEHsShgQMCqIgn6mfv35h4aq1KFKtFvvZsHN3gibadE7XrV4Vl24k/RypQdY+C82aNWPpJ2EyLMlLZVVlmUpBqR6FCxeGj48PfsvQUI+OuWfPHmzatIlVYWnQoAETX0qXLo358+fj/fv3qFmzJlavXs1EDUo3cXZ2xty5c9GxY0cmrMSXlsPJGhx3P4uqFcrD1NhI7Mk5REeISVRUoMZnzJkK/ufg/MX79x/o6eqIrewJuaFvXb4Us5Y4Ytu+A2Ivh8PJzNBkx8zUVGxxOMmnQD5zLJ87W2ylHhvrRlBTyxlBxHS+UbWBu4+TNq387PkVwWLZTprcK4sT1RH9bWHbtXOiIefVK1XEzbuyKyUaE1kLGOSjoaWlxdIjZEV6VPigSiRUojU17z0wMBC3b9/G1q1bMXr06L/RK7t374a3tzcuXboEc3NzTJgwgUVkkIfI+fPnsWLFCvTv3x/VqlWDtra2eDROdmHvkaPo0qaV2MpZKAjXQnarrJImn7ucwIldO8R78oELGByG14+f+O79E2VKFBd7si9kQHpgwzrsPeqMectWyNRdm8PhcDjZj16dOkA7BZ4JWZ37T56iYtkyYith3nz4wKIsKNJFVVUF3dq1xf2zbrCz7ZNkvnxBYaL94csXsSVbZC1gEOSpIcv0jObNm+Ply5cyr/BB3h6JvU76e7169QqHDx/GrFmz0L59exYNQu/P1tYWZ8+ehYmJCUaNGsV8P+j1/fz5E9u3b8fYsWNZag6llZDQlRD0HJPn24stTlbl8fMXbHGTfOSSROqLJ25bMWWCHdr37oPWgydi6s5r+Bw3aCngDY6umICWNo1RsmY9lLfpA9tJw9GwYUv0PShcT9hO4fC8dx4ebz/i/IaJaNqsAYrXboIGg+yx73kg28P3qTOmDe2CynXrokSD1mg5bh1OfYwSU2MS/uMedi6bjl79bNF6wCgMW7QLrm98kZyzTqIQ9RlXVlFOcMLs+/Ik5o/ti9qNGqBYrcao228uttz/Hc/x/fD0+EoM6NUWFeoIr7lhe3SYtR+3f8fY0+8yprS1QtPVd/DomD06tWmM4tVro0Sjdmg1diUOv8q8xVzjqziVnkhCQ0PlUohbWVkZnQcOgeOcmazEJSdzcfjESZy/cg0r588Re7I/ZCg7aPwkGOjrY8nMaSz8ksPhcDicnAzlvFdr1hI3TrlAQ11d7I2fqk1thAnOb9SrUR0zxo6CuZmZuCVp/Pz9UaNFazw8757oZDg1UCpDqVKl2MRbVseuX78+M/+kaiaygqI6SGgpWLCg2JM2jh07hokTJ6J27dqs0gqZl9LxSdB48OABbty8iQ/v37MUEBI7KGKDbumHRAwaq8uC8PBwNO7SHWcP7hN7OFmRaQsdYGJoiGG2fcSeBAh4ju0zp8D+khdi6xWKyN/GHocnVAerSRT+DjvG2GHujT/xCggq1cbhyrJW0Hm7E537bMAjBTUoBAUhVNxOKOjXxLRJpXBy9kbc8o89hVUya4plGyahiWGU3CD9fh4TBs/EkS9xUtmUjGE1ZgmWtykIFbHrXyLwautA2Kx/Ae0m83B5Zh3EnSUEPduBPsM34rZf7Nch0SgFuxXLMLx09PUzGI+2j0avdQ/hG2tXCbRK9cHWVX1RQdg15NpCNBjjgh8GJjD+5YVvcV62RMcSk9cuQZ/CmbcKpCzT7BKDR2BwGJdu3ELNHFUeKcptnUq9KSoqoIfdSPz28RG3cDgcDoeTM7l9/wGLVExKvCBqVqmEHSuXYdNShxSJFwSVOldRUf5byUSWUASBgoICPD09xZ60U6lSJZlWIiFSUuEjIcjz4sqVK1i3bh0rH/vmzRts2LCB/Q6oLCyViKW+4IhI1GzYiIk75FtB5prz5s1jRpsk9shKvOBkD6LMO8+hvU0LsScBpD44s2waFpB4oaCF/OVqwqp2eRTUpgisCHxwPQI3b5IrpPjpvgkrb/6BVKKFwjVsMLD/AAxra4ncYn5GZGgIgoRdw799wZewSISTeKGaF/U69MXo/l3QorgO8PsKZk8k8UIVBWp1wPD+PdChshnoahXu6YbFux8hKg4jGNe3r4EziReKOihcvgas69dERTN1SMK/4+w2J9yKqYzEg5IYRSYR5gn/EPEBu5fvZOKFgk5RNO9qixHdG6O8gSIiA59gwzInvBSLmES8P4L520i8UICeRQPY9rdF/yalYKQYCf8nuzH/wFuwXYXJv/C2If3hhW8KhrBs0hl2/bqhc+0i0BdeSqTvPazZeBY/4lN/chhyFTAG9+4JXZ4flyl59fYdihcpLLZyDqoqKnCcPZOFynboNwgf0ymclcPhcDicrMAMh6W4df8Bdh86ghDR3yIhlsycjhqVK4mtlEOixycZigzRUNSFrNNIyBNC1mkp8VX4SAha2Xz8+DH27t2LyZMnw8bGBgUKFECePHmYZwX5VzRq1Iilhpw8eRJ3795l3hVUunTlypXwDgnF0IEDWKUQDicpqPJI5fJlkzTvjPjgjLWnvyJcmHBbTdyAk+sXYq3DKpzYbIfa2hIg+CXuvaDpuR88zt3C70hllOyxGIeXTsA4254YOd4eM5sYRk1IlZRZRIRSblMYs8ApRRTrMhNrxvTFENuhWOo4Gk30JYiURkKpcAcsXTACw20HYsHydXC0MYMSIvDp4nk8oCCAkHtwuegFqYIBrIbPw5Jh3dDZqjoqm2uBDq2gqQPtJGbBfwWMeIK4wt+egcujIEC5MPouWo3lw/vAbtg07F7aC2VVhbf97CQOP6UXEo5X7u64J+yqUqQT1q6djUm2fTBh5gps6lMCqgjBwxOnol5zNMoF0WPRFuybOQwj+g3GXIeNcJpYB8YKkfh9zRWuP7mCIVcBo271aslS9DnyJ795nnQZRGQFaJVmwrAh6NWpPToNGIKHT5+JWzgcDofDyVmsWTgfq+bPxYWr11DBqikatOuI7kOH4/Hzf6uUJZaeQd4JwcGJCyD5hMl3WsceVCngp/cv3H30GEdPuWLl5q0YN3seApVUZepZQSkkFO1AP7KiXLly/0R10PuhiickQlC6Srdu3ViqBwkP5FdBAgUZyvbt2xdnzpxhJUpv3Ljxt0oIeWtQKVMSNqL/Pk9evER4eATKlyrF2hxOUuw7egydWydl3imF141beCZMvlVKd8D45vn+plmo5GuMlhXUWITGtx/BQNhbPHkrXA8ULdDcpgT+dxRSQ9ni+UFSgURJCSrCzFTR2DQqKkOig9Kl/0/zUNCvgrql6RkUYVaxKopHBw0p5EL93u1gKewY8e0lHv6IQMSPd3jzS5joS73h7miH1v2Gou/kxVh34wekikZo3Ks1SifqzCmBiooSEzvo3ImLjzBXeC10a1XriP5l//d/UC1qgzZl6IV44u7D70KPHx48fY9w4R3X7tQVFf++cVWUaNkk6jV/eYy7Xv8/h1LBuuhYOVeMSboy8jfphtb5hN9S6HPcepz4dTUnIFcBg5N5KVqwIIvCyMn0aN8OsyeMhe2osTh76bLYmzwo7/T48eN/Sy5xOBzZQROh1r1txRaHk3xCw8Lww9tbbHGSQ0mLomjSoB42LlmEO24nsWnpYjSqXQt2k6cz34rk8P7jJwwcNxER0n8H/jHJa5YbH78kLWCEhIbi7YeP8Lh6DTudDjEDbiqJ3qxbT5Stb4WmXXtgruNyJrpQpEKVCuXQuE4tmUZMUIqFvr4+i4KQBTReoCgREirWrl2LIUOGMO8KSishr41ly5YxDwuK/KDKIL9+/cLz589x8OBBTJ8+HW3atEGRIkXYIkxSHHN1g01jK5n5gXCyN09fvsL3Hz9Rp1pVsSchIvD563fhX0WYlSqDPFEBCyKqMDbQESaakQgNCYE04hd+/hauB6omyGsUc0cFqKmqMKEAikpR1T6U9ZBLR/hcS1SgqhrzM6sGIwNtNnnV1ddlokc0iiaWqFJA6In0wifPCEQGBSJY3PY/CtDIbYleMxxh39gkiUmw8LpU6HVFIjwkLI5nRzh+/vjF3ne+ohbQjXkgBV0UzqfPjv1TOH8R/gtev4T3rWiGEsWjXns0Cnr5UTAX9Xjj6/cYz6CgGOu9MZQLoWRBFeH9BeKr5y+xM+eS+N+Ok2MoWogLGIRVndps0DZlwSIWPpsc/IUBXa9evdClSxe26vHsGY/g4HBkjY+vn3iPw0k+n4TJ8YS5C8RW6jlwzIXlhOc01NXUUCh/PvTu3BG1qlbGVPtFiQr1tI1Wbht17IJ7j59AUyNxZ3oKT//+8yd73K8/f3BfeIyLmztWb92OicLfrevgYajdsi0qNGyM/mPGYeu+A3j55i2MjQzRplkTLJ4xDVdPOOOW6wkc3rIRy+bMxOhBA9DBpgWaW1vJTGyIxsjIKFVRHX5+frh27RrzprCzs0O9evVYadapU6ey0qOU/lGsWDHmV0EVQr5+/Qo3NzcsWbIEvXv3RsWKFaGeyghmqghy3P0MWgq/Dw4nOex3PoaOrWySrCQknPGQRkiFfwEVVZU4k8pIhIWHs20KdJzIMKFNDUmc/SLg/VusCiLsz2wpFPRgoCNhj4lba0KFebVIWER/LDlOKQ/ymyoBUj/8/iOFRFMT7OqjaI7WY+dg7RJH7N99GNcPrcA06wLMMyMpVNRVmZAQ6ucDvzhZG+Fi9SB6j7GRQFUtSviIulRGCOcg3YYjPK6/pUQV6sr0PsV2oihASTkqIiQk+F9pJqOp16aDeE8+cAGDw6AIjNfv34utnE350qWwf8NabNm3H4tWr02yxNmCBQvQokULlmtK5cXq1KmDkSNH4vfv3+IeHA6Hw8nKHHA+jsCgILGVM5kyYji+fPXC3GUr4hUxqBx7tyF2LDqCJj7zJ40Xt0RB0TDvP33GpRs32QKB/YrVOHTiFFzczqB8Q2s06tAFMxcvhduFi+x3Td/FVI5177rVrFLJWaf9zHh7zoRx6N+tKxrXr8eiRRIqb0vGlC9evGAVMWQFRTyQt0RC0HM9ffoU+/fvZ+JEq1atWIURU1NTDB8+HNevX0ehQoXYNtqP0lEosmLz5s0s/YPSVEjYkCU37z+AYa5cKFKwgNiT/tDf33HWDLHFyUrQuUfnZHub5mJPYijCyIiiDaT49vEzYl8hQ/DrT4AwN6dUDGUoKKhBjaIpgn/ByyfmuDoAD59FlU+VBvjBh+5INKDJFIZQxM1Ck0apAVBQipv/oQgt4UEShAnvIRyKBuYwJw8OqR8iDarCqmZlVCxsCA028w2D583D2OT+Rnj2hFHQ1IIWHeLnd3yNelpECNexCOEdGxvS+47Al1cvQZkq/yPF7z9+wr8SGJF/iIIBTHIpCg/8hqcv41RfkQrnv7/QI8kFU6MkpuQRX/H2cyD7fWrrspoumYrI5KkwMoMLGBwGKYiqKtGZa5z8efPg4MZ1uHXvPkbPmM3CV+Pj3bt3rFSZvb29cIFWYXXTaVASHBzM3L8pLFSWgycOh8PhcDICNTVVbFm2mH0vDho/EVPtHTBq+ixWRvWYqzusOnbBnYcPESR8/ylIJCxSYvJ8e+afUbdNe5Srb4Vew0diw87dwkD+JfR0dVDNsgJKFC2Mi0cP4a77KRzdtpmVcx83ZBA6t26J6pUqsjQTpX8mK0mjqakJMzMzFtEgK2rUqMGiJUjA+fLlC06fPg0HBwf06NED5cuXZz4VrVu3xoEDB9hr7tmzJ1xdXZlPBXldbNmyhY0TyGyTqoTIg2Ono9JH5AmlqpQtWUJscbISJ8+cY8b2Zsn6fCrCvExJmClGwu+GM/a9iTFW9nuA689jtBVNkZcm6eHPcdbjKxMsCP/HB7Hzhn/U9NffL6rMqEQTmuoUmRAmjL9jT4zDRAEjPhQUKD4hEuFhYYBySVQuqSY0fXD5zFWwQiiE1Ad3dk5Ch1FLYT/LHtveJXw8RUNDUIZHxNfXeOobDk/XWajfwAb9j3xHrgrlUVy4LAXedsLam7//ChPS39fhetsXkYpmsCwn/A4V9FC5QmEoIwjXD+zE5b9qhxTe1zxw3ScSinnKoKLp/9EukSGB8I81dQjFB9ct2PtceK2K5qhQWk/sz7lwAYPD8PTygpmpfL5Mswq59PSwc9UKtmrUZ8Ro+AgDkLiMGzeODUbILCsaCjGlcmY0aKFVGEtLS5w7d07cyuFwOBxO1oQm5e1aNMfZS1ew76gzS/cgL4rRM2axlduIiKjBuVSY4H/39kbp4sUxsGd37Fi5HA8vnIHHESfhe3U55k2agEG9eqB21SrCpEORlTVPD9JaiYSEiuh0jsWLFzPB4v79+8yngr7bqY9KtVLkBJlo/vz5Ey9fvsShQ4cwc+ZMtGvXDhYWFskIxU8faPHF9YIHWlg1Ens4nMTZK5zXXdokZd75PyplbdC+uBoiA+5hydDBGLpkI1ZuWImRdgvhzOp9RiI0NAxSpQKoVIaMKYNwbe1YDBb2W2I/Fq2Hb8M9MTuPIjBYqoaCMlQotUKY5IfGWkD8P2UlPsJYjorwOHqogh4aNq0OA0kkvM8vw+AFG7F8tQMG9+2B7quvwytCEUZVm6OxecLnplK+4iipKxws5B62L7THmBVn4RkWiLdvPKGYvwm6VteFJOwddk4cjL4L1sJxzUL0GzAPR79LoV6qOdqWpHQXRRRu1hp1heOEvj2EoQPHYMrqTXBYMB6dZp/GV6kayrVoinLRhqQCEe/2oW/vcZi6ZgtWrFuOccN7ofXcc8K+EuhUaosOFikXdLMbchUwlqxdz3IcOZkPz29eyVRbcxa04rRy3myUsCjKKpR8+fpN3AKcP38ed+7cYeXL4oNWY2ifGTNmwNbWlg1k3r59K27lcDgcDidrQBN5KqvYoF0neFy7jmWzZ+LRhTN4dvkChvTphQa1akJVVSWW58WHz1/YRIhECopqVI4nikJTUyNdvUVSImCQnxVV89i4cSNL9yBRghYk6BiUKkqVQbp27YrVq1czrysvLy9WBcTR0ZFVBKlUqRI0kvD8kDdkelqiaBHkNjYWezichHn26hW8vv9IhnlnDJQKw3biINQxUET4nxdwPbgdy7fsx/Hnf8Qoi0jm2RAJNVRv3wZlKTUk6BPOCfutPXod74XTX69QIZgIM9LIAP+oCAwoQYnpCkpQV4uuQRJFuCiS/gtFXpDnhip0delJFGBQvxf6ldeCRPoHd122Y+VOZ7g//4UwiRaK20zA9nmtUSQxLUC9Mtpb5RVeRSheXzyNWxTGoZQH9WpbCIc3QZvhg9GIDEmDP+Oy826s3uGCi5+EN6RdDkNHtUe0zqBg0gQTh9WGibBr0Kdb2L9zG9Y7R713nfK9MK1joSjz0r9Ewv/9NezbsQUrth3EkZuf4CeVQLOwDeZNbAkqRpLTkauAQXXFEwrF52QsX0nA4BEY8UIrJ9NGjWCGRh0HDBLLkYUznwsKHU3MWIvCKEm4oLQSWq2pXLkypkyZwgZKHA6Hw+Fkdshkc8iEyVixaQvWLpqPLY6L0cK6ETP4JFGifs0a2LB4Ie66nYLDjKmsTVy5eQvbDzix+wlBgkd6ChhUfjSugEHf39HVPKZNm8ZSPgoXLgxjYZJPlUCuXLmC/PnzY9KkSeyxP378YIsRy5cvR79+/dg+5GmRFaDUnpaNrcUWh5M4+4+6oEPLFilO2VIt2h5r183GkLrFYKqhBCU1A5So1xsTWxZgE/Ng4RwnXUKlaDesmNsbVkUMoCE8h6ZhIdTpNBnbZzRCbokwbQ/xhy/zvFBCbjNTaOepiyYVYgoYCjAyNYJWrpKoXDR2RQ/apqevBy2z2rAqJz6GxJW58zGmofC6NFWgqm2K0jXbYIrjFhyc0gwWalG7JYwaKttOxMja5tBVVoa2eWXYznbApKpabKuieQssXTUDg+pYCMdXhop6LhSt0g7zVtpjQImYB1dEAZvp2Dm7B6yKCa9fOJZGroKo1X48djh0Q5k4r0OpiA3GdrKEuRYdUxd5i1VG+wFzcHD9eDTNzdULQhIa1941naDyU50HDoHjnJlcCc6EHDp+EsWKFEbp4sXEHk58nDp3HtMXLkaDKhVx49JFNqhJSVkyypmdOHEiSymhFZ3u3bsnqwQah5OTodXfkJBQFhHF4aSET56ezHOBjB/TQnvbgWzybmRgIPZkf+i8O3ziFBauWsP8KIb27Q1VldiroQlB6SRHTp7GgydPMXH4UJaSGR+e376hY//BuOySvKpfKYVMPMmPihYbSIygHxIvyBuDIiti/pBBZ2q8NjIrVPKWKrh4HHVKtxQdTvaBvGtq2rTB8Z1bYSYTgS4Cr7YOhM36V8jbZSVOjiiLBK8eAQ+wdeUJvDWoAds+9VAg+5yGKSLk4lzUnnAavsVscWxTn78RHFmBxp27wXXfblbGWh5wAYPDSSEXLl9Bz379cWzfHpYmkhrIiZwcxwla1alWrRq7z+FwOJzMh/NpN1jVrc1K92VnSLSgimTnLl3B6fMXWLSC/dTJKFXMQtxDtpC3VN02HXD/rKvYI1uohKi1tTVKly79V6ig6iRaWlErqNkZWpg6c/ES1i5KexlhTvaHPi+0SLdpqYPYk1Yi8H7nUDRZ/RQGrR1wbmJV8CWIxMnKAkY08hIw+NIvh5NCnA85oVm9OqkWLwgSLKgm/NChQ1mKCTmYU3QGh8PhcDIfrZpYZ2vxgsyq127fwTwu+o4Yw4y9Rw7oh8NbN6WbeEFQCglFa5Bwkh5QCujZs2f/pn9UrVo1R4gXxDE3d7lXH4mGhC8yd+VkHciUt3Pr5Jt3JoeoCOUoDwwOR5ZwAYPDSQFk3LVr1y7MmTNH7Ek9lDpCJdYonNXc3JytDFFVk5CQOEWvOdkW/4BAvP3wUWxxOByO/Lnz4CFa9uiDuw8fY9WCubjofAizxo1B3erV4jXelCXRKRvhiZRG5KScH97eePj0GRrUrCn2yJ9X79+L9ziZnRev3+DLt2+oV0OW0cBRqZ90S+aaCVlvcjipgQsYHE4yoRUiKpk6efJk5kwuK7S1tTF//ny0adOGlWSbPXs2AgICxK2c7My5y5dh3amr2OJwOBz54evnh6n2DrCbMg0jBtgyI06KtkiJr5MsUBCeL70iMHIqJ9zPolGd2tw3iJMs9jsfQ4eWNqn0gJHC++VVuN35AJ+YOqTUFw+ff0E4JFBVV+UTTo5MkevnafIIO+TS1RVbHE7W4uTJk3j//j1L+5A1Pj4+zBF969at7DnIdGz37t18UJfNofLFsg7Z5HA4nMQg3wmqDtKkS3eQVnF67y40bVBf7sJFNBSNGCnl67OyxNnVDS0zKH2Ek7Ug8076vHS0aSH2pJCQa3AYOQFDhnZHjdb9MNhhG3afPI2dq2bC8SpV3FNEgYIF45QJ5XDShlwFjLIlS0BVlavBnKxHaGgoi76geu8qyXRhTwlUW75GjRro3bs3Ey727dvHnqtmzZq4deuWuBcnO0Hi1NFTrmjdhJe4Swr6XUn5BIfDSTV0Dt2+/wBjZ85hppl3Hz3Cavt5rDqLjra2uFcGIZFAysV6mfH+4yfmYVK9oqXYw+EkzKmz51C+dCnkyZ3KyiMKejA2UBbuRCLkx3O4H9qEGbPnYtaeu/CKEDYb1EJX69zgxT9TSMboyVkGHtHD4SSDVatWsRJrTZs2FXtkx/3791k5VnqOaEi4uHnzJvr3749WrVqhT58++Pr1q7iVkx14+vIVgkKCYVm2jNjDSQiafDVs31lscTjJJzg4BK/f8Vz8IydPofOgodDS1MS5Q/uxfM4sVChdWtyasfAUEtni4n4GzRs1zFYlYTnpx76jx9IWCapcCiOWr8D8bvVR3kT9/4mlohbyW7bC7CUT0MqITzeThXB91lDQQunaVZE/iyk+3r9/i/fkA/9EcThJ8P37d4wZMwaLFi0Se2RLt27dWFoKCSQxobBaEi7I5NPExISZfNrb2wsDcu7mnB045uqGVo2t2d+Zw+GkD2RMN3/F/+Jwatmwczf8/CkcOmtCE9rRgwYIk1t3bNt/kIWNZxYodUUq5QKGLCAhiEr+trTm6SOcpHn55i0+f/2K+jWqiz2pQzFXaXS0mwMn59N4cMoJZ5yccOPMCZxdMw6di2dwhFcWQrXiYBxyPoA9tiWzXMnZtn37i/fkAx85czhJQIaatWrVQqdOneAuDP5kyfbt2+Hp6Ynp06eLPf+io6PDhIvr16+zH6phf/ToUb5ilcXx+vEThQsUEFscDicz43bhIoKzcIUoSt8d0rsnju/ajg+fP8O6UzccOOaSKUQZaaQUiop8OCoLnrx4Aak0AuVKlRR7MgYqX7tt+VKxxcms7HM+hvY2LWQYraMIdX1TFMhrCgN1njSSctRgYKgD2SeqZz/4NwaHkwQFCxbExYsXWaWQQYMGsZSO169fi1tTD+X0U9nUpUuXskokSUERGiRcrF+/HlOnToWVlRUeP34sbuVkNbS1NLP0ii6Hw8kkhL3E9pmzse1ZmNiRMLmNjVn6yOIZU3Hu0hXUbtkWQydNwelzFzKshHekNJKlkXDSDkVf2DS2zjBD1mjo+c3NzMQWJzNC6XXOp11Tb96ZJsLh9dgDbk+8kdMKKPvd3YFhQ4ZiyOa78ObWXqmGCxjZnYhvcF05CbYz9uIOr8yZaujLmISLp0+fMrPNatWqYcKECfD19RX3SDl2dnYwNDREr169xJ7k0ahRI+abQWVXGzRogGHDhsHb21vcyskqkHGeXwAXMDgcTtqQ+j7BuTPncP5Z8q8nVS0rYJ2DPTyOOqFu9WrYdegwqjVvhXGz5uLClWsIDUtaDJEVJOZLeCpdmomIiMBx97M8fYSTLE6dP49yJUsir1lusUdehOO9y0x0GDgFdtN34o78LjWZAlUtKb4+ewC3TVMxYs9LBIn9nJQh12+MaQsd4P1LviYfOR7/WzjodAkeZ1xx8Uu42MlJLRSGS8LFo0ePmDdGsWLFsGXLlhRXSPDy8mLpI5s2bUqVBwKF+5FvBvlj0ONLlCiBlStXIkyOg05O2tDW1ISvHxcwOBxO2qGEwrDQlEdQ6OrooGNLG+xavYKVUy1dvBhWb92GGs1bYfJ8e1y7fSfF328phSqQ8AiMtHPz3n0YGxqgcIH8Yg+HkzBR5p0txZb8CHmxG+MdPeAp1UeD3p1QkQqYZCAh79wwd9JMbHyYWinBH3f3L8DgecfwMhnTLBWLblhoVx2GEl9cXzcTC6/7ggdipBy5Chiv3r5DaDifYKWZkB94dPM2nv9KOvAqwscHPuyEUoSyEh8gyIrcuXNj69atOHbsGBMhqlSpgitXrohbk6Zz585o0qQJi+ZIC7ly5cKKFStYFRN6LeXLl5e5TwcnfdDW0uIpJClAQ0NdvMfhcGIhTP4liER4WNoWKUyMDNGrUwcc3LQex3ZsQcH8+TBv2Uo0aNcJqzZvZaU5ZQ15OZFAws2M0w5LH+HRF5xk8OrdO3z49Bn1a9UUe+RE+FtsW7oLdwMlMK43FNOaZ3R51VDcPbQRO4QxtNv9H6lLZwl5iAPbT8L95FGcep+ca7AyirSdhpW9S0E74iP2Ld6Ay37iJk6y4d8YWY4QeCzpj3bDR6LNwNW4ESp2J0BkWBiiJCNVqGY1S9ssQOXKlZlwMXr0aCZKdO3aFZ8+fRK3xg/tTyVSly1bJvakHTL2dHNzw4IFC2BtbY169eqlSFDhyB89XR388Ul9ClJ8vHn/AfYrV2PszDnY7+wi1zDw9IQmNyd2bRdbHE7yUVdTRSmLomIraxDq/QZPPZO/GqggYRoGQkOTGBCkADNTU/Tv1hUuO7di1YI5+PHrF2x69EafEaPx5MVLca+0ExgUBDVhcMIFjLRB/iVuHhfRwqqR2MPhJMz+oy7oYNMcynIttSvFlxPrsOFhEBSMG2LKGGuYZYLTXhoRJVtIJKmUUkhApvcR+Rs/fiY3lkIHlW2nY2RFDYR/Ponlh94iq8fIm5mYiPfkA//GyHIoQM/IAOrCiaabJw9yJfUXlEpZaCkkysJAjkdgpAfkj0HCBaVzkNEmRUHMmjULgYGB4h6x6d27N8aOHYu8efOKPbKBXoeWlhbz1bh161ayBRVOxqCvq4s/Pj5iK234BwRiqr0DOg8cwgYkFcuVYWVa+44cwyYIKUX66wJmDZmA9U9CEPD2HJbNHIUOvW3RdboTHlGUevhP3DyyHlNmzMQ4h804cM8LcYPXAz9ewzbH6ejVzxYt+9rBbtVZvHxzHOOHL8ChzzHXOcLw8vBs9Frqgd88jpIjY2giPmbwQLGVeuz69YG2ppbYShqp70scXjUd3W1t0X7oZEzdehbP/MQPeGLnj/QH9s/oj/aLTuPlnQOYPm4I2tiOwYwTb+OcY4F4dX4Hpo4bhtZ2O/FAGP2Gh8t+CEzfK6WLF8escWNw5dhRNK5fD72Hj8JOp0MyqYTl5x/AotE4aePC1WsoWbQITI2NxB4OJ37IvPPoqdPo2MpG7JETwfewcccN+EgM0WKEHZoaZrIpaKqnSEpQUhQeLA2EX0AKBjGKedC2XS0YSELx+MRJPMji6017160W78kHLmBkOZRRrv9anDtyCGeWtEPRJMXTSFHAUIGqKv9zpyeampqYPXs27t69y8w+yZdi//79sQZ55FPhI0xayUdD1tDglYxBKRz30qVLyRZUOBmDvp4ufslAwKDByICx4xEUHAT3A3vZZK1Lm9bYsXIZdHW0sXpryiMXFFTC8P3ldZxw2YqRw2Zi1elbuPf8NZ69+YrfEf64unIEei/cif2uZ3Dk0FZMHmqLIYc/iuGXUnhdckTn3uMxd/85XHn8Qjgf7uHUwZO4+e0DHtw5hWXbr+Nv7EngLWwVJnefJbrQ4JcoTiaFjC7V1JIZxij9gSNzR2HCrnO4/uQF7t+5iH3rZ6LnogvwQ1LnTwTCI6QIf7odvUauwJ5LD/HoyQ3sXrQYO96Lwp/0NzyWD0OHyRuw79J9PH7tBT/hayY0RHYRGPFB759y5g9uXIcDzi6wmzwN5y5fwcmz58Q9Uo5/QAC0NDXEFie1HHNzR8sm1mIr46HxSMcBg8UWJzNx+vwFlClRXO5VYnwuOeOEZwRUy3SEXb1cmW4CSlFsqUKiBGUWvBGGkJCUibralWuimrYEEZ434fEmq8dgyBc+XMySqMDA1BBayYl2otAmulVQhqo8I8VyMPnz52fCxc6dO2Fvb486dergzp07LLx35kxhMrhqFTQ0ZD9g27hxI4KCglh1EktLy2QJKpyMQ19XD7//pEzAiJuDHkai1ZRpMDY0xKJpU1haSjRUh3/m2NFsokGpJSlCvRjKFpDg1fF9OO9rCiu7JXATJlt3dtuhVsBZbDr2Gfo1BmDNurXYPLIuzOCDBw/fsxBI6Q83zJ5/GM8khdFu/Eqcc3PD1W0LsWyBHdpWa4MeFdXxzW0n9ryLmoz53zyLc78Lonmz0uBZbpxsQdgL3HzsD4M6Y3HyzDncPbAc8/p2QLcGxaD2I/Hzh77fVZSF88jXGxGV7HDU1R3u42sgV+gTuF/+xkSOoHvbMPvAG+jWGwWnk+dwe20XlFSORHBIMDtCelMgnzmcNq3HuStXMWDsBGw/4CRuSTlUiYlHYKQN8lK6cuMWGterK/ZkDrx/c9P+zMi+o84ZYN4ZhJvX7uFPpAosGzVE/ow1vpAxKlBToZlWpDDOT2EYhUY5VC4mXPAjPuPRM27mmRK4gJFJCH25B92bWqHp6oeIuYYi/eaG0e2sUWfBVUSvnwd5zEWVOi3Qbs1dJGkBKFGIEjCUVaCcgLro+/Ik5o/ti9qNGqBYrcao228uttz/Hc+J5Ienx1diQK+2qFCnLko0bI8Os/bjdqy4bz+cXdAR5bquxbVnLpg8sD3K16yNorWaoHavCZh/8pWwR86AhIvbt2+jZ8+eaN68OTP+LFSoEDp06CDuITt+CwOFqVOn4s+fP5g3b57YG0V8ggqJGpyMhVI9QsNStmK6YMWqv5WcqGQelTwkQcphxlQmWMTFyMAAvTt1wLb9B8SeZKJogoJ51BEeLoVxo6FY2K0qCukqsy+MsFfP8CIkAj9ubIbd4MGwXeYBT9WiwoCoElSFq8bXcydw/rcqqvSbh/ltKyCfjgaMi9dEixoFoKFohrY9myBf+FPh83gFPtJAXPW4Bb8iddGiMFdYOdkEJXMUMVdh37/KSirQyVcRnQYMx8j6eSBN9PwRUFCBChluK5igSdfWKK2rjoJNmqKGdiTev32HcATj6qnz+KxZEyPGtkH5XCrQK10PtfJIEBwkHwHDLyAAE+YuQP68ebBo2mQW7ZVaeApJ2nE974HqlSqyijIcTmK8fvce7z99RoPatcQeORH2DveFCXqkYh6UK2WQOSaf0ghmfBwurulFsnaYMC4T+sRgt2ShoAUttiYZycZ0KRIhFHRR0sIUiojAp4+fs7wPhjyR62do4bQpMMyVS2xx/icCX29ewu3fIfD3D4lK+RAJe3kLlz0D8UO44PxhZ4UUgd7e8Av9g8fnLuFZEmIf1VYn3UIiTG7iEzyDnu3AgKELsOXyS3z1D0VEeAC+PD6NBaMnYtXjmLnzwXi0fQK6z9uPcy++C88fgbCAb7h3ahX6jd2Ge9G7hj7BuavfEPDeFRPGL8aBB9/gHxGJyHB/fH1xBVvmjMDgfW9jiTTZGZpU9u/fn6VzUOlTMtry9PQUt8oOShExECarkydPhkkCRjoxBZVmzZqx10XlXDkZw9fvXshtnDLTo1Nnz2PwhEnsPqWGfPv+Havmz03UiMuqbh1cun4zhZE3CjA00Bf+VUW5qhURa1hMX/CREmgY5oNFsbKo06QHFq52xOjy9A0eIXy+fyBCGKRUtDSJ95qjUaETelmq4fvZfTjw5i7O3/JF4Rq1UIjrF5zsgmJ+9JoxC330r2HaSDv0GjsLc3ddwAvywEj0/CGUoKIsDM0UzVGiiBiTpFoIxcwl8P/zByHhX/DktQ8UipRHNX1xCCdRg5oaEBKc8jKqKeWx8F3WuldflvZxZMsmtG3eDKoqKuLWlMNTSNJOZksf4WRe9jsfQ/sW8jbvFIj4hs8/IoShhRHy5on/ucO/3cepa2/x9somDOpqg1I166NCu6GYfPR51GKt3zPsWzgcVo0boHgta9TsOREO5z7+479F/kAvTq3GwJ5tUL42Lba2QcvRU9C9fWNUG+mENxGBuLHGFpbCtuK1rWF79Lsws4rA3dVdUap2fZSsXQ/FG/bH6lf/ywlBn8jTazLatbdBuZq1YVG7Ker2mYKV139CKtGEtkZUBMbPBwcxfUQv1GpUHxY1rVCz+1jMOfEqkcVmZeQ3JwFDil/ev2LN/ziJI1cBg9R6uZ80WYJI+AVQfIUEWtpasQf9ovAQGR6OMPGTHRIqnlTChCRJpU94PPuNKyj8O5mI+IDdy3fitl8kFHSKonlXW4zo3hjlDRQRGfgEG5Y5/a1pHPH+COZvewjfSAXoWTSAbX9b9G9SCkaKkfB/shvzD4gOupGkXgovVPoTnj8UYFJWuDjY9sWA1rVQXFd4BZG+uLF1M054p0ijzPLo6enhzZs3sLGxQdmyZVmUBKV7yAJKD6GSruR9MXz4cLE3fqIFlRcvXkBXVxelS5fG4sWLZepez0kent+8YGaafAEjWoB48PQZjp5yxa5Dh7F87uwk8/KLFiqIsPAwVjIt+SgInw8tSBR0YWIUe3IiMTSEgXA9Kdh6Do5uW4MtMweiXUkNfH/2CG8DJdDUVBOuZKEJ54IqmqFdNyuYhT3BHodduPgnN6pXLRB1nUoAeu8/vL3FFoeT+VExq4GBExdg17qV2Di+EYKPzUC3+Wfw2yCx80d8rIoyJMrCoDi6crCiPnLpKLCqYqERQQgUvjrY/ehTTOqN778iEZZOKSRUzYi8LkZNn4U+I8Zg1MABmDtxfPI9QRKBRWCkwByVE5vvP3/i8fMXqJ/Gkuyc7A8toNHYoWOrFmKP/JAG+sKHLk+q2tCN77IR8Rabpo7B8LED0WbSNpx5+xshEWHw+/IABxaNxWinS1gzbhSmHbmLdz6hCA8PhNfLy1g/bSymnfsZYy4UjlcHp6LHnL04+/IH/MNosfUHnl71wPXPAfh55xpu+fzEvTuv4ZtYlAVdX9lBQ/H21Dy07UWeXhfx4PNvBEQIc68wP3x55oENwusJUhCu1Zo0nY7A6zO7se/GG3zzD4NUuFZ7vb6O7fPGYNyJqPS/+NDS0YWaJBIhwcEJ7sP5F7kKGJyEkMLfP4idgP+sZAgDBFUS9oIDESQOVpSVov5sEnVNaCaQFvIXJTHyIh53mvC3Z+DySBgJKRdG30WrsXx4H9gNm4bdS3uhrHCBCX52EoefUoiHcEFwd2dRFipFOmHt2tmYZNsHE2auwKY+JaCKEDw8cSqOg64yirZfAOd10zGpf1+Mn2iPw5vHw8pQGIT5XMfR895Jiy/ZDKoQQsIFVQihFI6SJUvCyckphSvjsaHHjhgxgh2byrKqJHMljMQLEi4uX76MCxcuMCHj+PHjaXotnJTx5ds35DE1FVtJQ6kjdH2g1JHJCxaifs0abDX02atXrApJQlAVgdpVq8Lj+g2xJzlIhC9kdeGxysL1Jva1Q6VQGZTTi8QLjzN4RksfYT9xVTi32/YbhtF7PyK/RSHoSD1xwf1BVNSY1B9vrhzE/JkLsUdc0dCs1BYdLCT49PAxfuiXR83iyqw/Iehz2bE/N4TjpBw6N+48eCi25EUEvN8+xEPPQPY9p6KuCiXh0ur/1RN+BRI7f94KHRIoKytBQVVdGNTSsQjyxRAakVJIFU2R31QJ4S/O4fAzOu/D8dH1KM78lCIyVLYRGFTBaN6yFajRvBXW79wNy7KlcXrvLrSwaijukXbIv0FbS1NscVLKiTNn0ahOLZmISZzsjesFD5QsZoF8efKIPfIjMjgIwcI1UCKMYZhdRFwivPDhWxgihUl/QKgq8tdoh+GDbNHPqhj08AfnlkyB431/qJnXZJXNBtlUgrkaPc4Tzmv34q64Bif1Potlm27hl1QYwxSohk49bTG6b2tUMxGXSCJDERyWF92n2WPByCEYN6gPulhSSosCDCt1xLhhQzDBzg7zlszFoGIK+HN9NQbPP4VXgZFQ0DRHrRZdMLx/D3SuXQy5dfOiqZUl1IXHUhRZ1NtShmn5pujffwBGdrdGWX1hBib9hfO7nfH0/4CO2CjSswsvLUK4vkf1ZEkoPUmecAEjkxASvQIeR2hQVNeAOo1bggLhz+aWClBTVRFPFEmSf0CJsjLY/CM8/B9lz+fpM7wWOrWqdUT/sv+HcKoWtUGbMsJEWLgw3H34Xejxw4OnZDCmidqduqLi37GGKkq0bAJL2vXLY9z1ivEMigXQuFUlxKySpJLXGgOb5oMiQvHowWPIJ1s380E+GIcOHcLmzZuZyWb9+vXx4MEDcWvKOHHiBB4/fswECPLZSCnFihVjwsXy5ctZademTZvi2bNn4lZOekIRGLlNjMVW0nz++lWY2ERN9ClixsXVHQPHTYRNjz5Ys207goITPqPqVK8Kj2vXxVZyUICm8IWsIFw1hO/U2KhXQadm+SF9vhM9OnVBveYd0HPjbQQV7YBRrQtAs1ortC0gwZuDY1C/TVc0atkGTccsx447/lDXEq9vSgXRpkV54YtfAq2ylWDJx96cdMLrxw+s3rZDbKWehavWwMf3b+2cxAl7ho2T7NC2bVNY2nRCg47jsetTJAyKWiCPVuLnT7SAIVEQoydFaGggUVSCslIuWLdpgNwRL7BmSEc07NABLRdcxE86TyNkt35Hwmjr3rbMaPjYji3Yv34NerRvB4Nc+uIesiEqhYQLGKnF+bQbWlpbiS0OJ2H2HT2WAeadIsK1iV2dJIrxz1sUTZHXMGp8oFSkE5YvHIXhvftg4qzFmFlfD5JIKSIVC6H3rLmY1q8Pxk5ZioOzWyCfIk1VLuHkk6gVVJ9r53HFJxIqFt2xZctizBvSB0MGjMW6sdYwYU9M11Bh3lOgOjp07oqBwnMMrJVXmJdIoFm4Lvp074r+3TqhU7W8UA9/ia2rnPFGOLSyeWM4COOsbVOHYrjtQMx12IxLrvuwqJGh8H4UoKutyd6XgpkNHJZNwQTbnhg2bDq2TWmK3MKG8A/3cT3mHCkG0rAw5sOhoKT0b6R8FsJ29FjxnnyI93PEkTeRwrktnJzCPX8/v1gKnERLExRcKQ3wh4+4QUlVJdFw65goqKoytTMyPPT/cFNGOH7++CVcUBSRTxhU6cb8JCjoonA+yn8Hfn7/Luz6C16/hBNP0QwlimvH+tAo6OVHwVzU442v32O+cgUK/oiDMiyKFoCa8E4Dvb6C0uFyMg0aNGCRGJ06dYK1tTUGDRqEH8JgO7nQJJZSRoKFiStFX9BKe2oh4eLRo0do0qQJ88qgqA4yBuWkH3q6uvj565fYSprPX7/FipBRUFBA7apVcNZpP8YPHQx1SoJPgAplSuPpi5diK3ko586LAsZFUDzqWz8GKrDsOwVTrQpC+bcXfDSLomnf2Ti4dhjqGgj7qpXDqPmT0cPSFJJfnvghMUOttiOwbcsMtMkdfVFQQO76jVHbyAzWjSzBpy+czM6tew9YKkWyULZAu96tUKOgHiJ/fYVniA5K17eFw6Bq0Ejq/BEG0nq6etArUABmf79DJVBT04Z54fzCuaIAg3qjsHZsc1jmChO+d0NhaNkKHSz1oK2T9lQMusZs23cAPYeNxNA+vbF45jSYpSBSLKX8/PUbufT1xBYnJbz7+BHfvv9gBp6ZDUpXPbZ9i9jiZDRvP3zEmw8f0FDe5p0iEqWoxdTI4EAExpqLiCiawMyYZjYS6BYvhaLRQZkK+qhdvZQwbyCNwxK1/98Aw5o90L0sraB64cnTH8J8JgwvX75FkDCvKdWoOWKsy0KjZHEUYpdXRSirxBzTKEBdnRaFpQgMCIjlQRH67CxOvQsXdjFB65Gj0IqMmeNFAh1tTeFfYVcdPeSKMUHTqVQdVWjhJvIr3n+Mf9IT7B+AUOHRmtq0aMRJLvx3lSmQQJ1FVUTgxzevWAaXinq60BH+SpEBvn/ztRRU1aLSSpKDihrUaRAU6off/rGXUsOlUW0qxRgbCVTV6PVECoMZakeICzvhCI87fpOoQp2FtortJFAULmKK9NpDglk4WU6HjD0HDx7MTD7VhAkopZU4Ojomy5Ni5cqVbBJLppxUIjWt0Or+yJEjmacGPX/evHmxevVqcStH1lSpUB637ic/8oYiMCikm4QKCgHdtNQBW5cvZd5CSWFiaAhff/9EozTiolJ+KE4cmY+OeeJZE1Avju5ztuGmxzncO7IBKwfUR5HofH0B1YLWmLFmP+5euoAHLtuxZXwHVDOKLbsqGDTFGpf9sK8fJZZyONkHFRRtOho79jrjwZWLeH7uKI4u6IUaTKAQSPT8UUa5IdtwfXVnWPw9ZVTRZJYzXIeXF45MaKB0m0k4cNQVTz1O4MyqcViw5jhu2jdlW1MLpan1GzOOmUI6bd6AVnIwhvzk6ZkhIe3ZARe3M2hu1ZCJBZkNWlDRTIdy8ZzUQead7Zo3g4oYxSlvFLS0oEWXv+Cf8PSObyKvhFz6tEAqgYpK7JBMNUMDtsgq0dFHtG8xQ9EE1SvkFx4Zia+eX4UZSgR+ev8R/lVFbjPDWNEMCsIcK2repCiMu1nXX9TVKQkkEv7CGCnmLCnkw0d8Fl6qRLM06lgmJg4rQFsUMCJDQmNHlyvqw4BevNQff8jE+R/C8UN4zVLhGLkMYr9mTuLE/ChwMgxF5DalMCQ6Yd7hbQw9IeTbd3jTRD/CD7+iypAIYxnRFyM5kDsuGWVEeuNrdPhSBBmBKcDYkCYOEfjy6iV+xTqvpPj9hyJBJDAyNqKZBkxyCadVxDc8fUknWgykPvhFwogkF0yNkvo4RZUJIvVVoqUDPf7p+4u+vj6LovDw8ICrqysz+jx16pS49V+oesicOXPg4+ODmTNnir2ywcjIiAkXJK4MGzaMva6w5K48cpJN2RLFWc5gYv4VMbn78BFbHZ08wg7uB/agWkVLcUvSkNCVx9SEiSAcDocTEzKAdnI5gWbde6JEkaLYv2FtsoRRWfDpyxfky2MmtjjJhb4LnF15+ggnaci888jJ0+jUKoPSRwhVE+SmaG3pJ7yknIx/UICBvo7wbyTC4i7gKSuDZBeJuloc3z8lmJubCv9K4fuH5iZUxpQmUApUwToWEb//iFHsEcLxWddfFLW0QUES4f5+iKkx0CIuu1XTgEaiyoICdLRED4ywEMTyL5eoQI2pzlJERNdrjUUoXr79gnCooED+PMmOrufQb12O2E2exhyTOXFRRO5ihUHz//DPj3CbpWJI4X1/D+zG7cBjOh8jfeBNaRwCErUURGAoGsKYJMuIr3j+0hfhXm4Y1c4aVcceQ1C58igunC2Bt52w9ubvv8KE9Pd1uN6mes1msCxnInxK9FC5QmHhAhKE6wd24vJftUN4jdc8cN0nEop5yqCiacwzPFSYmMWO7Aj57IYVh18IJ6oiCpQujejFKM7/UAQGCRdLlixhaRzka0EVQ+IyZcoUVjaVPDRI/JA1o0aNQu7cuVlaCb2epAQVTspRVVVF4QL5sXDVajx9+QrBSZRAbG/THPfOuqJLm1apWnEzz5NHmCzIvoQvh8PJurx88xZdBg/D7sNHsHnpYowdMlBu1eLCw8Px1et7uqaoZFeo8giFyJYtmfboS072xs3jIooXLSI3UTJelAqjZEFl4TPri8eP3wnzgLhQxE5UGNix1ZUAAN9ySURBVFpISByFQRoRtb+C0j8TfGVNTVAF09CgIGEfBairqQpHCsbP7z5/5zSEP3n+salVAHz9YkeASLSjokMi/X0RvU5MKAtjax3h2FLfn/BKomigoro6KG4kMiQkdnR5pPDa2dOpCGO+eCZuAXdx8UGg8GRFYRkz54WTJHKdQlIZvAgxbYETG9VSlVFFV/hwhz3CbsdVmDO5P5oNXYNzXorQUBMmK9Lf+C6WHmUpJOyecG6ItwmiZI4yFjrCCR2C6/sXY9KM1TjxLQwB79/BM08TdK2uC0nYO+ycOBh9F6yF45qF6DdgHo5+l0K9VHO0LUm6pyIKN2uNusLrC317CEMHjsGU1ZvgsGA8Os0+ja9SNZRr0RTlYkamRbzD5pG26Ge/His2bcCcWaPQovcCnBSOK9GuiO4ti3KlMQEo9JKECzLnJJ+MmjVrYvTo0fjz5w/bTr4ZVL1EQ0ODlUSVNd7CebplyxZs3LiRmYOePn0aDg4OiQoqnNRhUbgQ9h5xxpiZs1G2gVWiKSXWdetAOw1md+ZmubO0gJFXeP0cDkc2UDoaGZN2G2LHVvGdNq1H6eLFxK3ygfwbDHPl+rf6GidJyLzTRvi7pcX7ipMzyFDzzmgUdFCjUjFhGh+Bdzevx4o0j0ICLQ2y9Y6KwIg1UwyPiN2OifD5pzMgMjwcocJcJU9uSsMIx+PLl1j6ByPgCbYdvAk/NmHyh2/Unb8o5tIHLQNKff/EikZXLloMFnRpCn2EU+5fhFf+PyFeD3B4owPGrTgLsrZQUFODBokgYaGxIzAiQxBEHQqa0NGOO+WOwPvjB+AmzO3Uy9RDk78eYZzkwNfAMwuaNYRJfWF2cn+4dADbz72Ad4QKCjSfgPktc0MxMgBfPKNMFSVUWpXuUEk11pMY6qjVohHyC+dF6PtLOHKfypcqIV+NmiilZoI2wwejkZGwMfgzLjvvxuodLrj4KRDQLoeho9r/zcFVMGmCicNqw0TYNejTLezfuQ3rna/jvbCrTvlemNax0D+CRGTAB1w4uhMrNu3A9lO38M5fColGIXSaNB6d48ur58SCSqKOGTOGeVJQbl7x4sWxfv16DBkyhPllUOUQSvOQNR07dkSjRo1Qu3Zt1qYBUosWLWIJKvS6ogUVTupZMHkiXl27hFN7dmL2+LFYv2OXuEX2mJuZ4ZNn1kwhoRSYnauWiy0OJ/lQhYvqlZKfbpUTcL94CY07d2cCwsk9O9CtXZsM8VEg/wtznj6SYqiU9nH3M2jZOP09SjhZGzJ6ffXuHRrViRrPZRyKyFu/ISprAOGvzuDw07g+bwrCmFeJiRHSsJBYXoCQShGR0GptWDgoISVKxlNCkXKlWfXDgNvrYTvBEUvXOqBv75FY9VgMoYgMhE8cP0DFXAYwEIbSUp/fENeJGQqGtWFTWRuSSH9cWjEcPWavwrJN6zF1XF/UbT8U4zc7w+X6ayZ6SDQ0WNlrKmUdW8AIihIwJNrIFSdvXvrNFQu334O/xAjNOjeBeRafFpUR5ijyhAsYmQYVVLCdgbk2pWCioQbdvOXRfqQj9k+xgqWZkfCHisD7t+/YnhJdY5hqa8OiUhmYJ+MvqF6+D+wH1ERBHWWoaOVFza4zsWlEFWgL2xTNW2DpqhkYVMcCpprCdvVcKFqlHeattMeAEjGrGiiigM107JzdA1bFjKClrAyNXAVRq/147HDohjJxCyAoFkGnwR1QzUwLKsrq0M9tgVot+mHlpjWY28BUOBonuRgbG2PDhg0shYOiIigCgvJfqfyqrLl+/TquXbvGxJG4RAsqT548ga+vLxNU6HXRYIqTOmjSEL2C1rpJYzx89oyFdKcUMuI9d/kK+1wkBIvA8PwitjicnIGJkSH6d+sqtlLP9DEjoSN872ZlPnt+xYCxE7Bo1RosmjYZjrNnwMjAQNwqfz5+4QJGarhx9x5MjY1QKH8+sYfDiZ/9R10y1LwzJgpmTTGouTmUIj5gz9KtuOUnbhBREkVUZVV1YUYUA2GMmdBirTQ8qgSpqq4uKAFDvXJbdC1BqShBeHf5ENZsd8bFT0GATkFYUJ5+JKWQxBknKZvAjHLag3/iW8wQDAUjtBrcB9UoOj7UCzdP7sOqTTux79JL/AwTnsu8AabN7IHywq9WQVODVVNjpa6jhnRRRAYjUBQw9GOWe5R+w9Fl63H2l/DSqvTE0Jo64oasy6oFc8V78oELGJkJlYJoO2U9rpw7gztOq2DfuRwMFBRgUrcDBrXrghGtSrHdFHI1xdrTp3BsVPXkGWEq6KBSr4VwdzuPp2f2YfvweigQ4+qgnr8Bxi7agstnhe3nj+HUilHoGKdcahRqKNRwINZuP4L7l87j4cmd2DbWBqX/CYsiFJG79lDsOnwaTy+549aRLdg2tTeaFEp7mbecSoUKFXDr1i3s2rULefLkYZEQ1JYlVNGERIp8+RIeGJmYmDAhhQQVei0VK1Zk5qOctKGmporBvXqgefdeqN+2IwZPmCwM8BMXHCiH/PCJUyhRqx5evHnzVwyJj1z6+vjt4yu2OBxOSiCvgfRKdSDhkYRgEiJDQkOZHw6lePgF0GDbD3+E8/bXnz+sSgil4lLkhKeXF758/caiGD58/oL3Hz+xUom02koi6PNXr5m3DnklPHr2HJt270Wr3n3ZpHdQzx4sdc3Sqina2Q6A44ZNuH3/QTwVydIXur7lM+MCRkoh805KH8nM0HdTww6dxRYnI6BryeGTp9CppY3Yk9FooGq/4WhvrojA57sxfNZRxPTzVDLNAzMtM1g3KP83TZ6Q5DKBqWYulC1flFUjiYmCrh5yaZihUZ2yUY9RLoqB82ZhWN0iMFZXgrKGASyqd8TCldNgY0whEiHw84/jN6aUD6WKaEFFRxuaktjihkrhjlizahJ61ygMEw1lKKvpIX/pOug50gEuO2ajm0WUb4VSntIob6oGg/KWKBUzMJpSR7TUYVy2CizJxJQRgc8nlmOhhzcitSrAboQN8vFV3RQjCQ0NTXjJToZQicbOA4fAcc5M5DY2Fns52Y6QSxjXajKO+Flg5M71GFZI9ikOHIqok2L79u3MzLNx48aYP38+M91MC2vWrMGMGTPw4cMH5q+RHGjgffDgQYwbNw5Vq1bFokWLUKBAAXErJzXQJIK8Ks5cvMQmHdPHjEKj2rWYwBEN/f0phJhy2H8Kkxqa/Dw455Zo2TqazIybPRcndm0XezhZCTrX6O8uFW8jpcItpRHSrTQi6lZox+qn2wh6TFQ7Msbj//5EH+/v8YUf9pjotvg44Yc8rOIeP/qYEcJjIuP2C/fZY6L72b7/HyPqMf/3x3yNUc8lPo5ti9qXHhPzGNH90a/v/2OI94XbqMfE7o8+RtRjxOf6+1qEW/F5Yh7/7/bon+hjRr+Wv4+Jasf6XcX9G8U4HkHiI6VKKVBOt3jL2tE/YluiINxKFKDI7tO2qDbdSsRbRQXFv/ux7cJ+VPEoOCSEGeVVqVCBhZTXrlqZiR+Xb97C5Rs38eHTZ9SqWgXNGjVAvRrVoaEeozZyOkDRIK2bNkazhg3EHk5SUEWJ6i1as7RDii7KrJCA0bhLd5w9uE/s4cib4+5nse+oM3atXiH2ZA4CHm9B75Fbcc9fBaV6OWLv4LIseiJ9CcStfavh9CEXGnTthcbmGTc3ifB0weC+i3DORxd1x6/Bhjb5slVUuryqFnIBgyNbuIAhVyiVY968edi8eTMTEUaOHMmqW6QUuuCQALJy5Up06dJF7E0+gYGBWLx4MUs9IY+OiRMnQjMNhpOcKO4+eozZSxyjHOcFju3YKkw4PmPBilVsVZZWaVVVVTCoR3fY9evLJlpskidOsGJOoD5++YxB4yfh6LbNsSdWbEIVd/IXPcGKOsbf48Xoj5qURfX/P5H7/3708aKP//eYcfvF+7GPF/W8f/vpNsbkMKHj0f1Yk834JqHCvvTaoo4R1Y458Y53Eirs+/9jxOMIt9FtEpBiPS/bl55HmLRG7xfzeMLtvxPxGL+3GM8bfbxoKO3on0ku3Yr9MSe5fye3irRPVDt6khu3nz0uoePF7Kfb6B+hHWsSHfN4wm3sSbRwvBjt6Nf/d7Id83ji8/ydpIvtVE3ehVtqU3/M5435fHQ8dvwE+mMe/5/jxehntzHeZ8z3FXUc8Uc8fsz+9Ob0uQvsc5WYMEERHmcuXcaps+dw//ET1KleDS2sGqJ+rZoyr0xCn+lKjZvj9N6dMDbMvBPxzAb9HXcdOpzpJqVx4QJGxtN96HB0bt2KncOZCym+X16FATMP4Y1JF2zbNggVMz7DRW78uTAfLWddhVHryVhvV4N5dmQnsqWAQaGQtEKYEWZRHDnBBYwM4fXr1xg7diwre0olWFu1asUG48mlb9++uH//Pu7cuZOix8Xl06dPTLy4ePEi7O3t0bVr1zQdL6dD0Ri7nQ7DccNGWJYpg9CwUNy4e1/c+j/0O6YJdDQ0IYo7+SOCgoKgo6PNJl/xTfLoVlGYhMadrEUfj27jTvLoNtrLI7qf7Sc8jk3yovcTj0e3dHx6npjPy7az/aL62X4xjyc+T8zn/ft8aZ28C7fR7zPu8eg2ofcZ833F+3uLp59uo44X9TuN9bzUFh8T83mj+un183OJIx8oZcXtwkUcOXUaHz9/QfsWzdCxlQ0zA5YFL16/wZCJk3HWab/Yw0kOQyZOQf2a1dHBpoXYkznhAkbGQillHQcOxiXnw5m3yg8J9PQdJzZzFLQmkU3feLYUMDg5AC5gZCju7u4sCoOiKZYtW8bKoCbF58+fUaxYMSY6kJ+FLLhy5Qoru0qTaiMjI5aeUqhQIXErJyno93bh6jXMX74SeUxNMXmkHSyE3x9FXOw+fARrtm4XBogRCAoOhpqqKvp368IiMBKb5FJevaVVEzy9dF7syTrQ74Py+osVKSz2cDgceUG+GmQGePTUaZQsZoGGtWqiTvWqKGBuzq43dH6mVFzb5XQYj54/x8Kpk8UeTlLQImCdVu1w0flQpjeU5QJGxmK/cjW7nWg3lN1yOPJCXgJGjhS+OJzsipWVFR48eIDWrVuzkqfDhg2Dt7e3uDV+OnXqhLZt28pMvCDIYPTmzZsstJ7KwFauXBmTJ0+GnzAA4yQMTQQu3biJTgOHsDSRKSOGY+vypUy8ICj0myoqXDt+DGMGDYCujjbCI8Kxcss2BAQGJjqJoFSTcNEoMKtBvxdKf+FwUoqPry+r0MNJPUULFsTUUcNxxeUIurRpheev37Dw9HptO6BItVqo2izlJoG37t9HlfLlxRYnObhe8ED1ypWyfDUcTvry17yzVWYx7+TkBKg6kjzhAgYnHeHhzhmBkpISEy6ePXvGJrQlSpRg3hbxqaJnzpxhqSMODg5ij+y4ceMGvnz5wgSMhw8fskgPKr26Y8eOWDn9HDHi4so1tO83EHMdl6N7uzbMpK1ezerxihJk6Nm7c0dcPe6M6aNHsb71O3az24Sg41AKX0BAoNjD4WR/yOR216EjYiv1TJpnj98+PmIrZ0L+Sk0b1MeCKRNZaLqZiQnr37s2arU3udD17tb9B6hUvpzYw0kOx1zd0aqxtdjK/FB0IEf+kAG4RcGCKJhINTkOR9aMnzNPvCcfuIDBkS0STWipK0C7eC3Uzsu9TjISAwMDJlycO3cOzs7OKF++PEsxiUm/fv0wbdo0mJqaij2ygQQK8tVwdHSElpYWK/tKwsWhQ4ewevVqVK9eHdevXxf3zrlQWsdBl+No2bMPFq5eg75dOuHk7h1oKQxSk+MVRLmtXdu2xrPLF1C2ZPEkhSEtEjACuYDB4aSUV2/fsbB4TlR6wIQ585nB7L2zrihcIL+4JXl8/OLJbvPl4SVUk4vXj5948uIl87/ICtBCCq94lTHsO3qMmXdyONkZLmBwZIuKJcZvOYQL6/qgXCb1DcppkA8GCRdUanXQoEHM4JNMP8lkMzQ0FKNGRa3gy5KtW7dChSbXXbuKPVFUq1YN165dw9ChQ9GuXTv06NGDRWnkNL58/cZKoNZu1Rau5z0wdsggNthr3qhhsoSLuFCFAOt6dZnZY2JoaKhzAYPD4aQaCk+3mzwN3r9/Y9vypdBORbUpqnJSt3r80WWc+Dlx5iys6tZOVZUxTs7h/afPzCDXql4dsYfDyZ5wAYMjc9T1DaHLPVszFTRQJOGC0jnIn6Jq1aqYM2cO1q1bJ/MBEflcjB8/Hhs3box3Qk19PXv2xIsXL5AvXz6ULVuWlYKlChnZHRr0U1nUVr36slXMg5vWY9NSB2EwXy1J8UEW0KoYlfbkcDiclBISEoLBEyaz6jjrHOyhrqYmbkk+FCW239kFnVu3FHs4yeGYqxtaWluJLQ4nfg4cc0GbZk0yb+URDkdGyFXA6DFsBL5+/y62OByOvCGxgsSFAwcOIDAwkHlg/BYm1bJk6tSpaNiwIapUqSL2xA+llpBwcevWLdy9exclS5aEk5MTy4/OblD1kNVbt6Nxp26kJsF1/25MGTkcBczzinvIByrJKZVmv98vh8NJXyjdjYx0KQ1t+dxZUEllZbmrt25DS1MDZUuWEHs4SfHu40d8+/4D1Spaij0czr+EhoXh0ImT6NSKi4Oc7I9cBQx5lVbJ+oTD67EH3J54I2uvlfrjxvap6D5oClbd+c3KHnMyByQwfP/+nZ2TZKy5du1ameR3v3nzhqWPUAnX5ELlVckbY8uWLZg9ezbq16/PKqlkZaJFmDfvP2D1lm2w6tiFhXU6bd6A6aNHwkBfn22XNxTlERmZNc/EcqVKivc4HI48oXLNA8dPhK6ODpbOms5S1lJLdH4+Tx9JPmTe2cKqUarSCzk5h7OXLqNw/vwolJ+bd3KyPzyFJNMRjvcuM9Fh4BTYTd+JO1la81GFdsR3PLzvgeWTpmPzi2Cxn5MZMDIyYsKFm5sbi8iwtLRkhp9pYcCAARg3bhzMzFJuzkbCBUVidO7cGdbW1syv48ePH+LWrIPnt28oWr02Ky9IVUW8//zBegd7rJg3W+4RF3GhSUNWjMAg4WXZnJlii8NJPnrCpLtJ/bpii5NSyDOn/+hxMNDXw+IZU1kaWmr54e2NK7duo2WTrFNJI6MhMZyljzTm6SOcxIkSB3n0BSdjoFRoecIFjExGyIvdGO/oAU+pPhr07oSKWdpLQhkle0zGxBq5IPG9h6XT1+CiD4/DyGyUK1eOCRczZ86Era0t2rZti7dv34pbkw+lo1DpVhIwUgsNjkm4eP78OdTU1FhaCVUyIbPRrAIJBHWqVYW5mRkrI1e6eDGUtLAQt2YsJARwDwxOTsIglz46trQRW6ln6ezp0NPVFVs5Az9/f/QZMRrmefLAYXraxAti8+59aNawfqqMP3Mqj549Z2mHZUoUF3uyBiS8/PrzR2xx0psPn7/g6YuXaFyPi7WcjGH2+LHiPfnABYzMRPhbbFu6C3cDJTCuNxTTmudGlg8YVC6ArjPnYHApLYR/cMas9bfgK27iZB5oZZ6ECxIgKlWqxPwrJk+ezAw5kwOln1D0BZVIJeEhrejr67M0FA8PD7i6uqJIkSJZpuxqXrPc2LJsCc4fPoA1C+dhl9NhtO3bn5lrkYlnRkKDSgUJv+xzOCklnzCJT0vqRFaDrlXdhw5nAuy8SePTnL5w//ETHDl9GqMHDhB7OMnBWTTvzGopNxEREejQf5DY4qQ3f807eZUaTg6Bj2QzDVJ8ObEOGx4GQcG4IaaMsYZZRv51Qn7g0c3beP5LBqu1OuUwfFY/VNOIwIcTm7HrDa+ln1kh8YGEi4cPH7LypuSPsX37duYcnxirVq2CsbExWrduLfbIBorA2L17Nz59+gRtbW2xN+tQoXRpOG1aj0E9e+DS9Zto2K4Tugwaim37DjBTNnnDBAw5VDvhcDhZl0+enmjVsy+LJJs2emSarxlUvWT8nHlR/j+5Msb/JytCIsAJ97M8fYSTKGTe6XT8BDfv5OQo5DqS5QZEiRB8Dxt33ICPxBAtRtihqWGGqhfwWNIf7YaPRJuBq3FDBtH7inmboHsdfUhCXuDwiWfIOgkBORPysCDh4vDhw1izZg2qVauWYATEr1+/WPrJhg0b0mWVaMaMGRg2bBhKlSol9mQtaPDfpEE9rJw/B9dPuqBfty549vo1bHr0xr3Hj8W95AMJUdw8j8PhJIbj+o349uMHxgweKJPrxbKNm2FRqBCaN2oo9nCSw/U7d2FqbISC+bgpIydhzl26gkLCZ6RwgfxiD4eT/ZHrLHn3mpXIbWwstjgx8bnkjBOeEVAt0xF29XJlcGiMAvSMDKAuUYRunjzIJZMXo4UatSpARxKBzzeu4SUPwsgSVK1aFdeuXYOdnR3at2+PHj16sMiMmIwdOxbt2rVD2bJlxR7Z8ejRI2YwOmvWLLEna6OmpoqGtWth4dTJzBBv4NiJuPtIfiJGhFTKIzA4HE6imJmYws62j9hKG4eOn8SRk6cxa9wYsYeTXFj6SGNueMpJnH1HnVllHw4nJ8FHspmCINy8dg9/IlVg2agh8md4oIoyyvVfi3NHDuHMknYoKqO0X83y5VFKGQj/9ByPuJlnloEmvCRckLFm/vz5mVAxd+5cBAUF4cmTJ6wE6sKFC8W9ZQelO4wcOZJFYOTKlUvszT7UrVEdDjOmYtC4ibjz4KHYm75QBIZiFhQw6LNw7fYdscXhcNKT+48fo3zptEW8UfqD/YrVWLNtO1u84qkjKSM4OATuHpfQwiprRq1kvVpXWRNK93r8/AWvtMTJcXABIzMQ9g73n/kiUjEPypUyyCR/FBUYmBpCK66YEvAcB1YsweorXkipBKGga4GSuYUDRnzFu8+8EkJWQ0tLiwkXt2/fxv3791GiRAnY2NiwkqeGhobiXrLD2dkZXl5eGDhwoNiT/aCyU4tnTsOg8ZOw+9CRdDf5DAsLT3MlgYyABIzJ82UvknGyP3ROHT55SmxxkoKEh0fPn6NcyZJiT8r57ePDrml0HKfNG3hoeyo4f/UqM1A1TofvVnnA0hWF/zjpywFnF7Ruys07ORnPqXPnxXvygQsYmYGIb/j8Q5jQKxghb574Jxfh3+7j1LW3eHtlEwZ1tUGpmvVRod1QTD76HP60g98z7Fs4HFaNG6B4LWvU7DkRDuc+IoQ9Ojb+r11hP64PajWsj2K1GqNWz7EYOrQTyjcbgx3vo4SFII+5qFKnBdqtuRt1fJGQG/uwYM8RrN5/Dd+/3sT62UPQkJ6zTnM0n3IA92PuHBflPChgKnzkpH/ww5tHYGRVChYsCCcnJ2zZsoVVKblw4QK6dOmCjx8/inukneDgYIwZM4ZVIolvwk2Do8CgILGVtSGjvHUO9rh57x4atu+MbkPssNPpELx+/BT3kB3+AQHQ4iUMOTmIPz6+OO5+VmylnuFTprNShdmdV2/fwcjAEHq6OmJP8iCjThrADh4/CfXbdIB5HjNsW+EI/RxWelZWHHN1R6ssnD5ClcmKFykstjjpQZjwOz7ocgKdWqe9TDSHk1bsV64W78kHLmBkAqSBvvAJFu6oakM3PhE14i02TR2D4WMHos2kbTjz9jdCIsLg9+UBDiwai9FOl7Bm3ChMO3IX73xChS+OQHi9vIz108Zi2rmfsSIlwt85wc5uHjZdeoVvAWGICA/At5fX4XrnC/x/3cUFpkAIk0Nvb/iF/sHjc5fwLCzqsQyJhP5HxGdXjBw0Dg4nH+IDPWeoD16cXY2x6+8iQNz1XzSEQZEaJJEhCA7hAkZWp0GDBvj27Rvevn2LokWLokKFCsyrIjAwUNwj9ZBwUaZMGTRs2BDff/7E5Rs3sXnPPoyYOgNFqtViE31fv8TUsqxFxbJlsHzubFw/cQy9O3dkJQebdu2BEdNm4OnLV+JeaccvwB/aWlzA4HBSCommPr7Zvwh4eEQElJWTH6U1ctpMdq2q2qwliyIjj59Lxw6ziiM5qeysLPH188O1W7fROAunBWhqaGDVgrlii5MenL98BfnN86JowYJiD4eTc+ACRiYgMjgIwZGAREUFKvFF3EV44cO3MERGBCEgVBX5a7TD8EG26GdVDHr4g3NLpsDxvj/UzGuiVz9bDLKpBHM1epwnnNfuxd3okh/SXzi+YSsu/5ZCopUfdVt1x8hBvdG1ogmU2Q6RCA0OZoJHSKjoshkZGTtVRFl4jcJNhOcj3PZShJllCwzu3wOtimtDggh8cDsGj0TmlQoK9AYjhUESz5DMDlBlISpvOnv2bNy9exdPnz5lqSX79+9nYf+p4evXr3BcuRKfAkJQtHpt1GvbAcMmT8Pitetx4kzUSuqGJQuZO3t2g0w+rerUxpKZ0+Fx1ImFEPcbPRZ9R43FrfsPUv07JWi1hlJI1NXo4sDhcFKCmakJvnz7JrayLxaFC+HTF08ECWOB5DCgRzc4zpqBs077sGv1CrS3aQ5tLS1xKyc1nD5/ATWqVOa/R06i7Dt6DJ1b89KpnJyJXAUM/4BAtorBiUNEhDD1F5Aoxv8HUTRFXsMoZUOpSCcsXzgKw3v3wcRZizGzvh4kkVJEKhZC71lzMa1fH4ydshQHZ7dAPrKb8LyEk0/EEAq/6zh9wweRykUxcNlGbJ40CMN698PsRaPQ0ijqmRWVo6QMZaWotkRdE5oxRRUVJSiLbbXSvbFp+USMsR2IRfP6oKowL4r0e4JbLxIqkhrJJlCRwrtUEo/PyT6QwScJFzt37oS9vT3q1KmDO3dSbrw4efJk9OnRg+V1koFoaGgYS30ICwtjk+/jO7fliBUHbU1N9O/WFecPHUCZEsXRZdBQ3Lh7T9yacqLTR3gZVQ4n5RQSrm9vP8guTS6zoiKMAYoULIBnr16LPYlT0qIoihctAgN9btIpK6LSR6zEFofzL589v+Lh02doWr++2MPh5CzkOouklUSvn7LP687qSJSUoSTMKSKDAxEY3wKrognMjCkUUwLd4qVQNEpjEP56+qhdvRRoPVXR1BK1/98Aw5o90L2sCoveePL0BxNIQt+8xMsQQKlYQ7QvoRG1K6FeAmXy00dBAiVh8KIg/KemqiLaL0lifUgkFIHBNqiicvNmKCI+paJpTdQpqghIf+Ldx4SSSELgFxAmHEQDOrFUEU52goQLMvrs2bMnmjdvjn79+jEzzuRw69YtuLq6YsqUKZg2egSmjLATPotReVUUjkzpD92G2mH0jFksGsPPP/ukkcQHGertc3bBbqfDGN6vLyqVS32pWvpd8fQRDid1kBHl2w8fxFb2hiK/Hj9/LrY48uTb9x8sbbBejepiD4fzLweOuaBV08YsapPDyYnwZfBMgIKWFrToLxH8E57e8VXnUEIufW3hjyWBikrsi5WaoQF0hcdKdPShH/OvqWiC6hXyC4+MxFfPr6CEkIhfv/BLOLyaSW6YxKwuoqAKVTF3JdowUUlVRXhsPCgrR/UrmqJ4Ud3/P0CKRihZmCqoSPH75y/2fP8Q7o0ff6TC8+nB2DBueRNOdoJSS/r3748XL15AT08PpUqVgoODAzN6SwhKjxg+fDjmzZvH0lKIXp06YNa40cxhm1IgalaujOO7tgsT+XI4dOIUatq0QU+7kdh+wImtSGQnnr96jQ79B+H0ufPYv2EtEzDSUkHEzz8A2ppZNyS5fk0+oOdkHBT1JUs/msxMlIDxQmxx5AkJ89Z16/CqEpwE+Wve2Yqbd3JyLlzAyAyomiB3LuFPIf2El29iOmZGowADfR3h30iEhcZJz1BWZv4VEnW12KkeUIK5uanwrxS+f/4wH4vIsDDQoyUKcf7sEX/wyzcqtYfC9AkFVTWoxhMkoaCiIvplaEFPJ5ZiArPchuwDFRwSFNs3I5rQd3hF5VNV8qJg3tRPxDhZB11dXSxevBhXrlyBh4cHSpcuDRcXl3i9HPbs2cM+f7169RJ7omjXojkWT5/C7h85dRq5jY3RtW1rbHFcjGsnnNG9XRs8efECbfv2R7NuPbF03QY8ePI0y6ar0cRh3Ky5TJjp1Koldq9ZKZMyhBSBoaUZI/IqC0GpRNPHjBJbHE7yodSGzjIY6FNVDooGI4PF7E7hAgXw/uMnscWRJy5u7mjJ00c4iXD+ylVW5ceiUCGxh8PJeNo0bSLekw9cwMgMKBVGyYLKQKQvHj9+F0/0ggSaGursXkhIHAFDGhG1v4LSPxETypqa0JAAoUFBbB9FVTWoCe1g7x/4HXNuF/AUD99ThxT+wuCMxYAIA7X4BAyJKJhAog7NWIqJBNrC5Ih6wsPiiyIB/G9fx+1AQMWiDCpmzXkUJ5UUK1YMx48fx8qVKzF+/Hg0adKEGX5GExAQgIkTJ2LFihVsshqXpg0bwHH2DHY/pvhBTufW9epi0bQpTMyYM2Ecc9EfP2cearRojcnz7XH20uVkG9JlFCS2uJ6/gM4Dh7AyhJSD7rZ/D1thie/3kRrIg4ibwnFyGiQ80DVCFjhtWg8dMTosO5MvTx68//xZbHHkBXmsUPnsqpYVxJ6syZv3H3KEX0xGwc07OZmRkQP6iffkAxcwMgMKOqhRqRhUEIF3N6/j7T8KhgRaGurCv1ERGLHWlcMj4o92IKjkqXATGR7OIi8Uc5vCRPiLhz2/Avev0SJDIO7vP4TL/lGTQj8/P+FZhIeqxR+BAZVoAUMVGuoxPz4KUFFRYs8XLxGfcWj/RfyQqsGyfj3k5RkkORISLh4+fIhmzZqhbt26LGXk169fWLhwIWrXro0aNWqIe/6LjbUV9qxdleAKKKWtUDnS8UMHw3XfbuxbvwZFChbE1r37Ua2ZDQaMnYD9zi744e0tPiJzcPXWbbTp0w9rt+9Ejw7tcO7wAQzs2Z1NvGSJr78f98DgcNIAXWNyAsaGBggMDGKiJ0d+HHN1Qwurhln+c7Z13368fv9ebHFkyZev3/DgyRM0a9BA7OFwciZcwMgUKCJv/YaorAGEvzqDw0/jVvH4XxyQhoUwMeIvUikSrEgaFg5KCIkWFZQKloUlpaoE3sGSUZMxe/16TB1li15bniDKdjMS/n7+LAKDpZCwPur9n78mngqKUIzz6VGURHVIWKnUmEjheXoN1twNgMSoAXo3MxPeMSenoqysjBEjRuDZs2cIDw9n1UvmzJnDRIykqFKhPHR1kjexL2CeF327dMKuNStx8eghNjC8eusWrDt1Y+kmq7dsYz4TaSlNmhboufuOHIOp9ouYYHFk6yY0b9SQmZWmB1+9vsPU2FhscTgcTvxQpaJ8efPg45cvYg8nvaHvIRIwWja2FnuyJsHBIbh84xZqV60i9nBkyQGX42glfEa4eScnpyNXASOXvr4w6eWaSXwomDXFoObmUIr4gD1Lt+JWnEVmJVGRV1ZVhwq7JxKRcASGNDwM4cLcTFVXFyxjQ60Surcrwe4HfryCHVt3Yt+1TwiADooWJv+KKAGDkAgXR3Z5jJTGOr6CqnJUGVXh9cQVIcJFzwENdY1YHyzpN1fMXXMZ3tBGrd69UF+2C8ucLIqhoSHWrFnD/DF27doFc3NzcYvsIdGDBobL587GjVMuGDt4ILz//MHA8RNRt017zFrsKAy6biJU9IBJT8iLYobDEvQcPhL1albH6X270axhg3Qvb/rpiyfy5TETWxwOh5MwufT04P37t9jipDdUElNBQZEZqGZlXNzd0bBOLVbynCNbaMHn4DEX5o3F4eR05KomrLGfB2Nh0sKJDw1U7Tcc7c0VEfh8N4bPOoqYfp5KpnlgpmUG6wbl/0ZGEJJcJjDVzIWy5YuyaiQxUdDVQy4NMzSqU1Z8jDJK9JiF5X3roLihOpSV1GFcuBp6T1uGxdYmTMAICfADuQVIdI1hqq0Ni0plYB7zuGpGMNXXhHnVyigV5eb5F2UdXehq5UO1Cnn+9+OI+IrDS9fA3TsS2pa9MblVHh59wYlF2bJl0a1bN7GV/qgoK6NG5UqYPnokLhw+iE1LHGBkaIBlGzajSpMWsJs8DUdPueKPj6/4CNlAK2ynzp1H487d2EDEff8e9OzQnr0eefDJ0xPmZlzA4HA4SeP14wdMjY3EFie9OSaad6a3kJ2e0HfczoOH0KN9O7GHI0suXL2OPKamKFaksNjD4eRcJKGhoXKJn6awcU7SBDzegt4jt+KevwpK9XLE3sFlo6In0hn/+/thf/wjjGp2wdD6ef8xBE0dEfjkPBnt7K/gt141zF6/EF3ycfmCk3khfwxy+D536Qqu3bmDkhYWaFi7FhoJPwXypT5ChPJWKeqCSr3OnTgOlcqXE7fIj9qt2mH3mhXMoC+rQQPjE2fOsTQgDoeTvtD5VqpuQ9x2PQEN9SgDcU76QYJ2rZZtsW/d6jR9z2Q0V27ewtZ9B7BpqYPYw5EltqPHonnDBmjbvJnYw+FkPqKrWaY3PJ8jk6FZujdWz+yA0lrheHv5Kp7J53MArfKdMHfqOIyQmXhBBODZo9cI1i2JPlMnoxMXLziZHCMDA3RsaYN1Dva4cfI4+nfvivefPqHL4GGw6tgF9itX4/b9B4iIiL/STlxoIrD3yFG07m2LCmVK49jOrRkiXlBqzE9vb5iZmIg9WQv6PS5Zu15scTjJ5/vPn9gmTKpkCX0e5zqukEvKWUbw89cvaGlocPFCTly/cxe5TYyztHhBLNuwCaMG9hdbHFni+e0b7j9+wiqycTiZkV1Oh8V78oFHYGRWpFJIFRSyhcJEzhhcKeNkZajM6ZMXL3Hm0mWcvXiZhVfXq1GdRWfUqloFWpr/x0nR5IaiOKhk6aot21jVlEXTp6BowYLiHvLn/cdP6DNyDM4flu1ETl7Q779h+85Z9vVzMg4q6Thv+UpscVws9sgGEjAoxaJfty5iT/bh3uPHmL1kGTMW5qQ/42bPQ0mLIujTuZPYkzWhCEZaBODIHhKHfHz9MGPsKLGHw8lckJ+cxxEnHoGR48km4gXBP2ScrI6CcD6WKVEcowb0w/Fd23B022aULVUC+446o6ZNK/QZMZqpz55eXvjw+Qsr2dpl0FAWUkt+G0FBwUzYyCg+kv9FFjbwzMjfHYcTH8P79RHO/2N4++Gj2JN9+P7jJ0y4X5lcoKodZy5eYhWosjpcvEgfmHmny3F0bs3NOzmcaPjcksPhcFJIntymzKhs2wpHXHY5io6tbFh4Z8sefWA7agzbx2XnVuxfv4ZFD4yYOoOVTCUPjIzg4+cvMDfLLbayHtLISCjErdvM4WQgOtramD1+DMbOmoMwYYKRnfjt44Nc+npii5OenLtyhYnj3OCekxAe164jt7EJN+/kcGIg1xEhrVQEBVONCw6Hw8keaGtqommD+lg8cxqunzwG+6mT8cTjLEoULYqK5cpiwrAhcDuwB1UsyzMvDMrHT66Hhqx49Pw5ez1ZlYjwCF6Cm5PpoOgqyzJlsGLjZrEne/Drjw/09biAIQ9cXN3RqrG12OJw/oUivXj0BYcTG7mOCB1Wr82W4ZYcDodDKCkpoXL5clBVjVnsGFAW+gf36okDG9fh9PkL6NB/EJau34g123Zgy979zOjz9LkL+On9S3yEbLl17z6qVCgvtrIeAUGB0NSQRz0mDidljBs6CDfvP2AlkrMLv//8gb6urtjipBc+vr64dvsOrOvVEXs4nNhQWuqdh4/QrBE37+RwYiJXE08yKmrfohmqWlYQeznJJuAjLp+7iJvvfiFU3QwV6lrBykI3tgIV7o17Z11x4XUA9MpYoUOdAtASN8VC6o2rB/bC/XMoYqWWSyRQVDdG1Rbt0UjvA9zcruHJVx8ERqpAz7ggKtWsiar5tGI/Z+hPPLp2BVdffMbPAEDDuCjqNKqHiiYq4g4cDicmlFJy4sxZvP/0GcEhISwqLUS49frxkw1UjAxysWtkVUtL1KlWhYWqpwU6brNuPXDr9Anm5ZEV8fP3h/vFS2jbrKnYw+Ekj/Qy8YyJ9+/fLKoqu6QBTJ5vjxqVK/OyxenMfmcXXLx+HasXzBN7sg4PnjyFupoaLAoXEns46cGKTVvY9WXWuKjUVA4nsyJvE0+5ChizlziyL8VGdWqJvZzkEP7eBaNGO+KUZ6jYI6BkAuvxjljRMl9U2dOQV9g2YSwWXPcGC06X6KDasBXY0q0I/pESgtwwpNlsuAWJ7VgoomivVRjzayoGu3gj1odDUR+Vuk3BykHVYCTMgwKfO2HctHVw/RQ7LUiiVQajV63A4OK88gyHkxJoEvT89RvcuHuPrczdvHcPVSpUQNOG9dGodq1UiRnH3c/Cxc0N6x0Wij0cTs7BLyAAT56/QLWKlmIPJynIWFJFRTnLCp5Zhe5D7NCzY3tY16sr9mQNHj17jpHTZ2LtwvmwKMQFjPSCxgN1W7fHxqWLsnQKKCdnsOOgE3p2aJ89BYyVm7fCxMgQHVvaiL2cpAnD/VW90Wn3d+Sv0xbd6llA2/MsVm+/iE+G7bBz/yhUVY7Aq512aLf6CTQrdcbI5rlwe+dGHP1eHnN2L0Jnk7iDkBB83DsOTVZ9R/Oxw9HCRCL2Cyhpo0CpQrgzswUmPCiNQWM6oLxqEL69uoPjx9xwyzsXOi/djbmVPmNlv/5Y/kIJBarboItVWeTBdzy67oETl9+h9Pj9WNU4bSvHHE5OhyZf5y5dwTE3N3hcvY6Dm9ahQunS4tbkMdNhKfKYmaJ/t65iD4fD4XAykm/ff6B595646nL0n5TDzMzZS5exYMVqrJw/m0+q05lzl69g9dbtOLR5g9jD4WR+smUZ1Xx58uDjZ0+xxUkeyijZbgLWrd2OowsHo1fThmhrOwlDqqgiMjAQflJhl7CnOOTyBMGGDTFj3kB0atoJs0c1Rd6gOzjs9jkqIiMWqjAy1IUK1JGndBXUrVH9/58qpZFfMxyhYZFQ0CuGeg1qo2E9a3TrPwnb5rRBAclPPH/xHQh/i2fvw6BeeSh2LR4O26b10KRpR4ybtRoX3FywnIsXHE6aIYPQJg3qQVlRCXWqVUVJCwtxS/K5ef8+qpTPuv4XHA6Hk9047n4G1nXrZhnxgkpZbz/gxFIadq5ezsULOcDNOzmchJGrgJE/bx58+PxZbHGSi0rusqhf3gx/LeyC3+LFp3AoGprATBEI/3AL179EInfdZqivG/UnVS9TFZV0I/D03gP8YT1xUJAgRtxFbKQRkEojAUXFqPSUaIKDERwpgZq6urAtN8yNFBHm/Qkf/UlFiYHwOOFlcTicNEKh3IMnTIaCcE6tc7CHqkrKvGW8f/3Gl69fUbJYyoUPDoeTNm7ff4Af3t5ii8P5Hxc3d7RsbCW2Mjf+AYEYPmU6rt26jd1rViG3sbG4hZNefP3+HbcfPETzRtyHhsOJD7kKGAXMzZlBHSeVBH/Fbff9mDlqOnZ81EClZg1goQSEvn+P91IVlChVDH+1fOWCsMgrQdjnj/gQTzSPgkT400d+xqFZg9G2b/+oH1s7THT5iAhEMu+LSJ/3uHXnIR48e4rbV45izrpz8JLkRdmSesLxS6HXUBsU+XYQvTr1Qd+5a7DB2QN3PAMRR87gcDipgIwrbUePhY6WFlbMnQUV5ZR7yhw+dQrW9eqxKigcDke+/Pz1G50HDsGh4yeZeS+HQ5CxLAlbWaUylKqqChrXq4u1ixZAS5NXg5IHTi4nmImuBi0Ycjicf5CrgKGnq4PpY0aJLU5KCbqxGUNmrMSue96Q6heBZX4NSIX/Av74IkSiDUODGKGIivow0FWENMAPvvGNmyQSSCKD8PX1Mzx8Kv48eYwnnv+xdxdgbSxdGIA/oHiBuru7uyt1d3d3d5dbd3d3b2/d3d1dqRtWoED/zHb427QJF0lC5Hvvk8ue2YS2ENk9O3OOz/8LdwZ/Oolx3TuiVou2qN9rEtbd/YYEpZqhcSZxImWNRCV6Y8v6eZjUtCAS+NzFjkUjUb9ObdQcsxsP/H9+DyIKPzFzolHHLkibMiUmDx+itGcNLzHll1NQiaKOWP61Zu5snLtyRblIIArzEu3Yf0B1cloGNjamMVdVJMAru5dRHTZqnbdLOiSKd27YvlP12V1NjhDRnwyawKDIcSw+ECcP7MThxaPQMd0LLOjfExMu+cr5Etb4s2D4j+AfEBMtNH7mqMasrFOj/aK9uH7kgHK7cXQ/trXLiGjWVrARCQ7nTKjRqBbqlHdHjWr10HPITGwaWhaJfvtz7OJkQqUG7TH2nxnYtW0T1nXMhHf/TkL/tY8RKO9DRGEn2p427NgZJQoXwrDePSJ8kHv28hVl1kaurOEr+mlsxEyU5es3yojItIjC5ROGDMLYgf0xd/lKJTHJRIblEonlHXv3m8zyETK8E2fPI07sWMiUjnVGiLRhAsOkWMPOOSaSZS6JrkNaoJD1S+w9cAvO0Z0RLfgrXr/5rZ1p0Gd88g6GVfQYiKHpt2xlDSux2MPaQZmiJm6ODraydoXqq9iwTQb3tj3wz/ChmDigCzpWyob4oc1it4mJ3HVboHqyINy5cgNf5TARhY3Hmzdo2KETqpUvh57t2kTqite6bduVKzimftVMzA67df++jIjCx+PtW0xfuFhGUUecjKyYOQ39OndUrrCSZbp26zaiRbNB5vTp5UjUEs/Fm3fvYtqCRcqSRZFgoagV8tlNZEpEgV9DYgLDJASpPmTkpmTt4AB71W9PfNjYJkmKxDb+uHr6LD6GLBfxvYMbT37AMVkKpNA0+1x1UmOt+r6BQZo+rKLB3lb1zQMDERjez7JgP/j6qx7ED0GicLn/+DHqte2IxrVromPzpnI0Yj5+/qy0Xa1RoZwcMV1XVQf82TNlkhFR+Hz75odrt+/IKOply5QRRfLnk9Hfbt27j2cvX6k+fjmH0RyJ5SNVy7lHaWL5zKXLWLZuAzoNGISStepi2oLFiB0rJiYOHWzyCW9TJ9rrnrtyVal/QWRKNv+7W24ZhlVAQIBBzjRtI1CAjoRA3F/WEbXXfEf5tr3Qr0YWxLYJwOPNg1B/8g3kHLAG892fYFj9Hlj9PikaTZiFYYWi4crc7mi24jny9V2DRTXi/pWp8j8xFsX6X0fV2SsxKMefvxt/7B9eE52O5cTUPaNR2UEO/y7wMVYPHYttyI9GjWqiYubYsAv+jPOLBqH90luIVX8mdnfLhvD1TCCyTDfu3EXrXn0wsGsXVCvvLkcjrt/osXB2dDSLmkNte/dD19YtkCVDBjlCFHaiYOKY6TOxZOokOWLcxFWs85evKDNHlG5gvxHtK5MmSiQjdaLGxqfPGnuO4d/Vy+HspLn4YokadeSWOgd7e+xdt0pG6kSCtFbLtjJSlzhhAqyeM1NG6h48eYI2PfvKSF3WjBkwc+woGak7qzrh7j/6HxmpK16oAEb06SUjdbsPHcaEWXNlpK5GxfLo1qaVjNSt3rwVC1etkZG61o0aKElmTcTvbsu/e2Skrm/nDnAvXgyFq9bA+vlzkSJpErkHGD5xCo6ePiMjdeMGD0CB3LlkpK7LwCHKZ4cmCyaPR7pUqWSkbtzM2YgdM6ayvDBb5kws8mxEZi9Zhtfv3mN0/z5yhMg0FK9RG8e2bsL37xo6R+gBExgmwPP0JNTsuw1PA63gGCsxEjn74NXLz7BK3wzL57ZBLscgPNnUB3Umn8cXaxckjGuNj2++IihxNSxY1gfFXeQ3+o3/6XEo1ecyys1YhaG5/0wzBODU+AZosTs9Ju4bi2oaExgPsLBrN0y87Ilg2CB63ISIg894+d4HQdFzYuDCaWiRks1Uif7L5Rs30b5Pf2WNfJliReRoxB09dQbDJk3Gv6tWmHzFeP+AAJSt2wCHN62PUCFTIlNLYJD5OnHuPKbOX4gtSxbKEaJfxHIeMSNmzrixyJLBOJYYEYWVoRMYUbKE5MrNm0pGncLGtVB3rJraEbVzJYPzt9d49t4aKYu3xKwJLZFL6bBkg5Q1h2FBj0rIk9AKnz74wy1DWQwe1UFj8kKIliQVUsWIg3gxNT0FbJAsdXLEiJcA8bU9Q6KlRZvpK7B2UGNUyJZY9fd6i5dfrZEwS1n0GT8CzZi8IArVzv0HMGLSVLTr3Q8Thw3WSfLC08sLg8dNwLhBA8yi3d2FK1eRJ3s2Ji+IyOQpxTvdWbyTNDt57jxixYjB5AVRGETJDIwLV68pVeVn/TNajhARWZZmXXvg1PkL2LBwnk46hYh6OGLpiL2dHUb1M4/ppyOnTFP9bLJyPTBFGGdgkDHw8/NHwcrVsH/9asSNHVuOEv3Soe8AFC9UkK3PySRZxAwMcbB+8+49+Pv7yxEiIssypn9fuLm6IHGCBHIk4gJUHxgDx45XCgD269xJjpq+Ds2aoFSRQjIiIjJNh0+dUgq4MnlBmoj26aL1eeWyZeQIEYUmShIYNjY2yJcrB05duChHiIgsS5JECVG3ahWlfV1kfPryBc26dFd9/awUhzOHpSMhxMG+aPFMFFGJEsRH347tZUQUNbh8hEKzade/qFSmlFl9fpNl6dOxg9wyjChJYAjVyrmrXrCGbblCRGRMxAyDQydP4u6Dh3Ik7Hy/fcN21UFxzRZtkDNrFqXwFw9+iNQ5OjggQ9o0MiIyvK+enkrdN/eSxeUI0S/BwcFYv30Hl46QSTP0Ut8oS2AUzJMbD588wbsPH+QIEZFlcXVxQbsmjTF3xUo5op14r7x9/wEOnTiJXsNHolDl6ti+dx8G9+iGvp06KDPbiIjIuOw5fBRF8ueDi7OzHCH65eT5C4jp5sZW4UThEGUJDGtra9SuXElrz2wiIkuQMllSePv4yEi7uctWos/I0Vi6bgOyZcqEgxvWYsm0yTrpXkJERPohOk5VLe8uIyJ167Zx9gVReEVJF5IQ3j6+yldOeyYiS7XvyFFs27MPcyf8I0eIiMgcvH73DpUbN8PpXduVDlFEvxMzK8vVb4zj2zdzhg6ZBbPuQhJCJC6YvCAiSyY6iNjZ/Z3gtVSiHsjDJ09lRERkunYdOIhyJYozeUEabf53NyqUKsHkBVE4RWkCg4jI0olstZ0tD25DjJk+E1++fpUREZHp2rnvAKqU4/IR+ptSvHPbTjSoUV2OEFFYMYFBRBSFAoOCYG3Dt2Lh8o2bCFL9PPLkyC5HiCLnpcdrjJw8VUZEhiNmkn349An5+H5GGpy6cBGuLtGRJUN6OUJkuoZNnCy3DINHzUREUUjUBwoMDJSRZZu1eCk6tWgmI6LI8w8IwNOXr2REZDg79h9AFfey7BBFGq3bth31q1eDlZWVHCEyXUdPn5FbhsEEBhFRFLKNZovv35nAOHrqjDIbpVDePHKEiMg0/fjx4+fyEfeycoTol/cfP+L0hUuoUo7PD6KIMJoEhniz7zlsBDy9vOQIEZH5s7ONZrCqzcZKXCUfN3M2hvbszqtRRGTyrt66BVvVe3vm9OnkCNEvm3ftRvmSLN5JFFFGk8AQB62Z06fH1PmL5AgRkfkTS0j8LTyBce7yFZQoXBBpUqaQI0REpkvMvqjqXpYJWfqLUrxz+07Ur15VjhBReBnVEpKmdWvjwtVruHXvvhwhIiJzV6xAfvTr3FFGRESmS9Q02nXwECpz+QhpcObiJTg7OSFbpoxyhIjCy6gSGLbRomF47x4YOHacMqWYiMjcBQUFIxqLvPFKJRGZhdOqE9SkiRIhRdIkcoTol3XbdiizL/iZRxRxRlfEU7TPE1fjJs2ZJ0eIiMxXUFAgbKyN7q2YyCwkSZQQo/v3kRGR/u3Yu19ZPkL0pw8fP+Hk+QuoVt5djhCZh3GDB8otwzDKo+aubVrhyo1bOKV6kRMRmTPReYNt9oj0w97ODonix5cRkX598/PDoZOnUKlMaTlC9MuW3XtQrkRxuESPLkeIzEPB3LnklmEYZQJDLCWZ+c8oZMucSY4QEZknf39/pZAnERGZtsMnTyF7poyIEzuWHCH6SRTvXLdtO4t3EumA0c5bThgvHtsLEZHZu3HnHjKlTysj8xcUFISJc+YpVyqJiMzJjn37UbUcl4/Q385eugxHR0dk58VZokjjwmsioih0/upV5MuRQ0bmb9zM2fDx8YWjg4McISIyfV++euLcpSsoW6K4HCH6hcU7iXSHCQwioigiDnhfenggU/p0csS8iQO4e48eY3CPrnKEiMg87D1yBEUL5OfsYfrLx0+fcfzsOVQrx+KdRLrABAYRURS5dP06cmTJotT9MXf/HjyEVZu2YOaYkYhmAf9eIrIsO/YdQFV2lyANRPFO9xLF4OriIkeIKDJMKoEhiiOt3bpNRkREpk2cyNepUllG5mvfkaOYs2wFlk2fAjdXVzlKpH9PX7xEr+EjZUSkHx5v3+Leo0coViC/HCH66cePH7J4ZzU5QmR+ug4aKrcMw6QSGHlzZMfmXXuYxCAis1C8YAFULmve7fa+BwZi067dWDptMivzk8GJorGfv3rKiEg//j1wSGmPKdr2Ev3u7OUrsFM9L3JmySxHiMzPtdu35ZZhmFQCQ/RNXjp9spLEWLFxkxwlIiJjJZbHLJw8AfHixJEjRETm5Wf3ES4fob+FzL5g8U4i3TG5GhhKEmPGFBw+cQqjp85Qrq4QERERERnagydP8OnLF+TLaTndpChsPn7+jGOnz6I6a6MQ6ZRJFvEUFZ4XTZmIgO8BaN93gDJFmYiIiIjIkHbuO4AqZcvC2tokD6lJj0TxzrLFi7H2E5GOmey7rSh+N6JPL7RqWN8iKvgTERm7QCaTiciCiAKNovtIlXJl5QjRTz+Ld+5A/epV5QgR6YpJp4vFerICuXPJiIiIooroElWrVVv4BwTIESIi83bl5i3Y29shU7q0coTop3OieGc0W+TKmkWOEJGuWAUEBPyQ23pla2srt4iIyFyIhMXE2fNw/c4dTB0xDIkTJpB7iKKeqJMlnqNOjo5yhEh3RkyaijixYqJTy+ZyhOin7kOGK51HmtWrI0eIzNf9R4+RLnUqfP/+XY7ol9kmMMQBC9tZERHpz5lLlzFqyjSUKVoEXVu3VJb2EVHUEEu4xGtQTF1//e6dHFVnbWWNBPHiykidePy7jx9lpC6ajY3WTkLieEsUK9TE3tYOsVUn+Jp88/PD569fZaTO0cEBMd3cZKTOx9cXX728ZKQuupMTXF1cZKTOy9sbXj4+MlLnGt0F0Z2dZKTuy1dP+Pp9k9Ev4udVu1U7bFw0H8mTJJajv4ifibYZabFjxIC9vb2M1H34+AkBgZpPAuLGjq112fTb9x8QFKy5sH2CuHG11ujwePtWbv0tUfz4ckudSAy+/fBBRupsrG0QP65ld50SRV1L1aqHo1s2IoYb61+Q5WACI5LmLV+JS9dvYEjPbkiW+O8PFiIiihhROLn/6LF44fEao/r2Rvo0qeUeItI3cUJ9+cYN5Rjnxp27eKc6cRUn2OIkdcPCeQhQHUA269Jd3lud6OS2YNJ4Gal7pzoh7TZ4mIzUJUmUCBOHDpKRuvuPH2PYhMkyUpc1YwYM7NZFRurOX7mKqfMXykhdkfz50KlFMxmp23/sOJauXS8jdZXLlkGjWjVkpG7Djp3YunuvjNQ1rl0TlcqUlpG6havWKEvk/vTV0xNBwcHYt261HFE3cc48XFb9jjQZ1L0rsmRILyN1g/4Zj8fPnstI3aRhQ7TOcus0YBA+ff4iI3ULJ0/UmqBp3LGL8u/4kzhuXzFzmozUeXp5oV2f/jJSJ5IsM8aMlJG6J8+fY/Ga9cqSm4zp0iBDmjRKssrcLF6zDnfuP8Ck4UPkCJFlYAIjksQViAOqDznxASI+lFo1aqB0LyEiosg7ee48CuXNw8r7RAYkrvrXbdtBOQHMlS0rcmTOrMyo4BIZw+s1fCSyZcqEZnVryxH6L2L2zIUr13D7wQPcvncfN+/eQ6b06VCxVEmULFIIzk6akyymRJx/uNdriH8G9keeHNnlKJFlYAJDR8QUxUWr12LLv3tQq1IFZS2auAJBRERERBRe4tiyYKVqOLhhLeLEjiVHKbzEUhQxk2jPoSNIliQRWtSvJ/eYLjGzaMj4idi7dpXSbIDIkjCBoWNi7ePy9RuVdWlDe/WQo0REpA1rCREZnpie/+7DR6RJmUKOkLHZdeAQNu/6F0unT5EjRD/1HDZCWTplDskYovAyVALDYub+ilkXnVu1YPKCiCgUYvrrlZs30WfEaNRt0x7BGtZGE5Hu+fv7K2vnqzdvhVv37stRMkY79u1HlXJlZUT0kyhKe/jkadSoUEGOEJE+cPHyb154eCgH70RElkS87917+AgzFy9FlSYtMH3BYpQtUQybFy9gjQsyaY+ePkPrnn1kZLzEtPMqTVvg/YeP2LJkEaqVd5d7yNiIk9Tzl6/AvXhxOUL6dO3WbYybMRt+fv5yxHiJIrGlixZm5xGyOI06ai7WrC88MpXEAfz4mXNQunY9DJ0wCUdPnVGmcRIRmbuBY8cr7VDdXF2wcMoELJsxVXVwXoxtUcksBBvxhQlRlHP6wsUYPXU65owbi/5dO/Hkx8jtPXwExQoW0NrVg3QrY7q0cHCwR42WrZXZgcZKnEes27Yd9atXkyNEluPl69dyyzAspgZGWHn7+CrV9Y+ePoOrN28pBXhKFC6Ifp07ynsQEZkW0e5PtFYU7e00EYXUbGxsZERkPsQMjDHTZ2LJ1ElyxLiIE567Dx5hQNdOsLe3l6NkzBq074RWDRugTLEicoQMQSyr6jdqLOpWq4ymdYyv88uFq9eUFriirS6Ld5KlKV6jNo5t3cQinsZCzMJ44fEamdOnkyPqXqr2rdq8Ba4uLkqxOxtr659vXKpbymRJUaxAfnlPdfcfPcaZS5dlpE60R8urpfWSSKpcu31HRupyZ8uqta+4+LPEn6lJkXx5kTpFchmpO3LqNJ6/8pCRurLFiyJR/PgyUvfvwUP48OmzjNRVLVcWMd3cZKRu867d8Pb1lZG6elWrKFl4TVZu2ozg4L+fytbWVmhSu5aM1In1xuu275SROmdHR9SuUklG6kQP/u379stIXZxYMbX2kvd4+xYHjp2QkbqkiRKiVJHCMlIn+sGfOHdeRurSpU6FgrlzyUidaE8mqntrkj1TRuTIkllG6i6qPoRv3X8gI3UFcuVE+jSpZaTu+NlzePL8hYzUlSxcEMkSJ5aRuv1Hj+H1u/cyUlexdEmtJ93b9uzDVy2zpGpVqqj16pg4YfAP0PwG27hWDY0n8uIEf9XmrTJSJ1739atXlZE6Lx8fpQOSJjFcXbVOE3//8SN2HzoiI3UJ48WFewnNU5fFAd7OfQeUn4untxfevf+AN6qbm+r9qV71KlpfC0TmytgTGOKqLU92TIf4HK/SpDnO/LsDdiZ6XGvKxEXGLgMHI33q1OjbuYNRLXEUbXUzp0+Plg1YvJMsj6ETGFxC8h9EYkJb8kJwVp0kZVOdDMaKEUOZbv1D9V+g6mRHTAsNDtJe/E4UxhP30XQLrWiemAqr6THiFurj5N9J0y20uh8h/xZNtx8aEgYhxAmfpseIW2h/3ncN9w+5hSYoUPufp434a2i6v3JT/f21UX7Hmh6juol/t1ah/O6CQvvdhfZcCe3vGdpzJZTfgfi7aHqMuAX/CO05FtpzOoLPsdD+nqE9TvWfNoEReq5o/1mKW2g03V/cgoIi9ueF9lwRPfSzZc6IymVLo33TJpgxdpTqA2Ujdq1axuQFkRFi8sK07Np/EOVLlmDyIoqICxMLJk/AZ8+vWpP8UUFc2Dp04hRqVCwvR4hInzgDg4iIiMySsc/AINNSuXFzDOnZDflz5ZQjFBVCLm4YSwJw2boNyuzoqSOHyREiy8IZGEREREQ6IE5w7FiMlnTg/uPH+PL1q9YlvmQ44nVtLMkLkUxZt22H1qWkRKR7TGAQERGRWUqVPBnmTRwno6jz6csXzFu+UkZkikR9ocruZdhamtRcvn5DWQqbL2cOOUJkebYsXii3DIPvwkRERER6ImrXdBs8DPHjxZUjZGrEVfYd+w+gajnNhZfJcoXMvmA9G7JksWPFlFuGwQQGERERkZ5MmjsfaVOmQI0KLPBnqi7fuAkHe3tkTJtGjpCxEQXPvby9ZWQYokX5geMnULNSBTlCRIbABAYRERGRHly4ek25DejWRY6QKRLLR8TsC15lN15nLl5C96HD/1/g0xBEO/cShQoqnQiJyHCYwCAiIiLSMbF0ZNSUaRjRpxdsWUjUZIn27rsPHUYV9zJyhIxRobx5YGdrh+1798sR/WLxTqKowwQGERERkY6t3rINObJkRpYM6eUImaLT5y8geZLESJY4sRwhYyRmx4zo0xMzFy/Bx0+f5aj+iGVFAYHf2VKXKAowgUFERERmScyCMPS6+BD5c+ZAj3ZtZESmavu+/ahSrqyMyJjFixMHTWrXwuK16+SI/rB4J1HUYQKDiIiIzNKzl6/QbchwGRlWhrRpENPNTUZkiny/fcPhk6dRqXRpOULGrm61Kthz6IhSYFNflOKdx46jZkUW7yQSKjRoIrcMgwkMIiIiIqI/HD5xCrmyZjF4i0CKOCdHR9SpWhlrtm6TI7onZuUUL5gfsWPyeUEk+Pp9k1uGwQQGEREREdEfuHzENDWvVwfN6taRkW79Kt5ZTY4QkaExgUFERERE9JvPX78qLXDLFismR8hUiFkY4qYPV2/dgr+/P4t3EkUhJjCIiIiIiH4j6iiIZQLRnZ3kCBGwdut2ZfaFtTVPoYiiCl99RERERDpw6dp1fPys/xaOpH879u1H1XLuMiICPL28sP8oi3cSRTUmMIiIiMgsRYsWDXFjx5KR/o2bOVvpXEGmzePNGzx88hRFC+SXI0Q/a6IUUz0nWNSVKGoxgUFERERmKXmSxBg/eKCM9Etcnf3i6YmkiRLJETJVO/cfRPlSJWBnaytHyNKJ4p0/l49UlSNEFOLolo1yyzCYwCAiIiKKpNMXLqFQ3jwyIlO2Y/8BLh8xAyLpcOLceRlFzrVbt+Hn54cCuXPJESIKYWVlJbcMgwkMIiIioki6de8ecmTJLCMyVfcfPYanpxfyZM8mR8hUiZOqoeMnIeD7dzkScaJ1ar1qVVm8k8gI8FVIREREFEnPPTyQLHFiGZGp2rHvACq7l+GJqplIlSIZnjx7LqOI8fL2xt4jR1GrUkU5QkRRie/ORERERJH04pUHkjOBYdLEkoMd+0X3kbJyhExdhjRpcPfhIxlFjEhqFcmXF3EMWBCYiLRjAoOIiIgokqpXKMfuBCbu8vUbcHJwVE56yTyIorovX7+WUfixeCeR8WECg4iIiMySv78/Xnh4yEi/mtapbfBCZqRbSvHO8u78PZoRJ0cHfPvmJ6Pwu377Dnx8fVmglygUhm4fzgQGERERmaWXr99g2MQpMiLS7ntgIPYcOoIq7mXkCJkDR0dH+PpF/OTqZ/HOKqyJQhSKCg2byC3D4KuRiIiIiCzaqXMXkCJpEmXJAZkP8TvNnimTjMLHy8fnZ/HOyizeSWRMmMAgIiIiIosmindWYfFOs5M2ZUpUK+8uo/DZue8ACuXNjbixY8sRIjIGTGAQERERkcUS67cPnzyNiqVKyRGydD+Ld25D/erV5AgRGQsmMIiIiIjIYh06cRK5smVlFxn6v5t378HT2xuFWbyTyOgwgaFDwcHBWm8ik6uJGNd0/5CbNpb8OLFPG033D7mZ++O0Ed9P0/1DbtqYw+PEPm003T/kZqmPE+NiPxGFj1grP2vxUhnRfxE/r36jx+LR02dyJGpt37sfVd25fIR+WbdtO+pVq8rinURGyCogIED7EbAO2drayi3TJdoo+QcEIFaMGHJEXfXmreDp5SUjdXvWroK9nZ2MfhFVr8vVaygjddGdnbFjheYDorfvP6BB+44yUpc8SRIsna656vqdBw/Qqf8gGanLkSUzpowYJiN1p85fwJDxE2WkrnTRIhjUvauM1O3cfwBT5y+UkbraVSqjY/OmMlK3fP1GLN+wUUbq2jVtolSE1mSK6s/apfozNenftTPcixeTkbrB4ybi9IULMlI3cdgQ5M6WVUbqOqp+lndVP1NNlkydjBTJkspIXf12HfHuwwcZqdu2bDFcXVxkpM5d9VwJVD1n/hQtWjTsX79GRurEc1I8NzWJFycO1s2fIyN1T5+/QMsevWSkLkPatJgzboyM1F26fgN9RoySkTrRhmx0/74yUrf/2HGMmzFLRuoqqw4se7ZrIyN167fvxPwVK2WkrlndOmhWr46M1M1ZtgKbdu6Skboeqj+ripaD2THTZihX6zQZ1a8PCufLKyN1PYeNwNWbt2SkbrbqZ5lR9TPVpEW3nnj28qWM1K2dNwfx48aRkbpqzVrCy9tbRur2qZ4rtqrnzJ/E+1v5+o0R/ONXEiNpwoTImC4tsmXKqPVnQmSsXr1+o3yWDOzWRY7ox8dPn9Gmd19sWaL5847U3X3wEJWbNMe5PTsRO2bUznr49OULStWqh1M7t8LZyUmOkiXz9vFF0Wo1sW/dKuU4iYhCJ84zxPnL9+/f5Yh+MYHxH756emLP4SNKdv7dx4/o3aEdKpQqKfcSEZkvMRvj+ctXuP3gAT59/oLGtWvKPUT0OyYwwsfj7VvUbtUWp3dtlyNRZ/XmrTh/9SqmjxohR8jSidkXx86cw9zxY+UIEYWFoRIYnBelxZWbN9FpwCDUbNkGLzxeY0TfXji0cR2TF0RkMcTUWTGLqGLpUkxeEJHOuLm44KuWGauGtmP/AVQrF7EuFWT8xCyso6fOyChs1m3bgfrVq8qIiIwNExgaiOUZU+YtVNa+HdiwFn06tke6VKnkXiIi+t3kufOxYOVqfPPzkyNERNo5OToiKDAI/v7+ciRqiJPbR0+eokj+fHKEzM1zDw/sPXJURn8LCgpSlr6GuHn3rrKsqCifE0RGiwkMDcSa8pWzpqNYgfws3kNE9B9aNWygXE2t0bw1zl2+IkeJiDSzsrJCrJgx8Oa95lpQhiLqdJUvVRJ2ZlCnjSLGxsYGjTp0xu37P+uZidkXLN5JZNz46iQiokiJ4eaqzFSbMWYkJsyeqxT8FUXQiIi0KZwvH46eOi2jqKEsHynP5SOW4uzZsxo7bQUGBaFq0xZ4/OwF/j14GLUrV5J7iMgYMYFBREQ6kS51KmxYMBdJEyVSOu08faG5ewqRuYnu7KQU+aawK1+yeKhT+/Xt3sNH8PLy1tpljMzL+vXrUbBgQbRq1eqvJEaalCmUWUH12rVHiiRJcPjkSfQdOQZDJ0zCrXv35b2IyFhYbAJDrLvsM2I0Hj97LkeIiCiyxHTctk0aYXCPrqpt5sgpavl++4abd+/JSH/s7e2VNtEUdkXy5cWdBw/x4eMnOWJYYvZFlXJluVTAAty9cR3du3fH6dOn8fjxY7Ru3VotiREnVkz8+PEDXt4+ePTsGYZPmootu/cgYbx4yJw+nbwXEWnz0uO13DIMi3zX9g8IQNs+/ZE4YQKkTJZUjhIRka4UyJ1LmYlBFJVev32HKfPZ2tQYiaRP8YL5cfDECTliOOLkVdS/qOpeVo6QuTq4fz9OHjqAffv2KTMwdu/ejUePHqklMeLFiaN8DQwMVJKettGiYeHkCejQvKkyTkSha9Spi9wyDItLYIg3px5DRyhTBru3ba1MGSMiIiIiw8qULh0ePnkmo8gTV9HD0tnk8vUbcHZ0Qvo0qeUImSOxbGTWtGk4fPgwsmXLpow5Ozv/lcRIGD++sk+cE0RX7V8zdxZKFi6kjBGR8bGoBIb4YBs8biISxI2DLq1ayFEiIiIiMjQxQyZJwgQyijixDEXUK8heyl25NezQGU+ea18iLJaPVC1flhexzJhIXohlIwcO7P9/8iLEn0mM2DFiKONiKcm2ZYuRLVNGJSYi42RRCYwVGzbBy8cbg3t044cWERERURR6/uoVkiVJLKOI2X/0GMo1aAR7Ozsc2rQO1w7vR4XSJVG/fSd4vHkj7/XL98BA7Dl0BFXKcvmIuQpJXohlI38mL0L8nsRYu2KZUgtl18rlSJE0ibwHERkri0pgeHl7Y9zggSzYREQUBUSRp+ETpyiz4YiInr/yQNLEEa+Vc+LceQwePxHLZ0zDoO5dETd2bKW2RpPatdCoZg2MmT5T3vOXk6rHpEyeDEkSJZQjZE7CkrwIEZLE8PP1Rf40KRAzhpvcQ0TGzKLO5Du3agEX1ZsVEREZniic/PL1a+w6cFCOEJkHTy8vjJo6XUYUFqL2gJghkTRh2BIYew+rt1y9dO06eg4dgbnjxiJLhvRy9Jd2TRrh9r0HOHPxkhz5acc+Fu80V+FJXoQQSYy9e/bg+bNnf3UnISLjxKkIRERkEGLp3qj+fTBt4WKl0juRvjk5OSpFu/Xt+/dAXLlxU0YUVmI5h61tNBmFrvPAwbh++46yfe/hI3ToNxCThg9B7uyaT1TFTIymdWupJUx9fH1x5NRpZYkJmZeIJC9CaCrsSURhlzpFCrllGExgEBGRwYi++uLq58JVa+QIkf6I51unFs1kRMZELOd1dHCAr5+fHNEuKChI+Tpk/ER8++aHroOHon+XjihesIAyrk2xAgVw/My5/y9bO3TiJHJnz4rYMWMqMZmHyCQvQjCJQRRxS6ZOkluGwQQGEREZVJvGDZUuAG/ff5AjRGSJnJ2c4Ov737Ox3n38qBTpfPzsOboOGYoMaVKjRsUKcq92qZIng5W1FR4+farE2/ftR1V3d2WbzIMukhchmMQgMg1MYBARkUE5OTqiaZ3aWLlxsxwhIksklvj4fvOVkXavPF7D1tYW3/z8cOTkaVy+cQt127RHo45dsG7bdgR8/y7vqU4sWwuZhfHx82dcunYDZYoVkXvJ1OkyeRGCSQwi42fWCYyDx0/i1eu/W2gREVHUql25IrJm/LvwHhFZDrtotvD3D5CRdi9Vx3K/n0i+fvsWV27ewoPHT1A0f37Y2drKPX8rmj8vTl24qBQBLVGooDLrg0yfPpIXIUQSY8uWLVi6dCkWLVokR4nIWJhtAkN80I2fNRsO9vZyhIiIjIU4iShXsoSMiMjSiOO0Fx4eSJLov7uQiPuJ2ReCqJshloasnz8H5/fuUrobhSZd6lR4+vz5z+Uj5dh9xNSdOXMGc+fO1VvyQvBTPdcaN26MunXromXLlnKUiIyF2SYwbt69hxRJkyJ2LBZqIiIiIv1xcYmO0f37yojC4oXHa8R0c0N05/+eEXHu8hWlEKdr9OgY1rsH9q5dpbX7yJ8SJUgAj7fv8PjpMxQtkF+Okik6ceIEChUqhI4dO2LZsmV6S17UqFEDrq6uWL16NaJFC1uXHCIyHKuAgICfpZn1TKxdNKRZi5cihuqDsXHtmnLEfJy/cvX/VyL+VCBXTqV1mCYnz51HkJa1fMVUH+pireifAgMDlamXmogpmwXz5JaROtEi8cLVazJSF93JSeuBx1dPT1y9dVtG6mLFiIGsGTPISN37jx9x+/4DGalLEDcu0qdJLSN1YolRSHGvPyVLnAgpkyWTkbonz5/j+SsPGalLkyKF1itCovXbm/fvZaQuU7q0iBs7tozU3bhzF5++fJGRuuyZMqme664yUif65Hv7al5fnDdHdqUWgSaib762NcWF8+bR+oF+7MxZuaXOxtoaRfLnk5E6f39/nFUdnGoirrTly5lDRuq8fHxw+foNGalzc3FBjiyZZaROrIMWCU5NxM9f/B40ef3uHe4/eiwjdYkSxEfalCllpO7Zy1d4+uKFjNSJJGvyJIllpO7BkyfwePNWRurEFUXRXUGTW/fu48OnTzJSlyVDeq3V96/cvAlPL28ZqcuVLStcnJ1lpC7U96PcuZTCe5qcOn9BeR6JWXKOjg5ImiiR8vsm0iUvb2+l9WbhfHnlCBkL0RFk9eatWDJtshzRrmGHzsr77Ig+vSK0BCRH6XIoWbgQpo4cJkfI1IjkRa1atbB27VpMnjwZN1WfWWfPnkWiMMzgCSsmL4giRnzOZsuUEd+1nDvomtkmMERxJ9EfPFlizScHxkr0KL+oOvF3UZ2A5cqaRY6qm7ZgkdaT2T4d28MlenQZqRs9dYbqpFTzWlNxUKApgeEfEIAx02bISF101QlN304dZKTu46fPmL5osYzUJVCdeHVs3lRG6p6+eIkla9fJSF2alCmUwn+aiBPSDTt2ykidOJGtqaVa+dlLl7H70GEZqRNXasoWKyojdQeOn8CJs+dkpK5C6VIoqDpx02Trnr24cuOmjNTVrVpFOcHUZMXGTXj4RHOipWWD+qoT4SQyUjdn2Qq8UZ14a9KtdSutM5QmzJ4Lbx8fGakb1K2L1iTZ0Ama2yjZ2dphcI+uMlInTjAmzpknI3UiadW9bWsZqfN4+xbzlq+UkTrxum/dqIGM1IkkxKrNW2SkLnP69KhXrYqM1F26fgPb9+6Tkbr8uXKiUpnSMlInkjriQF2TMqrnl0gearLrwCGcv6I5sVO9Qnmt7w/rtu3A7fv3ZaROJHTTpUolI3WLVq/F81evZKSufbMmSBQ/vozUhfp+pHp/0Jb4GDllmvIc8/PzVxKez16+VNoqZs2QAROHDdb4fkQUXo+ePsOY6TMN3uKN/pv4fLp265byfia6i1Qr544kiRLKveo8vbzgqjouiqgsJcqgT4d2aFavjhwhU/J78qJ06Z+ftRUrVtRpEoPJC6KIK16jNo5t3cQERmSIJEC1Zq1wcONaOWLclFkO5y+oTm73qT7MbyNfrhyoVami1ivPRETmyNvHV0lkZE6fTo4QRQ4TGMar57AR2LHvAEoXLQw31Umj6BQyc+woZXagLt198BB12rRXkuj1qlWVo2QqNCUvQugqicHkBVHkMIGhA2Iq9OLV6zDrn9FyxDiJK4/iyrpoAZYzaxZUK18OhfLk5hsnEZEGIsHh7OTI2RkUZuadwAjGxyPT0W13XPQZXROOJ9dgwfYLeOhpi5QVO2Nq3QwIfH8VGzfuw4XXgXBNlg0Vq5ZDvvi/L+v6hiendmL1njO49vILgpySIH+NlqjjtwYjruXEyAEVkdxG3vX7Y6wZMxMPSwzH4BJuOi+iduLcefQaPhJtGjVEywb1YGMT8gdHjphRKJYbisRIrw7t5CiZgtCSFyEim8Rg8oIo8gydwDDLIp4pkybTOu3cmFhZWylVuDcvWYjJw4cqU8n5xklEluR7YCCqNQtblffVm7egXtsOuKxlGRaRZbGG3fcPuHX6EDYuHo4mQ5Zh2/lbuPngIe69/gp4X8Q/XXpiyIqd2HFgD1YtHo/GzQdizfOgnw8P/oBDkzuiRu8ZWHbwAq7cfYDrl49g5b9X8PXZbZzbvQjzznj9vK+Kz/kNmH3gNazcHPVy8Fg0fz5sXbJIWXLXtEt3ZZlgZIljrJ37DyqtVnXx/chwwpK8EHbv3o0sWbKgQIEC8PDQXJtMGyYviEyTWSYwREFDUS/B2InidmJtuajCTURkiWxVB4xfPb2UpXT/pV3TxhjQrTNGTp6q1NAQtTOILJlThoxIY/UEm9echmeCYug3bQ0uHN2N3d3y4u3Btdj4whUl2o/FugUTMahEfODLbVx+Il5rwXi7byoGbHoIpK6IkXPW49Khbdg2aThmd6uAbDVrIb/je+xcvg0PlHyHL04dOIVPKUujZlbNhXl1QRTAXj1nJorkz4vqzVopNapE95GIErWLRJeTtKlTaq3rRMYnrMmLEBFJYjB5QWS6zLaNKhERmYZ4cWLjw6fPMgpdTtVB6sZF8xE3dizUaNFa6bRDFNW+fPVUlj8Ymk38pEjqFITvwbFRqesAtCmQDDFtxaFdIO7efgS/oE84uXAIGrTtgzFH38IhXTXUy2sPBL/D3p1n8Mk+B7qO64eGuRLDzTkOshQpg+IpHWGTqALaV0iE77c2Y8FJTwT7XsSB895IX7I00uv5PE8sHenQrCkWTp6AqfMXombLNug9fJTSNSy8duzbrxQHFd3PfHw0d+Qi4xLe5EWI8CQxmLwgMm1MYBiAuEoYmSsIRETmTHS1ER2PwkrM2hAnOKLg3+DxE3Hk1Gm5h0idq0t0lCpcSEb6ExQUhCfPNbdL1ivr2IgXU3UoZ58ZhfP83qXjh+o19R0/rBwRN3lKZM6eH9WaDsSqGW2QV3QhDXqLF++DEC1JNuRPoKnWhCPyNayD/A4fsWfNLty7eBqnPJOjRNFkMNSpnuhIIpIPoo34tr37wr0ERLQC33v4KKq4l1Var2prKU7GI6LJixBhSWIweUGke/ly5pRbhsEEhp69efce9dt1VPrjEhHR3+zsbLW2eA6NaAm7YcFc5NFx1wIyH3Fjx1baB5staxe4RVd9iREHCdRWdlgjftyYsLZOivpjFmPb/MmY3LEisjl9xI3rz+Fj5QRne+CHvz/8tFxfsUlUEa3d4yPg5jYMW3kWnxPmRtGU+j/Z++rpicHjJqJMnQZ4+foNti9fgodnT4a7O8nJc+eRKkVyZVmKSGCIDnVkvCKbvAgRWhKDyQsi/Zg4dJDcMgwmMPTo/cePaNGtJ7q0bonsmTPJUSIi+p21lTV+BEdslppL9OhwcXaWEZGFsXJGdEcrWKlOxGzVmvPYIm22TIj14xEOHHgAf9VIwPuLmNWrNep0GIGlzxMgcxoXBHucwb9XPRGs2h/s/QxH1s9E73+2Kd8BcEKh2pWQycoDl298QqxceZFFzw3lDhw/gQoNmyCajQ0Ob16PcYMHRLitsmjRWtW9rLLt7MwEhjHTVfIihKYkBpMXROaDCQw98fTyQuuefdC1TUuULVZUjhIR0Z/YFpUogqydEN1JdSgXFATZW+T/nPJXRY0Uwbi5vDvK1q2DQjW7Y9oFf2So1xr1UrigaPUKSGP1DCu610Xxeg1QpEoTtJm6CWe9HOR3AKKlqoBaOVWxlTNy58kCezmuax8/f0a3wUMxbuZsTB89EsP79IxUgXORrDh6+gwqlC6pxEoNDCYwjJKukxchQpIY+fPnx+PHj5m8IDIjZpnAEBXqnzx/LiPDE2u52/buh4Y1a6BCqZ8fnkREpNmCSeORLnUqGRFR2NkiadKkSJg2DRL+eURnlwWdh3ZDpZTR8OmNF5zTlUSnMfOwpmtBxFXd1zFHG8wcXAsFElrh46sPsEqcDw17TMXmkeXlN1CxjofyFfIjfuJiqJRHFM/QLZG4WL15Kyo2aoqE8ePj35XLw71URJODx08iT/ZsiBUjhhI7OTrC95sf65EZGX0lL0Ls2rULnp6eSJ06NZMXRGbEKiAgwCDv5ra2ep53+Jv2ffqje9vWyKD6QI8KIoHiqPqw7NOxvRwhIiJD+ubnB0eHX1eSifTp46fPaNO7L7YsWShHSJu37z9g/7Fj2Hf4KG7evYeiBfKjdaMGOl1q27JHb1Qv746q5dzlCJCleGmc27NTqYdBUU/fyYvg4GC0bdsWl65cQdLUabFlzSomL4j07Pv373JLv7iERA8qlS2DHm1by4iIiAxJXNUVrRe9fHzkCJF+ubm6YNbYUTKi34lZD/cePsLsJcuU1seixsXVm7fQtF4dnN29U+kmpMvkhXj9X75+A2X+WL4rEpp+fqIaCEU1f39/uLu7o2HDhnpNXty7dw+Tpk1HpmzZmbwgMiNMYOhB7mxZ+UZJRBRFYseMidqVK2HCrDlyhCzV569fsfvQYRnpj/jMT5QggYzMl2gXu3DVGrz78EGOhO7R02eo166jMjvl45cvysxUMQti8vChcC9eDA4Ouq+qsefQEZQsXEhZNvI7axtrBP8Q5Uopqm3btk25Urtw4ULs3LlTjurG78mLPXv2wIkzboj0ztDt7JnAICIis9Osbm1cvnFTufJLluvT5y/YtGu3jCiybGxslBPEQpWrY8j4iVoTGYGBgZi/YpXSRl50Ajm6ZSOG9uyOQnnzwFbPF3h27NuPquV+dh/5neh2FBzBbkekO+vXr0f37t1x+fJlzJ49G/Xr19dZEuPP5EX06NHlHiLSp+GTpsgtw2ACg4iIzI64It6/SyeMmT6ThfuIdKhZ3TrK1/Xbd6JkzboY9M94vHn3XhkT7j96jNqt2+HUhYvYunQRGteuCWtrwxxuvvDwwJPnL1Akfz458ou1tRVnYESxkOTFvn37kC1bNjRv3lxnSQxtyYsMaVKjeb2fz1kiMg8s4klERFHK99s32NvZKVd3dU0U82tZv67GExoyrJBEktavyv9/+nOfauP3L6r7qu////1Ufr/Pk2fPMWnufMz+Z/Rf9/3tIdq/X8iXkPE/7if8/67a7hMyLkNB231/PeT/Gz+/yPsJf95H2/cKecj/Y5W/76t8+TX+//uGfNV8n537D2Dtth1KLQMxo0IkKCqULoVCeXKj76gxGN2/L+pVq2LwFslzlq3Am3fvMLJvbznyS5EqNbBh4VyLWOpjjP5MXvxu2bJl6NSpE9atW4cqVarI0bDjzAuiqFW8Rm0c27rJYEU8zTKB8eHjJ7i6usDOgH8mERFFTJtefZW18fpopXrx6jXlpGbJtMlyhCIia4kyyrKAXyfAP/154hvyNaxCTnD//CqEbP217/+x8kV1vz/2q4Rsi7+P6jjnV0ea/z9W02Pk1z++3//vE/IlZDxkQOXXfZUvf93n1/eQX1X+675/7v//gMqv+ypffnuM/PrH95KhQvt9lS9/7Rd+3xb8/P3x+Nmz/y/JsFbtD1b9rMsWL4rL12/CvUQx9OvcCdGdDVd/QPyuKzRogjED+iJ3dvUTZKFotVpYN282EidkAsPQQktehIhoEoPJC6KoxwSGCVq4eg1yZc2qFO8kIqLw0WcCQ5zUvHn/HgnjxZMjFBHiSnvIGe7fJ8A//TUuvwq/bxuSKCIplhEtmTpJjpAudOo/CAeOHVe2xfFdsYL5Va/hDkiVPBk8vbyUn/nZS5cxbvBAFMydS7mfvt198BBt+/RT6m1oWrKizMBYNA+J4seXI2QIYUlehAhvEoPJCyLjYOgEBmtgRJKoyL12yzakSZFcjhARkbEQJ85MXkSevb29ssxH3MTsRnETSwfETdQbETexBEjcxMmjuImffcjN3H368gUtu/eSkXkTNS72HT0mXlwoWaQwdqxYirnj/1GSF4KriwvGDx6IEb17offwkUqNDNHaVN+279uPKu5lNSYvBFH/QhTyJMMJT/JCCE9NDCYviCwX38kj6cadu0ibKiXcXF3lCBERERmDmDHcUKNCORnpz4/gH/ji6Skj87ZozVrEix0b/65ejvkTxyG1lgs4JQoXxJ41K+Hg4IDy9Rtj+fqN+B4YKPfqljiZ3bX/IKqVc5cjfxPLXUQhTzKM8CYvQoQlicHkBZFxqVCypNwyDCYwIun42XMoVqCAjIiIiMhYxIoRQ7kqT7ohThzbN22C0/9uR9qUKeWodmI2xpAe3bB67kwcPHESVRo3V7qXHD55CpeuXceDJ0+UVqwBkZx2fFH1vVxcooe6DE383TkDwzAimrwIEVoSg8kLIuPTv2snuWUYfCePpONnzqFoAVa3JyIiIvMmlmeELBUJj3SpUmHFzGno2b6NUhtj1eatGDdztlJLo2rTlihUqRr+PXhI3jv8duw7EOrsC0Gc+FpxBobeRTZ5EUJTEiMiyYubd+9h/opVMiIic8AERiT4+fnj05fPSJY4sRwhIqLwiuHqqpcWqkRkPEQtFPcSxTF15DClqOrGRfOxf/0anN29Q+kSNHX+IvQePgpe3t7yEWEjZm/sPXwElcuWkSOa+fr5/epGQ3qhq+RFiN+TGNu3b4/QzAsvHx88ef5CRkRkDswygSE+AO8/fiwj/Xn64oVyVYGIiCJu4rDBWtfR65LoUkBExidbpozYsWIJHB0dUKlxM5y5eEnu+W8nzp5DmpQpQm2PKpIcog0wExj6o+vkRYiQJEb16tVx5swZLhshIvNso9q+T390b9saGdKmkSP6I7qQmOuVQ5EE+vbNT0bqxDpTbQcCt+8/0NpGJ1P6dErVek2u376jtDz8k7hqIw5uNBEHJLfu3ZeROvGcy5QurYzUidkz9x49kpE6cQClLTElrgw9fvZcRupcXaIjZTLNU2tFhfoXrzxkpC5WzBhImiiRjNSJtcGv376Tkbr4ceMiQby4MlLn8eYN3n/8JCN1SRImROxYMWWk7tnLV/jy9auM1KVImkRrsVrRqtDbx0dG6sSBpbOTk4zUiRNK/4AAGakTr1/R8UCTm3fvql57wTJSlzVjBo1V6MXUU1F0VxPxGs6SIb2M1Im/n7YTXwd7e6RPk1pG6nx8ffHwyVMZqYvu7Kz1hP2rpyeevngpI3Ux3NyQPInmGV8fP33Gy9evZaQubuxYSJRA88H963fv8O79BxmpSxg/HuLFiSMjdS88PPDp8xcZqUum+jvGVP1dNXny/Dk8vTRfYU2l+pm4qH42moT2fpQ+dWo4ONjLSN2dBw9gpfpPFBJs1LGz0uZLdMwg0iXx+mvTuy+2LFkoRyiiDp04iZFTpinvIQ1rVldqmISWeOg2ZBjy58yp3Fcb8Rlctm4DXNq/R46QLukreRHCz88PadKkQdGiRbF27Vo5GjZnLl3G9j37MG7wADlCRPpiqDaqTGBYKJF4uaM6KRNfs2fOJEfVTZm3QHVCq/lEql+XTlp7qQ+fOAWfv2o+sRkzoL/q5E3zyWzPYSOUv8+frK1tlCmnmoiTxIFjx8lInTjZG9FHc1s7cdI2bsYsGalLniQJerZvKyN1on3c7KXLZKQuS4YMaNO4oYzUXbx6DSs3bZaRuoJ58qB+9aoyUicO5Hbs2y8jdeVLlUQF1U2TbaoP6yOnTslIXZ0qlVEkv+a6Lcs3bMLl69dlpK51o4ZKckCTWYuXKsXYNOnRtg1SJEsqI3Vjp8/E2/fvZaRuWO+eSgE+TfqP/gff/L7JSN3k4UM1nqCKZFev4SNlpM7J0Qn/DOovI3Wi/d/IyVNlpC5BvHgY0LWzjNQ9ff4CUxdoPpkRCbJOLZvLSJ1I5C1eo/kALXf2bGhap7aM1J08dx4bd+6SkbqShQujupZODLsPHca+I0dlpK5a+XIoVaSwjNSt27YDZy5elJG6JrVrIU+O7DJSt3DVGiUBpUmnFs21FuGbPHc+nr96JSN1/VW/A22tUodOmKQ8x/z8A3Dlxk2lqGC8OLGV5ObQXj2UdqBEkSUSpCLZySv8uiGOBU6cPY/VW7bi8o0bKFOsqNKW9c9EpbePL4pUrYHDm9dr/bwQRHK+aZduSgKTdGvdunVK8mL//v16S17UqFEDrq6uWL16dbgT0ExgEBkOExiRwASGZmJ2g5gdsX3vPhw4dgKpUiRDXdXJbLmSJeQ9iIjMV4e+A5TEkUhgPHj8BIXz5ZV7yFx9+PgJB44fR4Ma2q/Ok3Hy9/fHjv0HMGbqDHj7+irJhz+XiYhkvSj+uXDyBDmimZip2W/UWOxapfkCBEWMmA3Rs2dPpEyZEidPntQ4+zEyIpu8EJjAINK/Lf/uRs1KFQ2WwGARTwsgrmRs37sfVZu2wD8zZinTrXesXIrFUyYxeUFEFsPOzlaZiSOWxYSWvIhsS0cyHl+9vHDg+EkZkSkQs1mWrluPYjVqY8+hI5j5z2g8OHNCY40LMUOxarn/bpMrln+6RNe8PI0iRiwb6datG2LEiIGnT5+iQ4cOyu9OV3SRvCAiw5i+aIncMgwmMCyAmHlx9+FDzBwzCqtmz0CtyhW1rjMnIjJXdrZ2YUpOrN26HY07ddVaM4WI9MPj7Vs07dwNew4fxcpZ05XuJEXz51NqYf1J1B25fOMmShctIke0E50oXFj4UWdCal4cPHgQ169fR548eZRWp7pKYugyeZE1QwZ0adVCRkRkDpjAsADijb9f545a6xAQEUUlUZNGWzFXndJwEqRJs7q1lQNeUV9n3MzZqoNpf7mHiPRl14FDqN6sFQrmzYM1c2b+Z5e33YcPo1SRQnBydJQj2oki09rqb1H4/FmwUywR37x5s86SGLqeeSF+76F1qCEi02OWCYzpY0ZqLQSnS55eXoY56CYiMmNDx0/CMy2dV3Qpvepzwc3FRUahy58rJzYvWagUZazRojWu3Lwp9xCRLonOS6L9vSh6vGjKRHRq0SxMJ607xNJYd3cZhe7nEhLOwIgsbd1GdJXE4LIRIgoLs0xgiNaLui4kpMmY6TOVqvbG4ntgoE7XHxIRmZPWjRpobXuriehQ0q1NK6UL0sAx47H3sOZuLUQUfr7fvmHu8hUoU6cBnJwcsXPFUq0t0/8kOhKJziKF84etEO+Xr55a24BT2GhLXoSIbBKDyQsiCisuITETopVYm559cPL8BTlCRES6IDparZs/GzmyZJYjROpEPYaaLdvIiEIjZq4uX78RpWrVw90HD7F+wVyM7Ns7TEtBQuzcfxAVSpeEbRhPcl94vEbSRAllROH1X8mLEBFNYjB5QUThwQSGGRBXMVr26IWShQuhWIH8cpSIiHRFXL1NEC+ujMhUxI0dS6lpQsbh2JmzqNiwCU6cO68U6Jw+eiRSJU8m94aNKEz+s/tI2JaPCC9evULSRIlkROER1uRFiPAmMZi8IDJ9jWvVlFuGwQSGiRMV9TsPGAz34sXQrF4dOUpERESuLi4oXrCAjCiqiO4iHfsPwohJUzC0Z3el1kWmdGnl3vARXdX8/P2RK2sWOfLfXnh4IFliJjDCK7zJixBhTWIweUFkHto0bii3DIMJDBMmrkL0HTkGmdOnU9Z2ExERERmLwMBALFy1BlWbtECGNKmxZ81KFC9UUO6NmO1796NK2bIaW6tq4u/vj89fviJ+XM6gCo+IJi9C/FcSw1DJC1GAedKc+TIiInNglgmMoKAg5eTe3C1dtwE/VP/1bN9WjhARmZ5kSRLDzs5ORqZFnKAR0d/uPXyE2q3bKctFREefrq1bwt7eXu6NGHECvGv/QVQtX1aO/LeXr98gYYL4sLGxkSP0XyKbvAihLYlhyJkXfv4B+PDpk4yIyByYZQKjU/9BygenvsWOGRMOkfwwjox0qVJiTP9+Yb4KQURkjIb06IYUSZPISH+u3bqNj58/yyjyRP2hWq3aKi21iehnS9R2ffqhfZ/+aNK5GxrVqoHlM6YieZLE8h6Rc+HqNbi5uaqOf8LeKv/FKw8kY/2LMNNV8iLEn0mMFi1aoHr16lw2QkQRxiUkkdC3U4corUpfJH8+RHd2khEREYVm1eatePT0mYwiT3RNqFmpIsZOnyVHyGJZIUovaBgLUaTz0IlTOHjiJPLkyI7yJUvo9CLLzv0HUC0cxTuFZ6KAJ+tfhImukxchQpIYWbNmxY4dO5SkBZMXRBRRTGAQERFFUONaNZSigjfv3pUjZInEjMw1c5nIypYxI6aNGoEL+/5FTDdXuNdrhC3/7tbJUitRtHzv4aOoXLa0HAmbJ8+eI3kS/c/wMnX6Sl6EEMu7xa1gwYLYtGkTkxdEFGFMYBAREUWQWFc/oGtnjJk20yJqL5maN+/eY97ylTIifUuRLKmSYIjp5oYxA/ph7vix2LBjF0rVroel69bD28dX3jP8jp85hzQpUyBRggRyJGwuXb+OnOHoWGKJRPJCLO3QV/IipOZF7NixlRkYDg4Ocg8RmQNRrNmQmMAgIiKKhPy5ciKG6oRNTJ0n4+Lj64vzV6/JiAxNLLNdN38OZo4ZhSs3bqFEjdoYN2M2bt69F+6E3879+1GtfPiWj3h5e+Ppi5fIkiG9HCFNtmzZosySiWyRVU3YKpXI/K3avEVuGQYTGERERJHUqUVTLF6zVkZE9LvsmTNhxpiR2LZsMaysrdB10BAUq14bI6dMw5lLl5Ukw8MnT3H3wc/lWOKrWDISQszcOHbmHMqXKilHwubStRvInikj7Gxt5Qj9adKkSbh8+TIqV66MQoUK4d69e3JP5BlD8iJX1iwY2K2zjIjIHJhlAsPR0RHW1ub3T9uxbz/OXLwkIyIi8yC6RomOHqYsS4YMGNGnl4yISJMkiRKiX+eOOLRpPRZPmYhYbm4YP3M2WnTriQ79BqDHsBEYOHY8ug8ZjlxlyqN2q3YYNXU6arZsA28fH2VpSnhcuHZNKSZKmonkxfz583HkyBFlFka1atV0lsQwlpkX9nZ2cHVxkRERmQOzTGBMHTkM6VKHvcVWRL16/SZS6znDa/GadUicMHxrP4mIjN2kufPx0uO1jPQnT/ZsiBMrlox0zxCfO0TmQHQmEa+Xzq1aKLMyjmzZgAMb1mLPmpXYsWIp9q5bhXN7dqJPp/a4evMWHj97hpqVKshHh92FK1eRL2cOGdHvfk9eJJFFTpcsWaKTJAaXjRCRPnEJSSTMWLzEYJXnxcG9+ABIllg3vdSJiCxNvWpVkCp5MhkR6Y7orvDpyxcZkS44OzkpRVjFxSKR5JgwZJDcEzZ+fv64ff9BlLa7N1aakhchIpvEYPKCiPTNKiAgwCBl00UPaHPTb/RY1KhQHgVy55Ij+rN26za8+/AR3dq0kiNEROahTa++6NOxPWcwkM49evoMY6bPxJKpk+SIfnz89BltevfFliUL5QhF1rptOzBz8RIsmzEVaVOmlKNhd+D4CSxavRbr58+RIySElrz4XcuWLbF9+3acPn0a6dOHrQgqkxeaBQcHqy1tP3TipFLnRRP3ksW1Pt937j+A5y9fyUhdjYrltXboEa+lj58+yUhdo1o1EcPNVUbqROcgX1/NyzvbNGmktbbM7CXL5JY68Xxo17SxjNSJgsvL1m2QkTpXVxc0qV1LRuref/yIDdt3ykiyslKWDmVOnw4F8+SWg6RPxWvUxrGtm/D9t9pF+sQZGCZCtA8rVjC/jIiIiOi/JIgXF11btZARmYrlGzZh9tLlWD17ZoSSF8K6bdtRt0plGZEQ1uSFEN6ZGExeqBO1nYZPnAL3eg2xY98BOfqTqMkRL24cjTeHUDrBiG5Xmh4jbqFdKI4VM4bGx4ibjY32U0Gx5FLTY8RNLAPTRtP9xS1unNjyHn8TCR5NjxG32DFjynv9TTzP/ry/+HvbqsY5K85wurZqKbcMgzMwIsFQMzBEqzGR2TqyeYPqjcZGjhIRmQfOwCBTxxkYuiNmTazatAWrZs9Qin5GhMebN6jStAVO7tgKRwcHOWrZwpO8+F1YZmIwefGTOF7ff/SYkoATbWkb166JkoULwSV6dHkPMhZ/zooh3eAMDPq/1+/eIX4ckSVl8oKIyNiJkyciCr95y1cqS2bXzJsV4eSFsGHHLlR1d2fyQopo8kL4r5kYxp68OH/lKoZO0O8SMuHj589o1LELdh04hIHdumDDwnmoWs6dyQsj1WfkaExbsAj+/v5yhEyJWSYwxJSh3/uHm7qE8eIpa0CJiMxRtkwZlYJ95qJplx48KCIKB3Hleubipdi0azdWz5mFRPHjyz3hJ658b9y5C/WrV5Ujli0yyYsQ2pIYpjDzIig4GAEB+j8ncHNxQY92bTBz7ChkyRC2miEUdUb376ucKzbq2BXvPnyQo2QqzDKBMXDMODx++kxG+pMyaVKDZFbFOjNzOrgnIvpdl1YtDNIi+uS580pXA31LmighXhigLSyRORDJi4lz5mH3ocNYO2+WUrckMvYeOaYkQNKnSS1HLJcukhch/kxicNmIOvHvz5sju4zI2InZWX07dUDrRg2UmTO37t2Xe8gUcAlJJLRv1kSpcEtERMZv+74DeP5KcwV3XRJFxERldLIc1jbWSBg/noworMQ69JGTp+HU+QtYM3cW4sbWXuQvLL589cSYaTPQt3NHOWK5dJm8CBGSxMifPz+yZ8/O5AWZvPKlSmDaqBHoOngort26LUfJ2DGBQUREpEOifVtAQICMyBLEdHPD7H/GyIjCQiz16DdqLG7dv4+Vs6YrP8PIGjllKiqWKWXxV8L1kbwIIZIY5cqVw7NnzzB16lQmL8jkiYvRc1Tv3xNnz1WSqmT8mMAgIiLSIdF1K0B1ckZR79XrNxg3c7aMyJis3bYdW/fsxfDePZW2kpF14PgJ5Qpq7w7t5Ihl0mfyQvj06RMePHiAjh07ImHCiBdaNWXePr5yi8yFWHK2YtZ0diaJIEN/zvK3REREpEPWVlbKun6Ken7+/rj/+ImMyJjUqVxZ+Zo4QcQLdoZ48vw5ho6fhHGDB1p055G5c+eiT58+ek1elClTBqVLl8bkyZOVGm2WxvfbN9Rp3Q4fPn6SI2QumLyIuD2Hj8gtw+BvygSIaZZBQUEyIiIiY5ZIdUImKtITkXZ3Hj5AhjRp4ObqKkciRtTPqNeuI3q0a23xS0dEYkHMiti/f78c0Z3fkxcTJkwwmeRFgVw58c+g/jKKvAUrVyt1E+LEjiVHiMjQzDKBET9eXNjZ2cnI9Inq3AePn5AREZF5EX36Pb28ZGT6WtSvh/yqg2Yi0u7ClWvIlzNyCYeVmzaj5/CRmDlmFOpWrSJHLVe6dOlw9OhRDB06VKlVoSummrwQxN9VV3/fb35+2L53P1o2rC9HiCgqmGUCY0SfXkiVPJmM9Ofug4f4/PWrjIiIKCIWrlpjkPampYoUYqcIIiMhEpd5c+aQUdh9/PQZyzdsQs2WbbB601ZsWDCPCcPfiCTG4cOHdZbEMOXkha5t3b0X7iWKwcXZWY4QUVTgEpJIWLp+A+49fCQjIiIyZhVKlUTSRIlkRKQ73wMD8fjZcxlRWLx9/x7x48aVUejETIuhEyahedceKF2nPq7duoVubVph16plSJ4ksbwXhdBVEoPJC3WrNm9B0zq1ZUTmTNSx+vTli4zI2DCBQURERBQJnp5e6D1ilIwoLLJnzqwkIsIihqsr0qZKifrVq+HUzq2YMmIYihcswBaeoYhsEoPJC3XPXr5CdGdnJE6YQI6QORMXqHsOHSEjMjZMYBAREZFZSqI62Rjao5uMyJjkyZ4NF69dl1HoqriXRZPatZTiic5OTnKU/ktEkxhMXvzNxtoanVs2lxGZO9FW9fHz50ojBfpvoh22ITGBQURERGbJ3t4eKZIllREZk5AEhiW1HN514BDGTJsBbx9fOaJ/4U1imFvyQnTx8w8IkFHEJUmUEMUK5JcRmTvxvE+eJAleeHjIEQpNycKF5JZhMIFhAhwcHGBraysjIiIyZk+eP8fHz59lRESahEzFf/7Kck4QxIygVZu24Pb9+3LEMMKaxDDHmRfnr17DsAmTZUQUdmlSpMDDp89kRMbELBMYT5+/UFodmYsebVujVJHCMiIiMi9F8uWFq4uLjEzfmi3bcOn6DRkRkSZv3r/H9++BiOnmKkfMX44smZEvV074+fvLEcP5fxJj+HAsWrRIjv7CZSNE6sSsG4/Xb2RExsQsExjjZs7GsxcvZaQ/2TJmRKyYMWREREQR0axeHSSIF7ZuBJGx5/ARTgclMhLL129EzYoVzCp5GRYO9nZRksAQEiZOjHR5C2DkuPFqMzGYvCD6m72dHQK+f5cRGRMuIYmERrVqIF2qVDIiIiJjdvjkabx++05GRLoTLZoNMqZNIyP6L14+Pti4cxea16sjRyyHg709/KMggSFqQfQYMhyF8ubFgX93/X85CZMXRJrFjxcX8eLEkREZEyYwiIiIiCLBzdUVYwb0kxH9lw3bd6JI/nzKFG1LY2drh4AAw1/VnThnnrK8eljvHkifPr2ynGTIkCGIGzcukxdEGpQtVhTVyrvLiIyJVUBAgEHKPxuyCGX7Pv3RvW1rZODVECIikvqMHIM6VSohX84cckQ/RJeBvKo/w714MTlCUeX5q1eYt3wlxg7sL0fIGFRv3godWzSzyNdIuz79UKtSRbiXKC5H9G/Lv7sxa8kybF6yEDHd3OQocP/+fWzcuBEDBw402+TFmUuXsX3PPowbPECORIz4/Jg4dJCM9M/Pzx8Pnz5Flgzp5Qjw9v0HdB08VEbqkiVOrPXvd+/hIwydqLmQabaMGTCoe1cZqTt3+QqmzF8oI3XF8udDJy1tZfcdOYol6zbISF1V97LKDHZN1m/fiS2798hInWijXLlsaRmpm79iFQ6fOi0jdV1btUDhfHllpE6UHLhy85aMfopmY6MkpIf07IaE8eLJUfovIa+P7wZacsMEBhERWQQmMCzPo6fPMGb6TCyZOkmOkDGYtXgpnr54iUnDh8gRy1G3TXv07dQBeXJklyP6JQoKd+g7AKvnzkTalCnlqOW4ePUa9h45hsE9NJ+kh1XxGrVxbOsmGemHaCksWguv3LgZN+7cRcE8udSSr4GBgXj/6ZOM1NnaREOc2LFkpE60kf305YuM1Nmpzs9ix4wpI3UiifLZ86uM1DnaOyCGlgK8Pr6+8PT2lpG66E5OcIkeXUbqvFSP8VY9VhMX5+iI7uwkI3Vfvnrim7/m5g0xXF3h6OAgI3XiZ/J7i13x8xdLrb56eiqvFdGGm8Im5PXBBEYkmFsCQ7yQ7OzstL4AiYjovxkqgbFhx06kTZUSObNkkSMUVZjAME7iRKVUrXrYuHAeUiRLKkctQ+k69bFg4nikTpFcjujPq9dvULt1O4wb1B/FCxWUoxQR+kxgiBPnfw8exoKVqxA/blw0qVNL6c5lbc2V/sZGJDxEm/RE8ePLERIMncAwy1dGutSp4OjoKCPTN2fZChw/c1ZGRETmZf+x41qvDpmiulWrMHlBFApxBbZp3dqYrTq+sTSfv3xFzBi/lnHoi7gK3q5Pf7Ru1IDJCyM3ftYc/HvwEGaMGYWFkyegWIH8TF4YqRevPNCkczcsXLVGSTxR1DDLV0fP9m2RPEliGenPhavX8O7DBxkREVFEbNyxCx8+ap4Wq0vVypVV1gkTUdRrVrc2jp46rSwlsRTi32qjOjEV09p1SUx7/11wcDB6jxiNzBnSoWWDenKUjFWXVi0wd/xYpEiaRI6QsUqTMgW2L1uCuw8fotvgYUphXDI8pvciYdOuf/H42XMZERGRMRNdDxLEiysjIt0R04ovXbsuIwoLVxcXpQ6EJf3cVm/egjpVK+vk6voLDw/0GDoCOUq5I7vq1nPYCHh6eSn7pi1YpMxqG9m3NzuLmABnJ821HShqebx5g2cvX8noF1GLY9KwIciULi0aduiMN+/eyz1kKExgEBEREUWCt7ePUmuDwuf+48dqXRbMmbhSKzosNKhRTY5E3IqNm5ROLimTJcWhTetxbNsmuLm4on77Tti8aze279uPOf+Mgb2dnXwEEYXXsTNnsffwERmpE4nB9s2aoH3TxmjVs7dSr5AMhwkMIiIiMkvJkiTGpGGDZUTG5PPXr/jw8aMyJdsS7Nh3ALmyZkXSRInkSMSIIsGLVq9VprF3bd0SsWPFVLpIDOvdQ1maMmziZMyfME4ZJ92ZMXqk3CL6pVzJEmjVoB7uP34iRyyToV8fTGAQERGRWbKNFg2xYsSQERmT67duI2uGDLCxsZEj5m3t1m1oVLOGjMLm0ImTcuun3YcOY+r8RVg+YyqSJEooR38S09gfP3um/DzdtLS3tERi5osuaixlz5xJbkWc6L5z8+49GZG5qFmpIvIaqC2ysdLF6yM8mMAwAXFixeL6OCIiE3Hz7l14vH0rIyLS5NrtO8ieJbOMzJ9ILNjaRpPRf/P391e6iIiTXuHEufMYPmkKlkybhJTJkiljIcRJevu+/dG8Xl1UKFUS+48el3vo6q3bmDR3voyi1vhZc3H20mUZEVFEmWUC47rqQ9HLx0dGpq9N44ZK8TkiInNUqUxps7pKvn3vfl5lI/oP1cqXs6gOGaUKF8KRU2dk9N9CkqBTFyzC+48f0XvEKMwaOxoZ06ZVxkOIVo79Ro1FquTJ0K5pYxQrmB/Hz7L1vrF59PQZrt26hRb168oRIooos0xgzFm6HK88XstIfwrlyYMEcVnRnogoMqpXKIc4sWPJSH/E2nF2jiIyDqLdvajdYClKiATG6dMy+m8vX7+Bg7091m/bobRrrFetKvLlzCH3/jJ7yTLVfV/jn4H9lcKChfPmwcWr15QZHGQ8lq7bgNaNGlrMkikifeISkkioVt4dKZIllRERERmzC1ev48OnyK+FJvqTnZ2tclGDSBvRcvHbt2948jxsSdRXr39eiPseGIiL167j4LETaNypK/qMGI19R44qMy/2Hj6K9dt3Yt6Ef2Bvb6/c383VFelTp1YeQ8ZBtLQ9c/EiKpQuKUfIFIiCuymTqy/XIuPABAYRERFRJLhEj47eHdvJiOhvP2dH5A1zDYRnL1/Bz98fwcHByk20nBWPvffoEfLkyI7b9x9gyPiJmDvhH8SLE0c+6iex7Pjk+Qsyoqi2dfde1KxYAXa2tnKETIF4HbkXLyajsDt66gz8/DgDSp+YwCAiIiKzJK52d+w/SEZEUcve3k5u/beHT57KLcDRwQHZMmXErpXLsGPFUiWh0b5Pf4zo2wtZMqSX9/olfepUeMLlcjrVqmdvuRV+J86eQ6mihWVE5m7PkSM4c+mSjCxDZF4fEcEEBhEREZml4OAfylVsImMguoU4ODjIKHTnr1xVZm3EdHPDlBFDsXnxAmRIm0apbdGh70DUqVoZFUuXkvdWlzRxYjz38JCRZXN2dETC+PFkFHG/J5TCa1jvHsqyHrIMBXLnwpUbN2VkGSLz+ogIJjBMwKvXb/Dlq6eMiIjImOXMmgVJEiaUERHRT9/8/OFoH7YEhtCuSSPky5VDdQIeX0lmiLoXA/8Zj0QJ4qNLqxbyXn9LmighXrzyUO5v6cTMlW5tWskoaoi2t9bWPOWyFGlSpMDDp89kRPpgFRAQYJB3N1sDrvtatHqt0gc7ccIEcsS0/TNjFnKpDojLlSwhR4iIzMfmXbuV1n9xY8eWI/rRZ+QY1KlSSWMlfzJPonXhmOkzsWTqJDlCFHVadu+FZnVro3ihgnJEO1H4UbSXTlOgCLJmzICtSxdh/opV2H3oMNbNn6MsKwlNbvcK2L9+jUV1etGn4jVq49jWTTIyH6IQrLePj4zUVSpbWuvzbOuevQgKDJKRutqqz1lNREHa7Xv2yUid6LhT2b2MjNR5qf5++1R/T03c3FxRtlhRGakT7YePndbcUjh+vLgomj+fjNS98PDAuUtXZKQuRdIkSg0aTR48eYJrN2/DLyAAc5YsQ8/2bWFtbQUnRydky5QBiRKYx3mpJiGvj+/fv8sR/TLLdGDrRg0Mkrw4fPKUMjuCiIgibu+Ro/j85auM9KdxrRpInSK5jIiIDMdfdVJz/Ow5HFPdug4aigFjxikndNqI5IXHmzewUm3fe/gIW/7dg+UbNmLexHH/mbwQRAcFMQuD6P6jx8rF0KpNW/zVSvz9p4948+6dxltQULC819/evnuv8THipo2YEaTp/uL29sMHea+/iUSJpseI28dQOouJk2lNjxG3z1++yHv9TSw71PQYcfvi6SXv9Tdf328/76P63t/k93jh8RqXrl/Hk+cv5L1IF8xyBoah9Bs9FjUqlFfWOukTZ2AQkTlr06sv+nRsj3SpU8kRIt0w1AwMUXH+1IULKF20iBwhUnf3wUNUbtIcNStVQN4c2bFj3wHEixMbE4cO1rq8YMe+/Rg8biICZaJjYLcuqFW5YpgSGF0GDoF7iWKo4l5WjlBkmNoMjKCgIBw8fgIrNm6Gv38AGtSoZpCZjuZEfH4EfA9AxrRp5UjYmeuMHW04A4OIiIjIhPj4+mL20uUyIvqbKMD58OxJTBgyCHWqVMaCSePx8vUbdBs8TGuds1PnL8L32zfVSdR3BAUHY8LsuchaooyyrGTLv7tDrXGROEECeLx5KyOyJGIpQ922HbDv6DH079IJmxbPVxJfTF6Ez/krV3D8zDkZhU/LBvXlVujELKxmXXvgzEXL6loSWUxgEBERkVlKlTwZFk2eICMi4yFmUSybPgVx48RG5cbNsO/I0b8SEmcuXZZbwg/lqnrOLFkwZ/xY1KhYQSnsqY2LS3R4eWuubUDht3r2TLll/Gyj2WJAl06YMmKYUj+FDE/UugkL22jRlN/V5LkLMGX+QqVFsilaNXuG3DIMJjCIiIjILIkTPFb/J2MlkhhDe3bHxGGDMXPxMtRu3U6ZWXHh6jVl+rqogWFvZwd7ezvUrFgB/65ajo2L5sG9eLFQkxdCdCcnZWaQpfP08sJTHdQfSJIoYp2lNu7chTnLVsjIMEIrNEnGR8zOWj13plIzo8ugIcqsK1Mjau4YEj/VTYB4I4rFKtJERCZBXDXVxQEzEVmGgnlyY8eKJShVpDD6jhqLBu07oVz9Rsq+Lq1b4PTObfhn0ACkSJZUGQsLZycneDOBgVv3H2DeilUyMjwxq4btbOm/iETl+MEDlRlWTTt3Z/LxP5hlAuPEufP4/FX/Fe0NpUGN6krBJyIic9SwZnVlGrW5OHziJO4/eSIjIqLQnb5wUUlYrNq0BRVLl8LQXt2xZu4s3D15FO2bNoGbq6u8Z9g5O3MGBpEpEbOqRCfNimVKYfLc+XKUNDHLBMZq1QeAaO+jb+VLljD4lBkiInNTsnAhxHRzk5H+LFq9VmlHSERkDMTFtr6jxqDfqLHo17kTTu/ahhljRqJpndrIlzMHokWLJu8ZfmIGBhMY5k/URSHz0qJ+XfTt1FFGpAmXkESCOOhOnDCBjIiIyJjde/QYX72093Aniih7e3vlyjlRWIglBTv3H0CFBk2UWhV71q5CmWJF/rOuRXgoCQwfJjDM2avXb9CoYxcuUdGTdKlSIUuG9DIyHPE+4OBgLyPShAkMIiIiMkuioru/v7+M9Ce6s5My9ZdIE3GC+fjZc2zZvQfDJk5G5SbNlcKOcyeMxdBePZTnj645OzpyBoaZGzVlmnK1XpeJL/old/ZsKJwvr4zCZ+bipXKL9IEJDCIiIjJLT56/QIf+g2REZHgPnjxRrpI36dwVR0+dQbLEiTGyTy/sWLFUKdinL6IGBot46k715q3kVvjYWNsgmo2NjHRHdKl58/493EsUlyNkTDbt+lduWYaIvj4iigkMIiIiIiId+ubnh4lz5qFBu04oV7IEjm/brNS3aNWwvnJl1zYS9S3CwsnBEX6qv4Oli+HqgnSpU8ko4iLaHKBW5Ypo17SxjHRn6br1aFG/HmdfkFEwdPMMJjBMwP1Hj/H2/QcZERGRMStaID9SJ08uIyKyNIdPnkL5Bo3x8vVr7F6zAs3q1oaNHq7Ch8baxhrBP4JlZLkypk2Llg3qycg8fPnqiTMXLyndKsj8iSVoAd+/y4gEs0xglC5WBDFjxJCR6dv8725cvXlTRkRE5mXJ2vV4/e6djExfMZHASMEEBpGluXHnLpp07oax02dhTP++mD5qBOLFiSP3Gpa1lRWCg1nc0RydOHcOJQsX1vssHjIOqzdvxfING2VEglkmMOpUqYz4cfX/gbF97348ff5CRkREFBHiSpKXl7eM9KdDsybImDaNjIiIdOPpi5foNngo2vbuhwqlSmLP2pUokj+f3Bs1rK2t8SOYMzDMkWv06KjiXkZGZO5ES+WT5y7IiAQuIYmE0xcvKgV0iIjI+KVKngwuqgM/Il3z/fYNm3ftlhFZEtFNpEyd+ogfNy4OblyLhjWrG8eVcTEDg+01zVLxQgWRPXMmGZG+3Lx7D5eu35BR1BHHLs9evJQRCUxgEBERkVmysbaGS3RnGenPt29+WL1lq4zIkrx5905JWGzc+S9yla2A/BWroGKjpliwcnWUrlv/uYSEMzCIIurGnTu4ePWajMKnT8cOcivyoqneXxwdHODl4yNHiAkMIiIiMkspkiVV6hAQ6cvIvr1x5+RRXDm4FzePHcLOFUsxun9fnLtyBRUbNsWxM2flPQ1LzL4Qy0hIN/asWSm3wsfPz1+ZoUWWpXLZ0nJLN5IlSYSXHh4yMj4RfX1EFN/ZiIiIiIhC9R231o9Cr3V3ESBH/iRmYoiinbmyZsHiKZMwqHsXjJw8Fe369MOte/eVbgKGIupfMIEBfPz0Gddv35FRxDk5Osqt8Nmxfz+WrtsgI6KIcbC3h5+/v4yMT0RfHxHFdzYTkDl9OiSMH19GRERkzA4eP6m0vyYiMxLshaunDmH36bvwCuPKjJKFC2H3mpXIlTUrOvQboLRWnbV4qVL0U99EBxImMID7T55gzZZtMiIyTXFjx2HXmd+Y5TvbrgOH8OHjJxmZvqrl3JEtU0YZERGZl/bNmiBh/HgyMn3nLl/G05csuEVkdsQEiu/+8PsZhYm9nR3aNW2Mo1s2YuzA/vjw6TPqtm2P2q3a4fIN/bXIDwoOUupgEJHpG9yjK7JkyCAjMs8Exv4Dqg8I/Scw6lSupFSGJSKiiMudLatBuoNMXbAIN+/elRERUXhYicYe+BEYiO8RWAkiZkOI97rhfXri9M5taFavNjr1H4QRk6bC28dX3kt3fnAGhln68tVTKRBLZMn4zhYJeXJkV9Y6EhGR8fN48xa+38Jz7ZQobBwdHdCoZg0ZkUn4/hH37r9GmFMHqiNmK9V/+B6gtQZGWImuAlXcyyqF73z9vqFCg8Y4cuq03Ksb3/z94OBgLyMyF+L5ouvnCmmWLVMm5M2ZQ0ZkTJjAICIiIrMk2li++/BBRvojCpjVqlxRRmQ4wfh6bzfGD+qK2s3boXG/iZh94AE8ZY2KwPdXsXbOePQcMgbDF+7E+bchqYdgvNk+EjVbT8LWR5exbEJ/1G/RFi0n7sb9P+rkeT85irnj+qNh8x6YeztQ9U0jNgNDkxhurhg/eCDGDxmIkZOnoc/IMfDy9pZ7I8fL28cgM9uIzJWoQSgK8kbE8IlT5BbpAxMYREREZJZevPJA/zHjZETmJvjdXvTv+g8WHrqMq3dv4eyx7Zg6tDuGHvEGvC/iny49MWTFTuw4sAerFo9H4+YDseZ50M/HBgapbncwp2svjN5yEhfv3MbxzZMxZOMzyHvg45mZaNRqCCZvO4nzdx/Cw/sHfnwPgL+Om4kUypsHu1YtU+plVGrcDGcuXZZ7Is7bxwfRnZ1lRJFVvEZtuRU+zk5OcHVhIsnSHDltWbNkIvr6iCgmMIiIiIjI5Hy/dxWXvWOibN8VuHJ8Dw7M6ofOdWugQnp7vD24FhtfuKJE+7FYt2AiBpWID3y5jctPApXH2tnaAsGeeBecGwOX7cb1Db1RMkYArh0/hZcig+F3FbMnb8I9t2IYtmgnbu2bhdbpbPHD3w9+euiGKk50R/fvg1F9e6NJp65IU6AI9h87LveGn5jJ4cIEBuLGioXc2bPKyPAqlSmNJrVryYiIdIEJDBNw6foNPH/1SkZERGTMypcqiYxp08iIiPQlWtIUSGGn2rCOhmh2LkiZpwq692iNckl+4O7tR/AL+oSTC4egQds+GHP0LRzSVUO9vKIuhDXs7aLBSvU1Ucn6aJTBFU7J3FEzb3QEv3iCB4HAtwt7sfu1E0q26YVGWWLC3i0zyudPDGt/P/jqIYERwufbN9jY2CjbubNG/MSbS0h+SpMyBepUqSwjItP06vUb+KreG+gns0xg1KhYHnFjx5aR6dt/9Bju3H8gIyIi8zJl/kK89HgtI9MnOg0kTZRIRkSkLzYp6mDS6LqIfXoiWnbsgbbDZmDh4UfwDP4B/4Dv+GHliLjJUyJz9vyo1nQgVs1og7xOPx8bzdZWdRBsg5RpU+NnqUt7pEuTFNbeX/A5IBDP7z3CF6s0yJ87hjxYtoKjveqeepqB4enlhV7DR2LKvIXYsGAuHp49idixYsq94fdzCYn8xxKRSZs0dz7uPHgoIzLLBEa5kiUi9aYfVis3bcb9x49lREREESEStIa4stC3U3tky5hRRkRk+myRtHBjjJ4wE2vnTMDIsv7YMKQLBuz/ivhxY8LaOinqj1mMbfMnY3LHisjm9BE3rj+Hj3ionS1sraKpTvIdle8E2CB2DFdY//iOgIAgZSbED2U7JFsRjPcfPiP4uz/8fq5C0ZkzFy+hUuPmcHGOjp0rlyJ75kxyT8R5+XhzBoYZiunmhi6tWsiIyDJxCUkk3Lx7D58+f5EREREZMzEzj20FSR+8fXyxcPUaGZHBBH3G/Wt38NJXtB2xhZO9DX7AB688fJA2WybE+vEIBw48gGgsEvD+Imb1ao06HUZg6eMgWEezg621PRwdrJRvJdjb2ar+/wPBP2yQJEkC2Abdx+5/70D0BQl8tR+rj39Q7QuAn79scxJJfn7+GDV1OnqPGKXUvxjep6fq7+Mg90bOzyUkrIFhbsTzQxR9Jf27ePUaTp47LyMyJkxgEBERkVmyU52QJk2UUEb64+/vjz2HjsiIDCXg9hp07tgGJcpWQOHadVGm9xY8/RETGdMngFP+qqiRIhg3l3dH2bp1UKhmd0y74I8M9VqjXgobwDYabGGDaD/LTUhWsLKyga1qX5wS1VAhXhBuLuuKUrUboESTCTjwSSQughD0s01JpNy8exfVmrfE+w8fsWvVchQvWEDu0Q12IdEtJ4eQmTpkKR48eYJb9+7LKHzGDRogtyyDo71uEq9hxQQGERERmSVRi2REn14yInNjl74iOlTPg7QxgvHR4y38XdOjfJvB6FlQdbJplwWdh3ZDpZTR8OmNF5zTlUSnMfOwpmtBxFUd/Vq5xkAst+RIk/BXBsPa3h5uiVMhlZNqO2ZxDJvQA7WzxkTA23fwj50T9avkRKzornCJJh8QAW/evceMRUvQsntvdG7ZHDPGjFSWBejal6+eiOHqKiOKrD1rV8qt8BG/hw8fP8mILEXBPLnllmXYu26V3DIMq4Bfi/v0yla0qzIz/UaPRY0K5VEgdy45oh//zJiFXFmzKLU9iIjMTZtefdGnY3ukS51KjhCZlo+fPqNN777YsmShHCH65e6Dh1i1eQvOXLqMr6oT2iL586Ffl45IGC+evIfu1WjRGkN7dUfOLFnkiGV6/e4dnjx7HmXLLjbs2In3Hz+hU4tmcoRMxdqt2+Dp5Y12TRvLkajTY+gINK5dUykSbsy+f/8ut/SLMzBMQL6cOZAiaVIZERGRMdu2Zx9u3LkrIyKyVD9+/MC6bdvRpHM3ZTbQ7LGjcX7vLkwbNVyvyQvhxSsPJEuUWEaW6+mLl9ix74CMiExTymRJEd2JXYVCmGUCY82WbcoUPXNRumgRpE+TWkZEROalX+eOSJrYfNqO3rp3T7nqR0SWSxR2FVdNV2zcjHXz5yhXcTOkTQNra/0fent5e8M/IACxYsaQI0Rkyrq2bslzwd+YZQLj+Jmz+PL1q4z0p2X9esiQJo2MiIgoItKkTKGzyvuhGTllGi7fuCkjMqTvgTruO0lkxO48eKAU6HR2csSWxQuROkVyuccwXni8VpLCVla/OqyQefj4+TMmzJ4rIyLLxCUkkSAyYTHcWCCJiMgUiLaCgTyRNigfX19MmbcAi1evlSPmydnJiWvcSelGs2DlajTt3B1dW7XEmAH9oqR184tXr5AskfnMaqNfxMyaK0zEG0T+XLlQolBBGZExYQKDiIiIdMr32zfMXb4S2Uu5Y86yFahVuaLcY1jf/PyUVnj6Jk5SxXJPskzBwcHYumcvytRtqJxcblw4D9XKu8u9hvfcw8OsluUZA1GolyxLquTJIrxso+ugoXLLMhj69cEEBhEREemESBiIK9AFK1XD7CXLYGNtjYY1qyNu7NjyHobl8eYt/pkxW0ZEurdr/0GkK1QMfUaMVk54RGe6uw8fKbMxoooo4MkEhm7VbNVGboVP7JgxkSBuXBmRpbh2+7bcsgwRfX1ElFm2UW3fpz+6t22tFEsiIiIS+owcgzpVKimdnfRpzLQZyKv6M9yLF5Mj5k8kLhauWoMZi5Yo9UxELNjY2KB5vTrKEgvRkUHchJADDyUOGVP2K5uq/b/d9/evWvbLTWVc+arc9we+enrhwrVrKFW48M/x3/b/erzyf7n957gcU9uvbCp3+P99Nez//XE/7xuy+dt9//+4X+Mi+P99NOz/83E///fn/p+U7d/3h2wr//97/+/j/7/v/7+qbv//c//4vtLvY7+2VTcNjwv5w5Qxjd9X3OX/d5JfxH5l8+f2b4/7+TXkf3/vl8PKtvJV/Pf/wd/GxX3//zjly8+xX4Hafpfo0ZVW9zlVN08vL+U59/DpUzx88hQtG9RDgxrVEd3ZsN0DGnfqijaNGqA4p7/j2ctXuHP/AcqXKiFHIqZ4jdo4tnWTjKKOx9u36DVsJNbOY2LWmBnL88VQQv69hmqjygSGCTh+9hwSxo+HtClTyhEiIgovQyUw7j96rNRHihcnjhwxf+LEbebipVi6bgPs7eyUddqCSGA0rVsbzo6OSiyKCoYUFvz/19+2VRu/7Rf7QrZ/ff11X/X9vz9O+ar6TxS823/sOBrWrPFrPOR+4r//P0ZsK5ty7Nf4z6+/bas9LuR/2vf/Pv7rvsoXZZ/645TNn2Mh41r2axoP2VDf/zNWtn8bV238/KJs/r3/9/H/31fZr2zKP/f38ZBt5YvKn/uVzb8e93Pj1/af+3/dJWTj9/0/76Nsy/2/P0Zs/L7/98f9/KqM/n9bbv4cD7nv//fL+yjbSqBsW6u+igTdn0Qhz3krVuHUuQuoX70aShYuiMzp0+u9Joao85PbvYLqZGIz67TpEBMYFB66fr7cffBQORd0czXO1zQTGDpw9tJlZEybxmh/yeH1z4xZSna/XMnIZY+JiIzRiElT0Ux1kpsiWVI5oh+GSmBYMtG+cfHqdVi8dp1SFyAwKAgNqlfF8D695D0M69HTZxgzfSaWTJ0kR4gMS8wAWLVpMy5cvabMyhBdl7JnzoSCuXOjWMH8cJLJPV25fvsO+o0eiz1rVsoR0gUmMCg8dP18ES2ZG9euidzZssoR42LoBIZZ1sAQ6w8NkbyYu3wFbt27LyMiIoqIl69fI8AAH3qj+/U22g9/cyGm03dv1xqnd21D2yaNEBQUhFWbt+L9x4/yHkSWJXmSxBjUvSu2LVuMi/t2Y0jP7kiaKBHWbtuOgpWqol2ffti081+dFcE7f+Uqk7RmLHaMGBjco5uMiCwTi3hGwtMXL5WrTUREZPzs7e2VJQ2kfyKR0a1NK1w5tA9tGjfEhh275B7zJI4FJs6ZJyMizcTyEZFEbd2oAZbPmIrj2zajYunSOHL6NErXrodi1WuhY/9BygUykYiIiItXryFv9uwyInMjPscyp08nI9KnE+fOK0sQyfgwgUFERER64eLsjH6dOypJjKjg6OiALAY42A8I+I4zFy/JiChsxGxh0W519j9jcPngXiWpUaFUCazfthMNO3QOdycTsWxLFK3Nk4MJDF1LkjCh3CJL8dLDA0+ePZdR+CyYOF5uWQZDvz6YwCAiIiK9sjNgHazfJYofHz3bt5URkfGytrZGymTJ8OnzF6UIrlhyIq62h4fofuIa3QUJ4rFtp66tnjNTboXP63fvlDooZFnSp0kttyxDRF8fEcUEBhERERFRFBJtWqctWISVm7Zg06L5yJIhvdwTdkdOnkahvLllRMLzV6+w78hRGRneibPnsOvAQRkRkS4wgWECShUpjPSpLSuTR0RkqlZv3qqsQyciCguRvBg7fSYOHj+JdfNmI3HCBHJP2InlIxt27ETtKpXkCAmv3rzFkVNnZERkmrJnyoiYbm4yIrNMYIjiRy89XsvI9OXPlVPv7QWJiKLK2IH9zOo97umLF/j09auMiIi0E4mH4ZOm4NL1G1g9ZwbixI4l94TPuctX4ODggByZM8sRIjIXzevXRarkyWREZpnAuHbzNrx9fGSkP91at0TWjBlkREREERE3dmyD1EjoM3JMhCv7ExHpmmgzPHjcBNy5/wDLZ05TinpG1Nqt21G/elVYWVnJETJHoiX1wLHjZERkmbiEJBISJUgAZycnGREREZElih7dGYN7dJMR0X8TyYt+o8YqLfmXTp+idOyJqI+fPistH6uVc5cjZK6+BwbiyfMXMiJ9Kl6oICqULikjMiZMYBAREZFZ8vbxNUg9Ens7O+TKmkVGRKELVJ2E9h4xGm8/fMDiqZMifTFs7dZtKFu8KFxdXOQI6dr9x4/lFlkK0cUqWeLEMgqfxh27yC3LYOjXBxMYREREZJbevn+POctXyogo6onkRa/hI/H5yxcsnDQBjg4Ock/EPHr6DMvWb0SXVi3kCKn58UNuRE6bXn3lVvgkSZiQtQss0IvX5lOLMSwi+vqIKCYwiIiIiIj07JufHzr2HwRvX1/MnzgODg72ck/EiGUo/UePRbe2rZA0USI5Sr9LmSwZalQsLyPDK5Q3DyqU4jIEIl1iAsME7D50GDfv3pMREREZs+b16iJfjhwyIiICJs+dj6wlysDNxQXzJoyDvX3kkhfCknXrYWdnh0Y1a8gR+lOCeHGVbn5EpkwUIBe1bugns0xgdG3TCknMKBN97dZtvLKwqUhEZDl6DB2Bh0+eykh/7O1sYW2ACv2JEyZADLeIdxMgIvMj6lyIq/EThg6CbbRocjTiRNvV+ctX4Z9B/WFtzeuRROZMdBl6+vKljMgs3/EypUuL6M767w4yftYcXLl5U0ZERBQRou11cHCwjPRndP++yJMju4yIiAynanl33Lp3T+kiEVnb9uxD+z79MWnYkAgXGSTTJNqOTx4+REZElokp20j49OUL/P0DZERERBHxQ0dF1oii0j8zZuH+I3YqIM1ER4M0KVPi5LnzciT8RKJXLEWZtmARVs+ZiRKFC8o9ZCnE7J1ECRLIiPTpwPETSrKQjA8TGEREFKVEVX5b28hPqSb6k0t0ZxTOm0dG+mUbzRa37t+XEdHfKpctjV0HDsoo7N68e49Fq9eiStMWOH/1GjYvWYB0qVPJvWQI2TNlkltkKT58/Kh0soqIzYsWyC3LkC1jRrllGExgEBFRlAr4/l05+SPStXhx4qBVw/oy0q/0aVLh3sNHMiL6W4HcuXD15i0ZhW7OshUYPXUGGnfqioqNmip1ggb36IY1c2YidsyY8l5kKDPGjJRb4fP0+QvcffBQRmQp4sSOJbcsw8yxo+SWYTCBQUREUerDp0+IHYsH5GTa0qdJjdv3H8iI6G8+Pr5wcw1bgV87W1skShAfTevWxpld2zBu8AAUzJ0LNjY28h70Xy7fuImVmzbLKGqcv3oVh06ekhER6QITGCagintZZM1k2Kk5RESGIOpfiCUkjg4OcsT0zV+xCqcvXJQRWYq0KVMqHcO8vL3lCJE6UTstVswYMgpd60YN0LJBPbgXL6aTlquW6NCJk3BycJQRkekqki8v4lrYrI7QmGUC4/rtO5gyz3zWHmXJkF4p/kREZG6srKywf/0aGemXp5cX/AP0X3hZzCjx9vWVEVkK8VwuXqggjp4+I0eI1H3+8hWx3MKWwKDIEwVTC6tO/IhMXa3KFdlx6DdmmcCIGyc2Tl+4JCP9Gdy9K3JlyyojIiKKiGjRDFPAc9TUGbh267aMiHSvXIniBjn+INMUnhkYFDnvPnxQWtYmiBdXjpiHt+8/oGP/QTIiskxmmcBIEDcuPn/9Am8f/V4Bc4keXVmjSERERJQ3R3aM7t9HRkTqLly9hkzp0smI9Gn99p2oUbG8jMxHUHAQPn/5IiPSp/KlSqJ25UoyImNilgkMMY2zYJ7cOHOJV0GIiIgs1VdPT2UdvKFYW1uzyCJp5OXjg3OXL6NUkUJyhPRFzLzYunsP6lSuLEci78yly3KLLEVMN7cIFxiv0LCJ3LIMhn59mG0Rz2IF8uP4mbMyIiIiIkvz4dNnrN6yTUZEUefIyVPIlzOnMnuX9EvUwhO1L2K4ha3jS1j0Hz1WboVP6hQplFp2ZFl8v32TW5Yhoq+PiDLbBEbBvHlw8twFpbo9EREREVFU2XP4KCqUKiEj0qfc2bJiZN/eMopa4u9SvGABGRGRLphtAsPF2Rn5c+XEzbv35Ijp2rhzFy5dvyEjIiLTJ9qnigrx5qhzy+Yomj+fjIjI0on3u2NnzqJUkSJyhPRNLCfXJWsrawQFBcmIyLAOHj+J1+/eyYjMNoEhjB3YDzmyZJaR6Xr45Ck+fPwoIyIi03f28hWs3LRZRoYRJ1ZM2NvZyUh/3Fxd4ejgICMisnTiZDqajQ1sorE+iqlycLCHn7+/jIgM69+Dh+Dx5q2MyKwTGKKYlj4NHjcR569clREREYWFuBo5Z+lytKhfT44YRr/OHZE9cyYZEemXeJ637d1PaedIFDOGG7tHmDA3FxfV7++rjKKO6LS4aMpEGZE+ifdwMk5mncDQt++B3xEcHCwjIiIKC1Fg2dbWFgVy55IjROZHXHWvULokhk+aKkfIkomOBp8+M4FhqjKlS4vb9+/LKOqIi7POTk4yIn1q1bMPnr54KSMyJkxgEBGRwYjCyhPmzEP/Lh3lCJH+xHB1RcVSJWVkeNXLl1Omne85fESOkKWKFTMmPn+N+iv45sjPzx/PX72SkX6ULVEcMdzcZETmTlygfvD4CZImSihHwufI5g1yyzKUKFRQbhkGExhERGQwy9ZvRK6sWZAuVSo5QqQ/ood/7SqVZGR4YhbG6P59MGnufNx//FiOkiWKHycO17DrgZjmP3TiJKVGgD4VzJ0L+XLmkFHY3XnwgIX4TdDFa9eV9rc2NhGrW6PvMgbGZkSfXnLLMCzqp8vqrUREUcff3x+HTpxEv86d5AiR+UsUPz4mDRuMzgMG4z0LclusjOnSGMUSBHOzZss2fPX0RLsmjeWIcblx5y7OXrosIzIVO/btR7Vy7jIiY2NRCYyRk6dh867dMjIdDapXQ57s2WVERGSa7O3tsWbuLER3Nu/1u5PnzseRU6dlRATkzJIFPdq1wfSFS+QIWZrM6dPj1j0mMHRJtKZdtXkLJg0bYnFXvEl//AMCcOLceZQsbNhlEaER9ZQSxo8nI7KoV/uYAX2xYNVqk8uEpkiWVJkGS0Rk6nTdmz88Xr1+Ax9fXxnpj6h58D0wUEZEP1UoVRIj+vSUEVmajGnT4MGTJ3xv0JEDx09g3IzZWDxlIlyiR5ejRJG3btsOlClWVLnoYizcixdTZvPRTxaVwIgVIwbmTxyPQeMmKFO6Imv84IGsok9EZCKmLVzMK6AUpSK6nppMn5OjI5IkTIjHT5/JEYqoM5cuY+r8hVg2YyoSJUggRy2Dx9u3aNihs4xIH569fImOzZvKiIyRxc23SpE0CWaNHYXuQ4bh7oOHcpSIiIiISH/+GTRAOQ6lyMmeKSNWzpqO+HHjyBHDEoVD3334ICPDE38+6c/Qnt0RO2bkZr5/8/OTW6QPFrlgLGPatJg6cjg6DRyM+49YFZyISNd8v33D0+cvZGQcfgQHR+kSFjI8bx9fzF+xSkZEUUt0YDKmaemmSsxmiewJZmQ8e/ESjTt1haeXlxwhUle+gXEWldUH0cZ4y+49MjIMi614k01kb2dOQ8rkyeQIERHpgujHL6a4nr18RY4Yh++B32FnaysjsgTW1lbYtnefjIzTyXPnMXTCJIPUZyGiyBO16Vo2qI/2fQcoSdLQZMmQAfkj0H6VyFR8+voFG7bvlJFhWGwCQxDr5myjRZMRERFFRnBwMFZu2owW3XuhZ/u2qF+9qtxjHL75+cPezk5GZAkcHRzw7ZtxT+UVtbQSq45HarRozXaLRL/x8vY22uUS4vOtXMkSaNmjl/L31CZTurTIk4OdBMl8eXv7ILqzs4wMw6ITGKZi2boNSsEiIiJjJarrN+3cDddv3cGWxQtQrEB+ucd4vHn3Dgni6b8NWb/OHVGmaBEZUVQSS4Z+qP4zZtGiRUO7po0x65/RSgve9n364+bdyBcaJzJVoo3lkrXrUa1ZSzx9YVxLEX/XrG5t1KxYHs269oDHmzdylEyJqZQSEEs0Xnh4yMi4iASeoTsBMYGhQVBQEHYfOvyfra7E/b56espIf16rDro9DfDnEBFFxNFTZ9B9yHC0adwQE4cNhpurq9xjXNKmSqn6u7nISH/ECam1NT9ejYWYdSPW6Bq7dKlSYcPCeWhQszpGTJqKPiNGyz1ElkEcU4tZfFWaNMfb9++xZckipExm3Eu961evho7Nm6Fplx749OWLHNUfkZS140zCSPv4+TP6jByD8bPnKOdzxu7E2fN49+GjjIzLh0+fDF6ThkdYGojic6cvXESFBk0wbcEiPHn+XO5R9+jZM/QYOkJGRESWqVC+PNixfAmKFyooR4zT5OFDWcTTAone+aL1oCkQz8/iBQsoiYwe7VrLUSLzJi7UdRsyDDVbtsH7j5+wdNoUDOjaGTHcjDMZ/qcyxYpg+/LFiBUjhhzRn4Tx4mH5jKkyovAShVenzFuAOq3bKd1sFk6awPbWkfTqzVskThhfRobBBIYGYhrM6P59VQcQcxEnViz0HTlGeVOdtXgp7j/+NdVIZIVFEoPtjIjInIn3uGcvXyHg+3c5ok4UxuQBABmrRAniqw6wTGt6t0hkiDpd2jx+9lyZss7jDzIH0Z2cUKtSRexfvwY927VRnQxpf+4bK2fVv4GMl1jmOmT8RFRr1kr5Xe1atRyNa9fU22zJmG5ucsv8ic/XxAkTysgwrAICAgzy6Wdr4pXfRVX9k+cuILHqQOj3q4xNu3TH4O5dkS51Khw5dRp3HjyUe9SVLV4UaVOmlJG6XQcOKd9fk+rl3bF8wyal9ZYoFvS7DTt24sOnzzJS16BGNa0vHlFTw1dLf+JWDetrLXI3Z9kKuaVOFEIVU8c1EbNZlq3fKCN1bi4uaFSrhozUffj4CRt27pKRugTx4qJmxQoyUidOsv49eEhG6lInT/bXzzDEnQcPVL+/MzJSlyVDeq3r+S9dv4FzWjotiKrTubNnk5G6E+fO48YdzWucSxYuqLT61WTfkaN4pDpw1aRSmdJIniSxjNRt3bMXr9++k5G6OlUqIW7s2DJSt3rzVnzV0iZMrP3U9oG9cNUarUuwOjZvKrfUiZPjRavXykidk4MDmtevKyN1X756Ys3WbTJSFydWTNStWkVG6sTB/7a9+2WkLlmiRKjsXkZG6h4+eYr9x47LSF2GNKlRqkhhGam7fvsOTp6/ICN14vUtCvlpIor6Xb5xU0bqiubPh6wZM8hI3eGTp3D34SMZqXMvXgxpUqaQkbqd+w8oJ0de3j7KVWvxc/qoep8RB5RiBoMpHliSZbt17z5ixYyhXLk0F+K9efvefXjz/j2SJU6M+HHjKEXUxK1etSrKmCahHTc0rFFd6xXv0I4bWjdqoLW7T0SOG0Q3FnHco0loxw3vP37Exp3/ykhdwvjxUKNCeRmp08dxg3hfFu/Pmly6dh3nrlyVkbrQjhuOnz2Hm3fvyUidoY8b6lapjDixY8lIXchxg0iuBaqOA75/D8SnL5/x5t17zB0/1iLbyIrn81HVOUKqFMmV4yZxnB0yGzC08wPxvBTPT02qlXPX+nm8UXX8LGayaCKKj2qbKbJcdbzuozpu16RVg3paf3dzl69Q/b5l8JtoNjZo26SRjNSFdn7gGj26klzQRByPrFe9j2mSQPU+WLNSRRmpE68dUUOihOocThR3NjVixr/4meTOllWOGI9DJ06q3n/SKEn371oudOmazZAhQ4bLbb0y9atzYk23+EBKkTSpHPlJrKF6+vKl8oQSH56i8JDoT/3nLUXSJFrXhYupc6J6v6bHpVa92V1RnbyID98/TzhevX6jegO01vi49KlTaU1EiDdDcbCh6XEZ06XV+rsSJzWaHiPejEWVZU2CgoLx/JWHxse5ukRX1vxq4v89QPng1PS4WDHckEpL+1vxhijetDU9TpykJ02cSN5TnbePDz5/+arxcSJhIqYgayJOnsWJnqbHiWyktsSAWC8m1mRrepw48Iyp+jdq8u7DByUxoOlxKZMn1VpEJ6S4lKbHieeVtjdz8WYfzSaaxsdlUL1Zaevi8/T5CzioPug0PU4khDQJFlf5X7zU+Bjx7xLJAU1Ea0zxWtD0uJiqg/HUKTSfqPv5++Pt+w8aHxc7VkzlNauJt6+P6nX/RePjxEmEtgMKcUD31dNL4+PE8yt+3LjynurEmlof328aH5ckUUKt6w7FWsmAgO8aHxfa+5H4mdhGs0HKZElRqkgh1clCTXRs0Qx1VAes4jVLZGrixYkNFwNXSNc30Qq+TtXKaFqntnL8kTp5cqWTiXhdixNSbcllfRw3iM9/Gy1XMSN23BCEFxE5blAdf2k7bhAXdHR93CA++z9/1XzcIN7PtR43eEb0uOGz1uMG8TvXdtFKH8cNop5QWI4bxGdwXNXrTzxfK5QupXxeWVp9oCs3byon/hXLlIKz6mfi4hxdeZ2F/CyTJ0mCGFo+j0XSRxxHh9z395s4P9D6Olf97kSCRNPjlNe5lkSEuJgqLjhrelxo5wdiqb2jw9+PEf/eTOnTyXupC/38wEW5MKyJOK4RF1c0PS6mWwytr/N4ceIoiSJT7T6578gx5XWk7X0lKomfecj7iDifNQTOwIgksaRk5KSpWDVnphzRvX9mzNI4A4OIiIyPuOooDh65rIaIyLKJWU8iQdapRTM5QhR+xjwD43eGmoHBGhiRJLJ54mqsmEWhL20aNUShfHllRERExmz8rDk4dPKUjIiIyKKxVg1FklgamFzL0kBLxARGJImrbKJ/+9t37+WI7ol1huY2/ZWIyBDEdPRJc+az2CERERmcmIGurSZYRIjPNNFuliyLqJOmre6MJWICQweqVyiHHFkyy4iIiIyFKLL38vVrJdlMRERkSI72DkrtEl15++ED2vcdICMiy8QEBhERmSVRTGrm4iVaq6ATERHpkyhiKopOkuXw9vFVOtaR/jCBQUREZmnb3n1Ilzq11m4HZDlE6z1RBI2IyJBEe8nb9x/IiCzBxavXtLaINSdePj4YNXW6jAyLCQwiIjI73/z8MGfpCvRs30aOkCWLFTMGrt68pdOp3ERE/0W09xzdv4+MyBJcuXULWTJobh9rTkSixk91rBUVmMAgIiKzM3HOPFQv746E8eLJEcNxdHAw2V7z5krUQMmVLQsu37ghR4iIDEMUYCTLIAqG7z18BGWKFpUj5uv0hYsomDu3jAyLCQw92H/0mLL+SVdmLV6KY6fPyIiIiEIjqrQ7OzqifbMmcsSwerZvi5KFC8mIjIU40Dpx7ryMiIiIdOvGnbtInCCBzjuGLN+wCY+fPZeRcThz8XKUJeeYwNCDl6/fYNA/43TWtk+sMfLz57RXIqKwsLGxQa8O7RCNsyDoNyWLFMKhEyfZUpeITJaNtQ3ixYktIzI2W/7dg6rl3GWkO2IJ5OevX2UU9Z69fAUHe/soa+3KBIYetKhfVzlwHj9rDg+UiIiIjEDsmDFVB/5xcO/hIzlCRGRa4seNg+mjR8qIjMmr129w8vwFVChVQo6YL7FMpnwU/juZwNADsdZ23OCBSgud+StWyVEiIiKKShVLl8KVmzdlREREpDuj+veBvb29jMzXoZOnUL4kExhmRxRwmzV2NI6fPYcFK1dzJgYREVEUa1CjmupWXUZERIYl6uT5fvsmIzIniRMmQEELKdi6fMZUJEmUUEaGxwSGHjk42GPRlIm4eO06zl66LEeJiEhXnr54iW179smIKHRihiQRUVQRn1nDJkzmhU0yaaLbWlRiAkPPRP/nuePHsoUSEZGO7T92HK169FLWBBuTL1898S2KeqMTEZHxat2oAQICv2P0tBlMYhBFkFVAQIBBXj22trZyi8JLHAiLqvp2/BkSESmVuEdOnoaPnz/jn4H9lWmbxmSM6sA0b84ccC9eTI4QERH9FBgYiH6jx8LZyQnDe/eEtTWvJ1Pobt27jySqYx03V1c5Ypy+f/8ut/SLrxgTIKbpMHlBRJZOHPRt2LETtVu3Q76c2ZU1mMaWvCAiIQgeR2ajQ88RWHTNV44ZgYCn2D51MLqvugEj+luRhRGdCicMGaR8pnUeOCRc7TEDVCeIYhkKRa1jZ87i+u07MtK/zOnTGX3ywpCYwIhC/v7+GDh2HG7evStHiIhIm2u3biu31bNnKoUYjbWeQfCPH6y1QBbOByd3bsaB04ex7dwrBMrRqOZ/YyumbjyKvUev4W2QHAy3IPh+/YAP3oa50kjmScysHjOgH4oVyI9127bL0f/24dMnDBjzj4zI0N5//IihEyZh5qKliBnDTY6SoTGBEYXs7OxQtngxjJ0+C9WatcTiNevw7sMHuZeIiH6XO3s25YAvQby4csQ4iSmUdtGiyYiM1e5Dh3H45CkZkU4FfcFnz58ZgmiqE7W/03n+eHPnAk4/+IwI5xEiIijw559nZRXOA+BveHxqPUb2aYkipUohe7nqKOBeAUXajMOa217yPkThIxLd9atXRYdmTeUIGatPX75g/Kw5qN++EzKkSYO182cjaaJEcq9lWLFxEz58/CSjqMUERhQSb1wlCxfCmrmzMPufMfAPCEDzbj1Rq1VbVtUnIovi5e2trPFct20H3r437USun7+/kqAm45YmRQrMWLSEhfT04UcgAuS0C3sH+58bv/E/M1V1rNMDTVt0xLjLAXLUgMI1Q+obLi3oipq9Z2LFift44xsE5RkT7Ic3N3ZhWPehWP7EWOaYkLn56ukpt36ytrJGUHCwjEjfxOdDh34DUad1O8SJFQv/rlyOhjWrw9bCLlJ4vH2LVZu2IIabcSxjYRFPI+Tx5g18vn1D2pQp5Yi61Zu34t+Dh2SkrkWDeihbrKiM1M1euhynzl+Qkbqe7dogT47sMlI3dvpM3Lx7T0bqRvTtpfXv2XfUGLz0eC0jddNHj0Dc2LFlpK5t737w9vGRkbplM6ZqrAci1hE27dJdRupEkaSFkyfISJ3IJHYdPFRG6hInSICJwwbLSN3DJ0+VKWSaiHVqg7p3lZG6i1evYcr8hTJSVzhvHnRq2VxG6g4eP4kla9fJSF3F0qXQuHZNGanbvGs3Nv+7W0bqGtasgcplS8tInZgNdOjESRmp69i8KYrkzycjdZPnzsel6zdkpG5gt87IkiGDjNQNGT8Rj54+k5G68UMGas1ydxk4RCnkqMn8SePh4uwsI3VNOndDUNDf1/3ElM6Vs6bLSJ2X6jnZTvXc1ER8qM0YM1JG6l54eKDfqLEyUpc6RXKM6tdHRurE0jIxO0uTPNmzoWf7tjJSd/LcecxZtkJG6koXLYJWDevLSN2uA4ewZstWGamrVakialWuKCN14gNNXMnWpGWD+ihTrIiM1M1avFRZQ+rt4wtvX1+4ukRXXnNZMqRH3apVjH6WRWiade2B4b17IGWyZHKEjFX7Pv3RQHUwWrxgATlCOhH4ENNbtcLMe1Yo2HszlteOrXbFLODWYtTtsgx3HPJh8OzxaJLSMCcD/ucnokz37XiftSP2z2mIZDZyR2gCLmF4vR5Y9ToY9glzoVqFwsgc0x9PL+zHxhNP4f3DCrHdR2L/yJLghHLSJbHUvE6b9vD08oabqwvs7e3FGTXuPnyEciVLYOLQQfKe6h48eaK0atUkwseo+fKiU4tmMlIX2jFqpTKl0ahWDRmp27TzX2zZvUdG6kI7Rl20eq3W2XOhHaNOmjMfl29oO0btohx/aPL42XPV53lSi14aOnLyVKRLnVqZMRQaQxXxZALDRIiiPSEn7iIb66M64NfE1cUV0Z2dZKROTH/y09LaL2aMGFp7+oqT/IDvmq+QxFaduNlrudIolsOIxIIm8eLEUYoYafL63Tv80JJdThg/vsY3EJEhff32rYzUWVlbI2G8eDJSJ/5+2pbt2NhE09qeUcyW+fhJ8zQqO1s7xIkdS0bqREeZz6rfgyYOqp9/LNXvQRNxkufppZ6FDyESNNoK+4ir2uKmiYuLi9YTfNEG0veb5udYDDc3pT2wJiKZID5wNYkdM+bPD18NxJpCbW96cWLH1lrE9s279wgO1jwBOX7cuEpCQhORJNQmkeokWhOR8Hj7/r2M1Flb22g94Rav3Q+qf58m4n1RWyJP/By1JWfEz1H8PDXx/fZN9fvTXBDMydFJa/ZcJGi8vDRPhXaJHl25aRLR9yNRtEz8zsXfSdt9TFXnAYMxefgQrc93Mh6iCJvoaLNx0TyLPjjVucAHmNayNWbdt0aJQTuxqMrf7x/+n9/gi11cxHcOSxZBNyKUwIAXLq1fhG2eWdGkYRmkC/nYDP6Kg2NboeMu1edJvGpYsqkPinDiFemBOFYVx4Fidp+/vx+adOmOTYvmK8fSmpjKMaqn6phD2wVLYzpGtXTiWLtRpy7YvXqF1nO+EExg0P+J6dSdBwxSHWDNlyNERESkC10HDYV7ieJar/ZRBAQ+wvRWLTHzXjSUHfEv5pbTfIEk4nxxc8dSbPyQE+2aF0Ki/1wQHYygwCD4XZiK8r124H2WDtgzsy4Sqx4npuRHixaxJIr/qXEo2XsX3jmWwLTdo1FZ1/9MIg0qNGiC9QvmwFV1kk/mLzg4GI06dsHaebPliGH1GTkGBXLl1DoT93eGSmCwBoYJiBcnNt681z6bgYiIiCKmT6f2mLFosdYrc6TZtxdnsGzqQNSqXQXZCxdFuqIVULzFIMw8+wHBsIK1MqHFFva2Gma2+B1HnwqlkK/VfJxRuwAbiLeXN2PM4B6o07wV6nYdjKErjuK+5x+zMv3PYdGMtVi9dCOOfniDkyvGoH6dSshcuBTyNh6KZTd/zTz0uTwf1cuWRPoiJZG9xw68Vn2rwOtzUbZ4SWQqWhIZipRDzSUP5L3DSXUULSbuWDu7wpVH1GQgNSqWx1ctMybJ/LzQshzfEMRy5gePHyvPOWPCt1sTIKa1inVZ1++w3SoREZEuiRo7zerWwXsjqa5u/ALweM8Y1GzWF6PXH8e1l5/hE/QDwd+98OrOMSzYehnfVMctSgLDygaaJjcE+37CO68AfLp7GAcfhFyxC8abw+PRoMtULD14AVfu3sPl80exZs5gVGs8CGuf/H5lz+rnkp/gV9g2pBNaz9mDiy++wj8oAJ8fHsa4EQtxRplhHoS3Ny7jrldovU6+43tgRCYjf8e9q7fwMRhwSJMBGdl4iAykbZNGFtcBw5KJmnTa6nro2/XbdzGga2dYWxtXyoAJDBNRvGB+peAdERER6ZYoMpckUUIZkXbB+HJ2NjqM3YMHvj9g7ZwURSo3QNc2TVC/aHokdEuCCmVzwREhiQsr1YGv8kB13wNk+9Qf+BEyucLvMubO3Ifnqh3RXJMjb+HiKF80G5I6WeH7u1OYs+Eqfs2RETM7VF+CPHD52ltYJ8iJus1aoX359HC1AgJfHsT6M2IWhg1S1R6I+YO6ol/HtuhSIyfiqv4+1rFyo3nHjujXuSMGDpiAmU3TKd81PIJe/otp254i0CoGipUvitg8oiYiPdixbz+qlisrI8MSHVfy58opI+PBt1sTUaxAfhxnAoOIiIiiSuB9LJ21HY++A7ZJy2HisuVYNrgTurZqh9ETF+PEvnWYUCaO6uAyGn7WULZS/adBtGhy3BHRnX5u+V8+iINvg2EdpygGjBuCfk2qolKh7EjhLPZbIbpLdPx/MoeVHWyjye9snxmdJ0/B2A4t0HvISHTN6QD88MLVK/d/Jjyck6N4lbpo07QpujQpjBSqI18rp1Qo16Ah2jRuiJbV8iNFOGtXBHtexbShc3DiK+Caqym6lY7JA2oi0jnRoU+0ZeeMG3V8vzURojOC6LTx9MVLOUJERERkOAF3DmHPk0DV0WN8VO/eA9WSaqlIb2UHOyXBEIhADas3rO3tYK/kH6xgpRyJBuHN42fKcozgDycwqmNr1G7fC13Gr8SJ98GwiVsCHWqlx/9XaVjZqg7qfyYwHHJUQO2UslC8TQKULJhGdb9gvHv+HH/24LJ2dFD+3OBvvvD+o6xGWAV/vYY5/Qdh/m1f2KeuhonDayMtl48QkR6I9rT1qlaREYVgAsOEtKhfD89evJAREREZk4Wr17DYMpk1/2fP8TIIsHLOgmK5NLdWVljbwV4kGH4Ewl9Ts7to9rBXO+n/gW++Gtq8WzsiSe46mDRjAKrG//2Q1RZ2yuNtkDhtGsT4/y4bJEiXWlkmEvz1Iz78+XJ0cIKjat8PH294RaDsRdD7MxjXvR+mX/6KaMkqYcKkHigt/jAiIh3z8/NXOlFWK+8uRygE33VNiHgCFy9UUEZERGQsbty5iyMnTyNaNF6KJfNlhZ9n/VYOTnAKtfOoHZwcxB2+46unN/6a7GBlD0c5g+InKzg7OypbNknLYdjYf7Bwxlzs3r4Dh2d3Q5WUf6zxUGZ4/Nx0dXX9tbREJVqC+Igncif+/vD9M0lh7Qw3sSQl0BtfwzkFI+j1EQzuMhhL7njDIWUVTJneFxUThvpDINI7kTRnByXz5OBgj0VTJvK4QgMmMIiIiCJp+sLFaNu4kYzI1J2+cBFrtmyTEYWwjRlTKZIZ7PkBb7/JQY2sEN3ZWUl4vH/7Dj8nQgQh4LtcT2JlDwe1BIYN4iVN/PN7e/1AvAJFUTJfVqSL6/jzQPX7G5zatBa7HiqtRVSPjwY7ZdWIFRydxJ/zi1X06FDKZgQFyj/3N9YucHUWUzC88eVr2BMYQe+OY3iv0dj41B8OKati8vTeKM/kBRmB7Xv3Y9jEKTIiirjg4GBMmb8Q3/w0zIYzMkxgEBERRcKZi5fg5++P4oUKyBEydVkzZcSKDZuUmTX0i23a9Egnyl4E3MCeA69kJ5Gf/N9ew5aFE9FnxiE8D7JBvLgxYKO6x8sH9/E18C12DK2LHBX6Ye3rYMDKAQ4Ov6cdVN87czZkcwR+fL2Af09+/v+sjeCvN7Cgb3u0mjQbfcZuxAPlD7X7fwLDwVEmOSRrW1vYim+taYmIdSzEdlN9/eGFz1/ClsAI/nQGY3qOxNrH/oiWoBRGT+4J93hMXpBxqFGxPN59/IiFq9bIEaKIEc+hN+/ewdEhnFWNowATGERERBEkrliMnzVH6ZNuZaV+Qkamy8XZGZNHDEWv4SPh6eUlR0l0CKmS1wVWP7xxYkZXNBk563/t3QmcTmX/x/Gf2YwxM4xZmMEwxszYhULlIekR5Ym0kRJSpJQ8yb5mz5JSGEkppdKqhDwRleVfStbs25gxhtnMmM38/+c6Lv+6es7dqyzTPebzfr3mZb7nPofbvZz7XL/7WuSFV+fJiEG9pNXdj8uzCz6RZRv3yelCL4mqHSvlrLdEzpalMmrCOJm0+oTkZR+WPccLRPXA8Lsw/6cuNHgEtZBONwRZf3eqrJg5VIbPWyBTJw+Tzl37y9QNKVLgGSwtOrSSKFU7+P9JQj3E0/N3l7JWtrdY78f/usj1rCChQV6qKiIpqX+mgHFWNi6YKYv3qW8kfSW6fqQkfvm2zHljkcx5/Q15KT5eps6aKSPGj5NnZq2QPXnnjwKKioeHh7w8abys37RZXn7tdb0V+Gu+/2mrLFu1WsY8M1BvcW8UMAAAuEgLl7wndWJjpG5crN6Cq4V6Tnt1vU/6Dx8l+UzOep5HqHR8rKc0V5WJvBOyefkSmf3qm7Jk/R5JyRcpU/VmGTnmQbnGW8Sv6W3SoYqntd8h+fKLrXKyUMS78vXSJs7H7oFR2i5gFMr/XqgjeARJux5d5Tr/UlKYul3eX7hQ4j9eJ9tPF0gp/5pyz7CZ8mLn6udXIlGThNrdLDzE6/edIQoK7Z4hpcqUOT+UxOAlEZWCraNyJDn5114eLuXtkBXfJOmeJjnyy5evy/Q58ed/5s6XWa8tkvh3PpAln62Sj99bIp8f4nWCoqe+MZ8/bYr8sG27TH15jpw799u+USgO1EqTKadO61S0EhKTZPCESTLzudHiZ503iwMKGMWYqpZlnvn9ImEAgKKgLjgSEhNl6FP99RZcbbp06ihx0TVk7LQZ9vMNEZ/oe+WV2UOlxw3RUtHPW7x9y0u1ei2l+4DnZdmicdIt1u/8jr4N5cnhvaVNZID4ePtLtaZdZOaMJ6SFWrykVDkJDwuQctHXSuOIXy9FvWp2kVlTHpXbaoWKv4+PBIbHSeu7+suCRXNl0u015NdLa1+pGBYk/hFN5cY4vYTqBd4BUiHQX6KaXCOR/zX3nZfUiIuWQJ8ACfS7MCXpH/AMlfqNYiTc38fFBbOH9f/3l9CqtaTN/T3lnmgm28Pfo3Tp0jJnykQ5k5UlvQcO4nxVjJw8dUr6PjvEXsmsqKl2ZJ9BQ2TUwAESExWlt7q/Unl5TutbXX7e3r/7gMEle+O9pbL5xx9l9sTxdF0GAOAKUN9mPjF0hPS6v4tcd01DvRUA3FNicrKEh4XpBHeVlp4h8W8tlpVr1kq/Hg9J59vbF3l7buiEydKgTi3pemcnveXS5Ofn69+uLAoYxZiqrg4aO15CKlSQwf37UcQAAOAKUEsVspQdAOBSbd+9Wz76YqWs+eZbub/znfLAXZ3tJVP/DlnZ2VLWT/eauwwoYOBPUeNy+w0eJo3q15N+PbrrrQAAAADwq+dfmWsvkxkZEWE3mr29vNV8t7Z2N7d2OQfCpytX2YVcJ53at7MnE/09tb86zomPT2np8M82OpnOZGXLqrVrdTIFBgTKLS1b6GQ6dTpVvt6wQSdTWEiItGjWVCeTmgNi05YtOpkiK1eWa130vNt/6LBs3bFDJ1NsdA2pV6uWTqYPPltutYu9pM0/WlzW4oE7KKoChufIkSPH6N+vKE9Plpy6EjytE0bbVi3lpQUL5XR6mjRpUF/fAgAAAADnRVaOEF8fH0nPPCOZWVmSlp4uGdbv6ueaenWltHWbk6++/VZS037d97c/zRo3cuwFfq6wUP6z/hvHY3Jzc122Wc7mnJV1Gzc5Hqd6nzeoU1vvaUrLyJAN329xPE59kV47pqbe03Qi5aT8sHWb43H+Zf0kunp1vafpaMJx+XnnLsfjgoOC7OKHEzXxd1zNaPG5Cr/cVyuzFQV6YFwlVBegp0aMlrs73C7tbr5JbwUAXA6p1kXexh+2SPubW+stAAAAuKCoemCwCslVQnVBmjt1kstuVQCAi6O+YenSp5/d7Ra4QE3uqYpaAAC4MzWcZ9/BQzoVfxQwriJqgjEmGQOAyyM3L88eLzxs4hSZPmakdL6tvb4FEMk+e1amz5kn8996myULAQBuSX1W9X12qMv5SIojChgAAPyGaoyq8bedez0iHqVKyQevxbucjAslV4C/vyyaPUs2//iTjH/hRbtHBgAA7uJ0Wpo81H+ANG/SWAb2fVRvLf4oYJQA6mJ82ivzZO/Bg3oLAMCVPfsPyOvvvi/TRo+Qfz/Wx+WkZkAZX1+ZM2WiPe6398BB9lwpAAD83dRyrWr464P33CW9u3XVW68OTOJZAqgZYVeu/dru5qpmvO3U/lZp17q1lC8XqPcAAACX4v1ln9mfszPHjZG6cbF6KwAAReu9T5fJgreXyIyxo4v086ioJvGkgFHCqF4Yn65YJcu/WiOVK1Wyx3SrggYAlASqoHsiJUW27/7F/lCPqFhR3wJcum27dot1XSVNGjbQWwAAKDqq5338m4vlvo53FPmX1RQwcEWpF7cqZpzJypbG9evpraYVX62VT1xM+HLHrf90uZygqvqt+XaDTqYH7+4sN1x3rU6m+Yvfli0/b9fJ9HjP7i7HoM+YG2/9X5xn1h365OMu12Ee/fx0SU45pZNp8vAhUi7Q+U0/YOQYe3I/J69MnuC4FnZOTq48PXqsTqbAAH+ZMmKYTqZkq6E1+vkZOpmqhFeS4QOe1MmkntsZc+frZKobGyNPPNxTJ9MPP2+TVxe/o5NJjZ976N67dTKt+fY763n/TCfTrTe1clkk+/iLlXbvICf33tFBWt94g06mRe8vtdf6dqK6yblaW3z2goWyY89enUwD+z4iMVFROpkmznpJjh5P1Mk0dtBACQsJ0ck0ePxEez1wJzPHjhZf39I6mR4b7Px6UEMZXnhujE6m9IwMGTJhsk6msJBg637+WyfTkYQEmfTiyzqZYqKquxwzqbomvrxwkU6mxg3qySPd7tfJ9N3/fC9vLv1QJ9NNN1xvfeD+SyfTF1+tkU9XfqmTqeOtbV0uH73k409l9br19iRWJ06elIJz5yQsOFjqxMVK93vulujq1fSeAAAAuFgUMPC3Szl1WpJPOTfwQ4MrWD/BOpkSk5MlNc15HHB4xTAJKldOJ9Mxq4GYcca5sVe1coQElC2rk+nQkaOS7WJ5w6jIqvYYZSeqkZ+fX6CTKaZGlHi7WNFl9959UuhixvnaMTUdCxhqcrdf9h/QyeTl6Smx0TV0MqlCyf5Dh3Uy+ZYuLTWqRepkysrOlsPHEnQyqSV3q1VxLupkZGbKscQknUzlAwMkolIlnUynUlOtxmGKTqbgoCCpGOrcwFfHqGOdqGPUsU6OJyVJWkamTiZV2AkMCNDJpB4T9dg4UY+JemycHDh8RHJyc3UyqQawqzkS1FwKqsHsJM56zj2t597JThdFFjWhZC3rNeYkv6BA9h5wnufG29vLZXFGLQ160HoPOfGz3jvVrfeQk8ysLDmacFwnU6C/v1SJCNfJpOYISDyRrJMpqHw5CQ8L08l00joXnbTOSU5UQSLEOic5SUo+aZ1XMu3zQMXQUHsYHQAAAC4vChgAAABXiTzrwo4CGgDgclHDYj083GdNjqIqYLAKCQAAwBVUUFAg9/TuYw+VVIUMAAAuluqVOmjcBHuui5KIAgYAAMAV5OXlJW/OniUnklOkU4+H5evvNthzUQEA8Gfl5ubaq4vc9+hjcm3DBvLog930LSULQ0gAAACKiJobZ9qceZKWni5PPfKwPbG109xJAAAoak68pcs+l9eWvCttWtwoj/d8yOViA38n5sAAAAC4Sv28c5e8MH+B9HmwmzRr3EhvBQDANGT8JClb1s/+vHC18p07oIABAAAAAEAJpoYcFoeeekziCQAAUEKp5bcBACXDH82LxDBDEwUMAAAAN7NizVrp8EAPmbfoLUlITNJbAQBXC1W0+HH7dhk34wW5/YGHJL+gQN+CP8IQEgAAADd0/MQJ+Xz1f+SzVavtb+BaXt9cWjVvJg3r1rFXNgEAFC+ZWVmy4fsfZP3GTfKd9Wf1qlXkjrZt5ZaWLaSsn5/eq3hiDgwAAADYVDFj/cbNsm7jRunSqaP8o1lTfQsAoLgYOmGyeHp6SsvmTeX6a5tIgL+/vqX4o4ABAACAv2ThknelQvkg+1u9alWqSLnAAMZPA8AVVFhYKCdSUuTQ0WNy2PqJiaouTRo20LeWHBQwAAAA8Jd8+Ply2X/4iHUhfVSOHEuQjDNn7HHWqmvy0lfnOXZRzrT2GTV1uk6m4KAgGfH0kzqZ1Nwc0+bM08kUFVlVnuzdSyfT7r37ZN6bi3UyNahTS3p2uU8n0+Yff5J3PvpEJ1OLptfJXR1u08m0et039lAcJ+3btJa2rVrqZPpw+Rd2rxcn93X8lzRv0lgn0xvvLZWftu/QydS7W1epGxerk+mlBQvlgPXcORnY9xGpGhGhk2nirJfk5KnTOpnGPPO0lAsM1MmkvgnOyc3VyTRj7CjHwleutf8Q6zgn/mX95LnBg3QypVj3b4J1P51EVKoog/r11cmkHg/1uDipVTNa+nR/QCeTevzV8+CkaaOG0vXOTjqZ1m3cJB8tX6GTqU2LG6VD21t0MqnXl3qdObnztnbSsnkznUxLPv5ENm35SSdT93vvkkb16ulkirfeP7us95GTJ3r1kOjq1XQyTXtlniQkOc+pM+ypJyQ0OFgn0+jnp0tG5hmdTJOGDRFf39I6mZ4eNVb/ZvLx8ZYpI4bpZMrIzLT+vRk6mUIqBMnwAc7no2PHE2X63HidTDWqRUr/h3vqZNq5Z6/Mf+ttnUwN69SWHl3u1cm0dNnnMnfRW5JfkC8epTzs+1a9alW7eKyG+9WvXUvvWXJQwAAAAMAlUwWM7LNnxa9MGcdGqZo4btuu3TqZfKzrt3q14nQyqb9z9779Opn8/fwkNrqGTibVQNl36LBOpvJWY1s1NpycOp0qhxMSdDKFBldw2cBPSj5pD8FxEl4xTMLDwnQyHT1+3GVhINL6t0Ksf9PJwSNHJDU9QydTtPV/c1VQ2LP/gJzJztbJFGc9lq7Gx+/4ZY/k5uXpZFLPnXoOnWzdsVPOFRbqZGpUr67ja0WtjrN15y6dTN5eXi4bbarwscNqKDopYzV+a8fE6GRS8wXsPXBQJ1Ogv7/UjKqukyk1Pd16Ho7qZKpQvrzdyHSSnJIix1xMmlsxJEQqh1fSyXQ8KUmSTqboZKpiHRNmHetEfWN/Oi1NJ5O6j+q+Otl38JBdnHQSUyNKAsqW1cm0a+9eOZvjXLSqYz0HrgoR6vzgaoJJ1chXQyKcbNm2Xf9m8rBeW9dYrzEneVYjePvuX3QylfbxcVkAvNjzUXpGhl30dfJH56OzOTni4eFh3yecRwEDAAAAAAC4vaIqYLCMKgAAAAAAcHtF1gMDAAAAAADgYtEDAwAAAAAAuD0KGAAAAAAAwO1RwAAAAAAAAG6PAgYAAAAAAHB7FDAAAAAAAIDbo4ABAAAAAADcHgUMAAAAAADg9ihgAAAAAAAAt0cBAwAAAAAAuD0KGAAAAAAAwO1RwAAAAAAAAG6PAgYAAAAAAHB7FDAAAAAAAIDbo4ABAAAAAADcHgUMAAAAAADg9ihgAAAAAAAAt0cBAwAAAAAAuD0KGAAAAAAAwO1RwAAAAAAAAG6PAgYAAAAAAHB7FDAAAAAAAIDbo4ABAAAAAADcHgUMAAAAAADg5kT+D+23pO/wsMDPAAAAAElFTkSuQmCC;" vertex="1" parent="1">
                    <mxGeometry x="-700" y="50" width="1072" height="739" as="geometry"/>
                </mxCell>
            </root>
        </mxGraphModel>
    </diagram>
</mxfile>